<svg width="40" height="40" viewBox="0 0 40 40" fill="none" xmlns="http://www.w3.org/2000/svg">
<path d="M20 40C31.0155 40 40 31.0157 40 20.0001C40 8.98435 31.0157 0 20 0C8.9843 0 0 8.98435 0 20C0 31.0156 8.9843 40 20 40Z" fill="#A1F1AA"/>
<path d="M24.8454 7.0412L21.0762 27.5029L23.7685 28.0413C29.4672 23.8683 31.9127 7.0412 24.8454 7.0412Z" fill="#4E1E30"/>
<path d="M24.8464 7.0412C23.904 6.46905 18.9307 5.016 15.154 7.0412C10.5098 9.53161 6.44886 18.4387 13.0002 27.5029C13.0095 27.5157 17.8464 26.9645 17.8464 26.9645L24.8464 7.0412Z" fill="#4E1E30"/>
<path fill-rule="evenodd" clip-rule="evenodd" d="M24.8457 39.4046C23.2931 39.7935 21.6697 40 19.9995 40C18.3293 40 16.7059 39.7935 15.1533 39.4047V28.3682C16.2251 27.5589 16.2303 26.221 16.2303 24.9901V23.7337H23.7687V24.9914H23.798C23.798 26.2118 23.8013 27.5381 24.8457 28.3494V39.4046Z" fill="#FFD7A3"/>
<path fill-rule="evenodd" clip-rule="evenodd" d="M24.307 39.5315C22.9189 39.8382 21.4773 40 19.9993 40C18.8998 40 17.8206 39.9105 16.7686 39.7384V34.6213C17.7489 34.8879 18.8415 35.0414 19.9993 35.0414C21.6023 35.0414 23.0854 34.7534 24.307 34.266V39.5315Z" fill="#0090FF"/>
<path d="M24.3074 30.7337C24.5039 30.7873 24.6808 30.8158 24.8459 30.8297V28.3493C23.8016 27.538 23.7982 26.2116 23.7982 24.9913L23.7975 24.96V23.7023L17.8459 23.7336L16.2305 24.272C17.3074 25.4837 20.6056 29.7241 24.3074 30.7337Z" fill="#FDC88E"/>
<path d="M27.5388 16.7334C27.5388 21.0455 23.2503 26.4258 20.0004 26.4258C16.7504 26.4258 12.4619 21.0455 12.4619 16.7334C12.4619 12.4214 15.837 10.8103 20.0004 10.8103C24.1637 10.8103 27.5388 12.4214 27.5388 16.7334Z" fill="#FFE1B2"/>
<path d="M21.0764 8.11804C20.7739 8.11804 19.7916 8.45796 18.9888 8.75582L18.9226 8.65648C18.9226 8.65648 18.8118 8.74354 18.62 8.89444C18.1734 9.06399 17.8457 9.19492 17.8457 9.19492L17.9716 9.40489C15.9279 11.0151 11.2649 14.6987 10.8456 15.118C10.3072 15.6565 14.0764 29.3943 14.0764 21.5796C14.0764 15.0508 17.7036 13.7578 21.0764 12.9642C22.602 12.6052 23.0508 11.7078 23.2302 10.8104C23.4098 9.91297 21.6149 8.11804 21.0764 8.11804Z" fill="#4E1E30"/>
<path d="M22.6921 11.3489C23.6793 14.8937 25.6537 16.4979 27.5047 16.9691C28.5189 17.2272 28.0768 14.0412 28.0768 14.0412C28.0768 14.0412 26.6409 10.3617 26.4614 10.272C26.282 10.1822 24.846 7.0412 24.846 7.0412L21.6152 9.73355L22.6921 11.3489Z" fill="#4E1E30"/>
<path fill-rule="evenodd" clip-rule="evenodd" d="M18.5544 39.9481L15.7447 27.723C15.2404 28.5423 14.2122 29.1183 12.1022 29.1183H11.9227C8.9009 29.1183 6.40755 31.3812 6.04492 34.3049C9.32951 37.51 13.7075 39.5993 18.5544 39.9481Z" fill="#FF955C"/>
<path fill-rule="evenodd" clip-rule="evenodd" d="M33.9547 34.3048C33.5921 31.3812 31.0987 29.1183 28.077 29.1183H27.8975C25.7875 29.1183 24.7593 28.5423 24.255 27.723L21.4453 39.9481C26.2921 39.5992 30.6701 37.5099 33.9547 34.3048Z" fill="#FF955C"/>
<path d="M26.7356 16.7827C27.6167 16.5808 28.1939 17.0123 28.1939 17.8597C28.1939 18.9815 27.0091 21.7299 25.7635 20.0135C24.5179 18.2971 26.7356 16.7827 26.7356 16.7827Z" fill="#FFE1B2"/>
</svg>
