<svg width="20" height="20" viewBox="0 0 20 20" fill="none" xmlns="http://www.w3.org/2000/svg">
<path fill-rule="evenodd" clip-rule="evenodd" d="M2.75 4.41998C2.33579 4.41998 2 4.75577 2 5.16998C2 5.5842 2.33579 5.91998 2.75 5.91998H17.25C17.6642 5.91998 18 5.5842 18 5.16998C18 4.75577 17.6642 4.41998 17.25 4.41998H2.75ZM5.16669 7.64221C4.75247 7.64221 4.41669 7.978 4.41669 8.39221C4.41669 8.80643 4.75247 9.14221 5.16669 9.14221H14.8334C15.2476 9.14221 15.5834 8.80643 15.5834 8.39221C15.5834 7.978 15.2476 7.64221 14.8334 7.64221H5.16669ZM2 11.6144C2 11.2002 2.33579 10.8644 2.75 10.8644H17.25C17.6642 10.8644 18 11.2002 18 11.6144C18 12.0287 17.6642 12.3644 17.25 12.3644H2.75C2.33579 12.3644 2 12.0287 2 11.6144ZM5.16669 14.0867C4.75247 14.0867 4.41669 14.4225 4.41669 14.8367C4.41669 15.2509 4.75247 15.5867 5.16669 15.5867H14.8334C15.2476 15.5867 15.5834 15.2509 15.5834 14.8367C15.5834 14.4225 15.2476 14.0867 14.8334 14.0867H5.16669Z" fill="#B5B7BF"/>
</svg>
