<svg width="20" height="20" viewBox="0 0 20 20" fill="none" xmlns="http://www.w3.org/2000/svg">
<path fill-rule="evenodd" clip-rule="evenodd" d="M2.75 4.41998C2.33579 4.41998 2 4.75577 2 5.16998C2 5.5842 2.33579 5.91998 2.75 5.91998H17.25C17.6642 5.91998 18 5.5842 18 5.16998C18 4.75577 17.6642 4.41998 17.25 4.41998H2.75ZM2.75 7.64221C2.33579 7.64221 2 7.978 2 8.39221C2 8.80643 2.33579 9.14221 2.75 9.14221H14.0278C14.442 9.14221 14.7778 8.80643 14.7778 8.39221C14.7778 7.978 14.442 7.64221 14.0278 7.64221H2.75ZM2 11.6144C2 11.2002 2.33579 10.8644 2.75 10.8644H17.25C17.6642 10.8644 18 11.2002 18 11.6144C18 12.0287 17.6642 12.3644 17.25 12.3644H2.75C2.33579 12.3644 2 12.0287 2 11.6144ZM2.75 14.0867C2.33579 14.0867 2 14.4225 2 14.8367C2 15.2509 2.33579 15.5867 2.75 15.5867H14.0278C14.442 15.5867 14.7778 15.2509 14.7778 14.8367C14.7778 14.4225 14.442 14.0867 14.0278 14.0867H2.75Z" fill="#B5B7BF"/>
</svg>
