<svg width="22" height="22" viewBox="0 0 22 22" fill="none" xmlns="http://www.w3.org/2000/svg">
<path d="M11 21C16.5228 21 21 16.5228 21 11C21 5.47715 16.5228 1 11 1C5.47715 1 1 5.47715 1 11C1 16.5228 5.47715 21 11 21Z" fill="#FFD93B"/>
<path d="M20.9997 11C20.9997 16.525 16.5216 21 10.9998 21C7.85601 21 5.04977 19.55 3.21539 17.2781C4.93102 18.6656 7.11539 19.4938 9.49351 19.4938C15.0154 19.4938 19.4935 15.0188 19.4935 9.49376C19.4935 7.11564 18.6654 4.93126 17.2779 3.21564C19.5466 5.05001 20.9997 7.85626 20.9997 11Z" fill="#F4C534"/>
<path d="M14.2929 17.8838C13.9991 17.8901 13.6598 17.747 13.2616 17.5838C12.6679 17.3295 11.9173 17.0163 11.0166 17.042C10.1223 17.0613 9.39788 17.3682 8.81726 17.6032C7.70851 18.067 6.98601 18.1188 6.93101 16.6895C6.90413 14.962 8.79851 12.8132 10.9185 12.7476C12.7785 12.7151 15.0498 14.2482 15.0954 16.1932C15.1123 16.9713 15.0654 17.8488 14.2929 17.8838Z" fill="#3E4347"/>
<path d="M13.7512 17.4399C11.4525 16.5718 11.1537 16.363 8.37372 17.4461C8.45497 17.2286 8.84997 16.023 8.84997 15.8211C9.26747 15.6255 9.72434 15.4036 10.24 15.2861C9.74372 15.3386 9.28059 15.4818 8.86934 15.6255C8.89872 15.093 8.73184 14.7068 8.52372 14.1374C10.025 12.7236 11.885 12.7724 13.4318 13.9218C13.2556 14.4511 13.0362 15.068 13.125 15.5861C12.8381 15.488 12.5506 15.4036 11.97 15.3055C12.6031 15.5211 12.8575 15.6511 13.1706 15.8149C13.3206 16.3499 13.51 16.8918 13.7512 17.4399Z" fill="white"/>
<path d="M11.5342 9.49683C11.4024 10.9731 12.6798 11.8981 14.143 12.4331C15.6255 12.9112 17.2017 12.9656 18.0055 11.72C18.8092 10.5025 18.1098 7.93308 15.9455 7.1862C13.7792 6.4437 11.648 8.04245 11.5342 9.49683Z" fill="#F4C534"/>
<path d="M12.1295 9.30987C11.8913 10.5724 12.8826 11.4543 14.0632 12.0124C15.2651 12.5224 16.5826 12.6743 17.3638 11.6549C18.1432 10.6599 17.7782 8.39987 16.0282 7.61299C14.2763 6.82924 12.3507 8.06424 12.1295 9.30987Z" fill="white"/>
<path d="M15.0155 8.86407C14.5202 8.36884 13.7165 8.36963 13.2203 8.86584C12.7241 9.36204 12.7233 10.1658 13.2185 10.661C13.7138 11.1562 14.5175 11.1554 15.0137 10.6592C15.5099 10.163 15.5107 9.3593 15.0155 8.86407Z" fill="#3E4347"/>
<path d="M13.3103 9.5701C13.4078 9.67323 13.6134 9.63323 13.7628 9.48447C13.9059 9.33572 13.9459 9.1351 13.8484 9.03822C13.7453 8.9351 13.5446 8.9751 13.3959 9.12385C13.2471 9.2726 13.2071 9.4726 13.3103 9.5701Z" fill="#5A5F63"/>
<path d="M10.4663 9.49683C10.5982 10.9731 9.32069 11.8981 7.85756 12.4331C6.37507 12.9112 4.79881 12.9656 3.99506 11.72C3.19131 10.5025 3.89069 7.93308 6.05507 7.1862C8.22069 6.4437 10.3519 8.04245 10.4663 9.49683Z" fill="#F4C534"/>
<path d="M9.87047 9.30987C10.1086 10.5724 9.11734 11.4543 7.93672 12.0124C6.73484 12.5224 5.41734 12.6743 4.63609 11.6549C3.85672 10.6599 4.22109 8.39987 5.97172 7.61299C7.72359 6.82924 9.64922 8.06424 9.87047 9.30987Z" fill="white"/>
<path d="M8.7778 8.8673C8.28159 8.3711 7.47788 8.37031 6.98265 8.86554C6.48742 9.36077 6.48821 10.1645 6.98442 10.6607C7.48062 11.1569 8.28434 11.1577 8.77956 10.6625C9.27479 10.1672 9.274 9.36351 8.7778 8.8673Z" fill="#3E4347"/>
<path d="M8.6902 9.5701C8.5927 9.67323 8.38707 9.63323 8.23769 9.48447C8.09457 9.33572 8.05457 9.1351 8.15207 9.03822C8.25519 8.9351 8.45519 8.9751 8.60457 9.12385C8.75332 9.2726 8.79332 9.4726 8.6902 9.5701Z" fill="#5A5F63"/>
<path d="M17.4534 6.36448C17.5084 6.70198 16.9621 6.24635 16.8528 6.19385C15.8478 5.68135 14.5834 5.8451 13.6853 6.41886C13.4234 6.59011 13.1878 6.80136 12.8965 6.94573C12.4053 7.18323 11.7896 7.17198 11.3384 6.94573C11.6978 7.06886 12.2459 6.94823 12.8271 6.33573C13.0378 6.11385 13.229 5.87385 13.4778 5.6826C15.1121 4.42697 17.3553 5.80448 17.4534 6.36448Z" fill="#3E4347"/>
<path d="M4.54691 6.36448C4.49191 6.70198 5.03816 6.24635 5.14753 6.19385C6.15253 5.68135 7.41691 5.8451 8.31503 6.41886C8.57691 6.59011 8.81253 6.80136 9.10378 6.94573C9.59503 7.18323 10.2107 7.17198 10.6619 6.94573C10.3025 7.06886 9.75441 6.94823 9.17253 6.33573C8.96191 6.11385 8.77066 5.87385 8.52191 5.6826C6.88816 4.42697 4.64503 5.80448 4.54691 6.36448Z" fill="#3E4347"/>
</svg>
