<svg width="20" height="20" viewBox="0 0 20 20" fill="none" xmlns="http://www.w3.org/2000/svg">
<path fill-rule="evenodd" clip-rule="evenodd" d="M2 3.75C2 3.33579 2.33579 3 2.75 3H17.25C17.6642 3 18 3.33579 18 3.75V7.04545C18 7.45967 17.6642 7.79545 17.25 7.79545H16.6818V15.6136C16.6818 16.0278 16.346 16.3636 15.9318 16.3636H4.06818C3.65396 16.3636 3.31818 16.0278 3.31818 15.6136V7.79545H2.75C2.33579 7.79545 2 7.45967 2 7.04545V3.75ZM15.9318 6.29544L15.9364 6.29545H16.5V4.5H3.5V6.29545H4.06357L4.06818 6.29544L4.07278 6.29545H15.9272L15.9318 6.29544ZM15.1818 7.79545H4.81818V14.8636H15.1818V7.79545ZM8.68182 8.93182C8.26761 8.93182 7.93182 9.26761 7.93182 9.68182C7.93182 10.096 8.26761 10.4318 8.68182 10.4318H11.3182C11.7324 10.4318 12.0682 10.096 12.0682 9.68182C12.0682 9.26761 11.7324 8.93182 11.3182 8.93182H8.68182Z" fill="#93959C"/>
</svg>
