<svg width="20" height="20" viewBox="0 0 20 20" fill="none" xmlns="http://www.w3.org/2000/svg">
<path fill-rule="evenodd" clip-rule="evenodd" d="M12.844 3.5C12.2961 3.5 11.7707 3.71765 11.3833 4.10507L4.91744 10.5709C4.26598 11.2224 3.89999 12.1059 3.89999 13.0272C3.89999 13.9485 4.26598 14.8321 4.91744 15.4836C5.5689 16.135 6.45247 16.501 7.37377 16.501C8.29507 16.501 9.17864 16.135 9.8301 15.4836L16.2959 9.01773C16.5888 8.72484 17.0637 8.72484 17.3566 9.01773C17.6495 9.31063 17.6495 9.7855 17.3566 10.0784L10.8908 16.5442C9.958 17.477 8.6929 18.001 7.37377 18.001C6.05464 18.001 4.78954 17.477 3.85678 16.5442C2.92402 15.6115 2.39999 14.3464 2.39999 13.0272C2.39999 11.7081 2.92402 10.443 3.85678 9.51023L10.3226 3.04441C10.9913 2.37569 11.8983 2 12.844 2C13.7898 2 14.6967 2.37569 15.3655 3.04441C16.0342 3.71314 16.4099 4.62013 16.4099 5.56585C16.4099 6.51157 16.0342 7.41856 15.3655 8.08729L8.89262 14.5531C8.89252 14.5532 8.89271 14.553 8.89262 14.5531C8.48796 14.9576 7.93892 15.1852 7.36673 15.1852C6.79442 15.1852 6.24554 14.9578 5.84085 14.5531C5.43616 14.1484 5.20881 13.5995 5.20881 13.0272C5.20881 12.4549 5.43616 11.906 5.84085 11.5013L11.8145 5.53474C12.1075 5.24202 12.5824 5.2423 12.8751 5.53537C13.1679 5.82843 13.1676 6.30331 12.8745 6.59603L6.90151 12.562C6.77813 12.6854 6.70881 12.8527 6.70881 13.0272C6.70881 13.2017 6.77813 13.3691 6.90151 13.4924C7.0249 13.6158 7.19224 13.6852 7.36673 13.6852C7.54123 13.6852 7.70857 13.6158 7.83196 13.4924L14.3048 7.02663C14.6922 6.63921 14.9099 6.11375 14.9099 5.56585C14.9099 5.01795 14.6922 4.4925 14.3048 4.10507C13.9174 3.71765 13.3919 3.5 12.844 3.5Z" fill="#93959C"/>
</svg>
