<svg width="20" height="20" viewBox="0 0 20 20" fill="none" xmlns="http://www.w3.org/2000/svg">
<path fill-rule="evenodd" clip-rule="evenodd" d="M12.8476 3.37143C12.2851 3.37143 11.7448 3.59746 11.3458 4.00113L4.89888 10.5238C4.23649 11.194 3.86364 12.1038 3.86364 13.0534C3.86364 14.0029 4.23649 14.9127 4.89888 15.5829C5.56114 16.2529 6.45848 16.6286 7.39327 16.6286C8.32807 16.6286 9.22541 16.2529 9.88766 15.5829L16.3346 9.06016C16.6001 8.79158 17.0318 8.79028 17.2989 9.05726C17.5659 9.32425 17.5672 9.75842 17.3017 10.027L10.8548 16.5497C9.93743 17.4778 8.69237 18 7.39327 18C6.09418 18 4.84912 17.4778 3.93177 16.5497C3.01456 15.6217 2.5 14.364 2.5 13.0534C2.5 11.7427 3.01456 10.485 3.93177 9.557L10.3787 3.03429C11.0328 2.37253 11.9208 2 12.8476 2C13.7744 2 14.6624 2.37253 15.3164 3.03429C15.9704 3.69592 16.337 4.59241 16.337 5.52634C16.337 6.46026 15.9704 7.35675 15.3164 8.01838L8.86247 14.5411C8.86238 14.5412 8.86255 14.541 8.86247 14.5411C8.47168 14.9363 7.9406 15.1594 7.38626 15.1594C6.83179 15.1594 6.30086 14.9365 5.91005 14.5411C5.51937 14.1458 5.30062 13.6106 5.30062 13.0534C5.30062 12.4961 5.51937 11.9609 5.91005 11.5656L11.8662 5.54656C12.1319 5.27813 12.5636 5.27709 12.8305 5.54423C13.0974 5.81137 13.0984 6.24554 12.8328 6.51397L6.87717 12.5325C6.74131 12.6699 6.66426 12.8572 6.66426 13.0534C6.66426 13.2495 6.74131 13.4368 6.87717 13.5742C7.01289 13.7116 7.19609 13.7879 7.38626 13.7879C7.57642 13.7879 7.75963 13.7116 7.89535 13.5742L14.3493 7.05154C14.7484 6.64773 14.9734 6.09917 14.9734 5.52634C14.9734 4.9535 14.7484 4.40495 14.3493 4.00113C13.9503 3.59746 13.4101 3.37143 12.8476 3.37143Z" fill="#93959C"/>
</svg>
