<svg width="20" height="20" viewBox="0 0 20 20" fill="none" xmlns="http://www.w3.org/2000/svg">
<path fill-rule="evenodd" clip-rule="evenodd" d="M4 2C3.44772 2 3 2.44772 3 3V10V17C3 17.5523 3.44772 18 4 18H12C13.2862 18 14.5421 17.5541 15.4869 16.7274C16.436 15.897 17 14.7398 17 13.5C17 12.2602 16.436 11.103 15.4869 10.2725C15.2092 10.0295 14.9045 9.81936 14.58 9.6438C15.4728 8.82022 16 7.69874 16 6.5C16 5.26016 15.436 4.10297 14.4869 3.27255C13.5421 2.44586 12.2862 2 11 2H4ZM11 9C11.8356 9 12.6144 8.70836 13.1699 8.2223C13.7212 7.73996 14 7.11667 14 6.5C14 5.88333 13.7212 5.26004 13.1699 4.7777C12.6144 4.29164 11.8356 4 11 4H5V9H11ZM5 11V16H12C12.8356 16 13.6144 15.7084 14.1699 15.2223C14.7212 14.74 15 14.1167 15 13.5C15 12.8833 14.7212 12.26 14.1699 11.7777C13.6144 11.2916 12.8356 11 12 11H11H5Z" fill="#93959C"/>
</svg>
