<svg width="20" height="20" viewBox="0 0 20 20" fill="none" xmlns="http://www.w3.org/2000/svg">
<path d="M10 8.375C8.6744 8.375 7.6 9.467 7.6 10.8125C7.6 12.158 8.6744 13.25 10 13.25C11.3248 13.25 12.4 12.158 12.4 10.8125C12.4 9.467 11.3248 8.375 10 8.375ZM16.4 5.9375H14.48C14.216 5.9375 13.9312 5.7295 13.8488 5.47437L13.352 3.96231C13.268 3.708 12.9848 3.5 12.72 3.5H7.28C7.016 3.5 6.7312 3.708 6.6488 3.9615L6.1512 5.47437C6.068 5.7295 5.784 5.9375 5.52 5.9375H3.6C2.72 5.9375 2 6.66875 2 7.5625V14.875C2 15.7688 2.72 16.5 3.6 16.5H16.4C17.28 16.5 18 15.7688 18 14.875V7.5625C18 6.66875 17.28 5.9375 16.4 5.9375ZM10 14.875C7.7904 14.875 6 13.0566 6 10.8125C6 8.56838 7.7904 6.75 10 6.75C12.2088 6.75 14 8.56838 14 10.8125C14 13.0566 12.2088 14.875 10 14.875ZM16 8.5375C15.6904 8.5375 15.44 8.28237 15.44 7.96794C15.44 7.65513 15.6904 7.39919 16 7.39919C16.3096 7.39919 16.56 7.65431 16.56 7.96794C16.56 8.28237 16.3096 8.5375 16 8.5375Z" fill="#93959C"/>
</svg>
