<svg width="20" height="20" viewBox="0 0 20 20" fill="none" xmlns="http://www.w3.org/2000/svg">
<path fill-rule="evenodd" clip-rule="evenodd" d="M7.2619 2.75C7.2619 2.33579 6.92612 2 6.5119 2C6.09769 2 5.7619 2.33579 5.7619 2.75V4.82143C5.7619 5.23564 6.09769 5.57143 6.5119 5.57143C6.92612 5.57143 7.2619 5.23564 7.2619 4.82143V2.75ZM3 7.58334C3 7.16913 3.33579 6.83334 3.75 6.83334H14.7976H14.7976H15.4881C16.4195 6.83334 17.3128 7.20335 17.9714 7.86196C18.63 8.52057 19 9.41383 19 10.3452C19 11.2767 18.63 12.1699 17.9714 12.8285C17.3267 13.4732 16.4572 13.8414 15.5471 13.8567C15.5318 14.7667 15.1637 15.6362 14.519 16.2809C13.8604 16.9395 12.9671 17.3095 12.0357 17.3095H6.5119C5.58049 17.3095 4.68722 16.9395 4.02861 16.2809C3.37 15.6223 3 14.729 3 13.7976V7.58334ZM15.5476 12.3563V8.33422C16.0596 8.34937 16.5475 8.55937 16.9107 8.92262C17.288 9.29992 17.5 9.81166 17.5 10.3452C17.5 10.8788 17.288 11.3906 16.9107 11.7679C16.5475 12.1311 16.0596 12.3411 15.5476 12.3563ZM14.0476 8.33334V13.103L14.0476 13.1072L14.0476 13.1113V13.7976C14.0476 14.3312 13.8357 14.843 13.4583 15.2203C13.081 15.5976 12.5693 15.8095 12.0357 15.8095H6.5119C5.97831 15.8095 5.46658 15.5976 5.08927 15.2203C4.71197 14.843 4.5 14.3312 4.5 13.7976V8.33334H14.0476ZM9.2738 2C9.68802 2 10.0238 2.33579 10.0238 2.75V4.82143C10.0238 5.23564 9.68802 5.57143 9.2738 5.57143C8.85959 5.57143 8.5238 5.23564 8.5238 4.82143V2.75C8.5238 2.33579 8.85959 2 9.2738 2ZM12.7857 2.75C12.7857 2.33579 12.4499 2 12.0357 2C11.6215 2 11.2857 2.33579 11.2857 2.75V4.82143C11.2857 5.23564 11.6215 5.57143 12.0357 5.57143C12.4499 5.57143 12.7857 5.23564 12.7857 4.82143V2.75Z" fill="#93959C"/>
</svg>
