<svg width="22" height="22" viewBox="0 0 22 22" fill="none" xmlns="http://www.w3.org/2000/svg">
<path d="M11 21C16.5228 21 21 16.5228 21 11C21 5.47715 16.5228 1 11 1C5.47715 1 1 5.47715 1 11C1 16.5228 5.47715 21 11 21Z" fill="#FFD93B"/>
<path d="M21 11C21 16.525 16.5219 21 11 21C7.85626 21 5.05001 19.55 3.21564 17.2781C4.93126 18.6656 7.11564 19.4938 9.49376 19.4938C15.0156 19.4938 19.4938 15.0188 19.4938 9.49376C19.4938 7.11564 18.6656 4.93126 17.2781 3.21564C19.5469 5.05001 21 7.85626 21 11Z" fill="#F4C534"/>
<path d="M7.70836 7.04036C5.88118 6.79198 4.19841 8.07323 3.9498 9.90213C3.70118 11.731 4.98087 13.415 6.80805 13.6634C8.63523 13.9117 10.318 12.6305 10.5666 10.8016C10.8152 8.9727 9.53554 7.28874 7.70836 7.04036Z" fill="#F4C534"/>
<path d="M10.0256 10.7263C9.7275 12.2813 8.2475 13.3763 6.71875 13.1682C5.19 12.9601 4.19 11.5282 4.48875 9.97317C4.78688 8.41817 6.27188 7.32379 7.80063 7.53129C9.32938 7.73942 10.3244 9.17129 10.0256 10.7263Z" fill="white"/>
<path d="M8.27233 8.76824C7.44732 8.65609 6.66965 9.36596 6.53537 10.3538C6.40109 11.3416 6.96104 12.2333 7.78605 12.3455C8.61107 12.4576 9.38873 11.7477 9.52302 10.7599C9.6573 9.77209 9.09735 8.88039 8.27233 8.76824Z" fill="#65B1EF"/>
<path d="M8.18916 9.39656C7.59368 9.31561 7.0322 9.82922 6.93508 10.5437C6.83795 11.2582 7.24194 11.9031 7.83743 11.984C8.43291 12.065 8.99439 11.5514 9.09152 10.8369C9.18865 10.1224 8.78465 9.47751 8.18916 9.39656Z" fill="#3E4347"/>
<path d="M8.64072 10.2677C8.84438 10.2677 9.00947 10.1026 9.00947 9.8989C9.00947 9.69525 8.84438 9.53015 8.64072 9.53015C8.43707 9.53015 8.27197 9.69525 8.27197 9.8989C8.27197 10.1026 8.43707 10.2677 8.64072 10.2677Z" fill="white"/>
<path d="M15.1613 5.5157C13.3341 5.26731 11.6514 6.54857 11.4028 8.37747C11.1541 10.2064 12.4338 11.8903 14.261 12.1387C16.0882 12.3871 17.771 11.1058 18.0196 9.27694C18.2682 7.44804 16.9885 5.76408 15.1613 5.5157Z" fill="#F4C534"/>
<path d="M17.4781 9.20439C17.18 10.7594 15.7 11.8544 14.1712 11.6463C12.6425 11.4381 11.6431 10.0063 11.9412 8.45126C12.2394 6.89626 13.7244 5.80188 15.2531 6.00938C16.7819 6.2175 17.7769 7.64938 17.4781 9.20439Z" fill="white"/>
<path d="M14.3545 6.66661C13.5294 6.55446 12.7518 7.26434 12.6175 8.25216C12.4832 9.23998 13.0432 10.1317 13.8682 10.2438C14.6932 10.356 15.4709 9.64611 15.6051 8.65829C15.7394 7.67047 15.1795 6.77876 14.3545 6.66661Z" fill="#65B1EF"/>
<path d="M14.2705 7.29628C13.6751 7.21533 13.1136 7.72893 13.0165 8.44345C12.9193 9.15796 13.3233 9.80282 13.9188 9.88376C14.5143 9.96471 15.0758 9.45111 15.1729 8.73659C15.27 8.02207 14.866 7.37722 14.2705 7.29628Z" fill="#3E4347"/>
<path d="M14.8539 8.28676C15.0575 8.28676 15.2226 8.12166 15.2226 7.91801C15.2226 7.71435 15.0575 7.54926 14.8539 7.54926C14.6502 7.54926 14.4851 7.71435 14.4851 7.91801C14.4851 8.12166 14.6502 8.28676 14.8539 8.28676Z" fill="white"/>
<path d="M7.45065 16.1075C7.87065 16.4413 8.2969 16.6756 8.7544 16.8475C9.86877 17.2294 10.9075 17.1238 11.7044 16.7263C13.0006 16.1181 14.4581 14.315 16.2388 15.1613C14.4188 15.175 13.6838 16.7944 12.1063 17.5725C10.8638 18.1456 9.48315 18.0013 8.5069 17.3225C7.95065 16.9419 7.7044 16.5881 7.45065 16.1075Z" fill="#F4C534"/>
</svg>
