<svg width="22" height="22" viewBox="0 0 22 22" fill="none" xmlns="http://www.w3.org/2000/svg">
<path d="M11 21C16.5228 21 21 16.5228 21 11C21 5.47715 16.5228 1 11 1C5.47715 1 1 5.47715 1 11C1 16.5228 5.47715 21 11 21Z" fill="#FFD93B"/>
<path d="M21 11C21 16.525 16.5219 21 11 21C7.85626 21 5.05001 19.55 3.21564 17.2781C4.93126 18.6656 7.11564 19.4938 9.49376 19.4938C15.0156 19.4938 19.4938 15.0188 19.4938 9.49376C19.4938 7.11564 18.6656 4.93126 17.2781 3.21564C19.5469 5.05001 21 7.85626 21 11Z" fill="#F4C534"/>
<path d="M20.4738 8.13435C20.4738 10.3556 18.8694 12.5837 16.0844 12.5837C14.2944 12.5837 12.6231 11.5625 11.94 9.91123C11.7013 9.33435 11.3894 8.93685 10.9981 8.93685C10.6069 8.93685 10.295 9.33435 10.0569 9.9181C9.38689 11.5625 7.72314 12.5837 5.93939 12.5837H5.91939C1.06564 12.5837 -0.200606 5.84685 4.33439 4.10935C6.37002 3.3331 8.80377 3.00873 10.9981 3.00873C13.1994 3.00873 15.6331 3.33373 17.6688 4.11623C19.5919 4.85248 20.4738 6.49685 20.4738 8.13435Z" fill="#303538"/>
<path d="M16.0844 11.755C14.575 11.755 13.2488 10.9069 12.7063 9.59502C12.1988 8.36565 11.4975 8.10815 10.9988 8.10815C10.4988 8.10815 9.79625 8.36752 9.29 9.60377C8.76625 10.8913 7.42 11.755 5.93938 11.755C3.73438 11.755 2.66813 10.1831 2.41938 8.8369C2.17188 7.49877 2.6025 5.66065 4.63125 4.88315C6.40125 4.2094 8.66251 3.83752 10.9988 3.83752C13.3431 3.83752 15.6069 4.21127 17.3725 4.89002C18.7956 5.43502 19.6456 6.64815 19.6456 8.13502C19.645 9.8894 18.3969 11.755 16.0844 11.755Z" fill="#3E4347"/>
<path d="M6.60746 4.30315L2.37683 8.53315C2.38746 8.63628 2.40058 8.73753 2.41871 8.83628C2.45808 9.04815 2.51933 9.26503 2.60058 9.48065L8.03558 4.04565C7.54496 4.11503 7.06808 4.20065 6.60746 4.30315Z" fill="#5A5F63"/>
<path d="M8.73246 3.96002L2.78809 9.9044C3.12371 10.5494 3.66684 11.1375 4.45496 11.47L12.0587 3.86627C11.7075 3.8494 11.3543 3.83752 10.9981 3.83752C10.2293 3.83752 9.47059 3.8819 8.73246 3.96002Z" fill="#5A5F63"/>
<path d="M17.3718 4.89001C17.343 4.87876 17.3118 4.87001 17.283 4.85876L12.6543 9.48751C12.6712 9.52501 12.6893 9.55501 12.7055 9.59501C12.8018 9.82751 12.9299 10.0394 13.0724 10.2406L18.0655 5.24751C17.8512 5.11064 17.6243 4.98626 17.3718 4.89001Z" fill="#5A5F63"/>
<path d="M15.4556 11.7006L19.5981 7.55814C19.4681 6.73252 19.0556 6.02314 18.4218 5.50189L13.3437 10.58C13.8837 11.1675 14.6231 11.5663 15.4556 11.7006Z" fill="#5A5F63"/>
<path d="M15.5394 16.3375C14.925 17.3444 13.7794 18.2837 10.8763 18.885C7.93877 19.5712 7.0294 18.2894 6.42877 16.1381C5.7844 13.9612 6.45502 12.5406 11.1544 13.5987C15.82 14.5231 16.17 15.3256 15.5394 16.3375Z" fill="#3E4347"/>
<path d="M13.1256 16.3888C13.7162 16.5119 14.3225 16.5663 14.95 16.5219C13.7518 17.4463 12.0406 18.2288 10.8943 18.3256C7.9756 18.8881 7.3381 17.4131 7.0756 16.5319C8.2506 16.6631 9.11935 16.4569 9.11935 16.4569C8.34435 16.2944 7.4131 15.9006 6.8631 15.6506C6.7006 14.7506 6.79435 13.4069 10.9006 14.2069C12.9693 14.5506 14.5618 15.135 15.0806 15.4538C14.4162 16.0794 13.1256 16.3888 13.1256 16.3888Z" fill="white"/>
</svg>
