<svg width="22" height="22" viewBox="0 0 22 22" fill="none" xmlns="http://www.w3.org/2000/svg">
<path d="M11 21C16.5228 21 21 16.5228 21 11C21 5.47715 16.5228 1 11 1C5.47715 1 1 5.47715 1 11C1 16.5228 5.47715 21 11 21Z" fill="#FFD93B"/>
<path d="M21 11C21 16.525 16.5219 21 11 21C7.85626 21 5.05001 19.55 3.21564 17.2781C4.93126 18.6656 7.11564 19.4938 9.49376 19.4938C15.0156 19.4938 19.4938 15.0188 19.4938 9.49376C19.4938 7.11564 18.6656 4.93126 17.2781 3.21564C19.5469 5.05001 21 7.85626 21 11Z" fill="#F4C534"/>
<path d="M20.3125 6.81314C20.3412 6.89064 20.3125 6.97877 20.2456 7.03252C20.1162 7.13564 19.9862 7.23752 19.8556 7.33814C19.6806 7.47252 19.5906 7.68189 19.6025 7.89189C19.6543 8.77564 19.5093 9.68752 19.285 10.5744C19.0787 11.32 18.6768 11.465 17.9143 11.6238C15.835 12.07 13.5006 12.0913 13.06 12.0294C12.6418 11.9763 12.2875 11.7269 12.1312 11.3406C11.9406 10.8719 11.7493 10.23 11.5875 9.61752C11.5237 9.36439 11.2787 9.18814 11.0031 9.18752C10.7231 9.18877 10.4781 9.36439 10.4143 9.61752C10.2525 10.2306 10.0618 10.8731 9.8706 11.3406C9.7106 11.7269 9.35997 11.9788 8.94185 12.0294C8.5006 12.0913 6.1681 12.07 4.08747 11.6238C3.32497 11.4656 2.9181 11.32 2.71685 10.5744C2.48872 9.66564 2.33997 8.72689 2.40685 7.82126C2.4231 7.60564 2.3331 7.39314 2.1556 7.25564C2.02747 7.15627 1.90122 7.05689 1.77497 6.95627C1.70872 6.90127 1.6806 6.81439 1.70872 6.73689C1.78872 6.49127 1.8681 6.24627 1.94685 6.00064C1.98372 5.88502 2.1131 5.82939 2.22497 5.87877C2.63435 6.05627 3.04747 6.22689 3.46435 6.39002C3.51435 6.41127 3.5681 6.42189 3.62185 6.42877C6.60872 6.72127 8.00122 7.59377 10.9987 7.64127C12.0087 7.64002 13.0131 7.51939 13.985 7.28189C15.5656 6.90189 17.0493 6.56377 18.6687 6.39814C18.725 6.39064 18.7806 6.38064 18.8331 6.35814C19.1562 6.22814 19.4775 6.09314 19.7962 5.95439C19.9075 5.90877 20.0375 5.96189 20.0743 6.07627C20.1531 6.32127 20.2331 6.56752 20.3125 6.81314Z" fill="#3E4347"/>
<path d="M9.19123 11.0906C9.12936 11.2369 9.01061 11.3381 8.85811 11.3906C8.40623 11.5656 5.35311 11.2581 4.30873 10.995C3.88123 10.9044 3.61186 10.89 3.50186 10.44C3.26561 9.55689 3.04123 8.00814 3.34811 7.17126C5.48686 7.45876 7.97811 8.04689 9.89248 8.50627C9.75248 9.38064 9.52061 10.2575 9.19123 11.0906Z" fill="#5A5F63"/>
<path d="M12.1076 8.50627C14.0264 8.04627 16.5114 7.45689 18.652 7.17126C18.9582 8.00751 18.7339 9.55626 18.4976 10.44C18.3876 10.8881 18.1182 10.9044 17.6907 10.9944C16.6507 11.2594 13.5939 11.5644 13.1414 11.39C12.9889 11.3388 12.8701 11.2356 12.8082 11.09C12.4795 10.2581 12.2482 9.38064 12.1076 8.50627Z" fill="#5A5F63"/>
<path d="M18.6517 7.17126C18.0948 7.24564 17.5136 7.34126 16.9261 7.44876L13.0417 11.3331C13.0754 11.3519 13.1036 11.3775 13.1417 11.39C13.3123 11.4556 13.8554 11.4531 14.5198 11.4106L18.6742 7.25627C18.6654 7.22939 18.6611 7.19689 18.6517 7.17126Z" fill="#777B7E"/>
<path d="M15.3479 7.76251L12.5992 10.5113C12.6586 10.6881 12.7217 10.8638 12.7892 11.0369L16.2486 7.57751C15.9473 7.63751 15.6467 7.69876 15.3479 7.76251Z" fill="#777B7E"/>
<path d="M6.10041 7.64941L3.46478 10.285C3.47728 10.3363 3.48978 10.3925 3.50228 10.4407C3.61228 10.8907 3.88166 10.905 4.30916 10.9957C4.30916 10.9957 4.31041 10.9957 4.31103 10.9957L7.38416 7.92254C6.96041 7.82816 6.53166 7.73691 6.10041 7.64941Z" fill="#777B7E"/>
<path d="M5.04166 7.44312L3.26666 9.21812C3.29416 9.43187 3.32916 9.63687 3.36666 9.83374L5.64291 7.55749C5.44229 7.51874 5.24166 7.47999 5.04166 7.44312Z" fill="#777B7E"/>
<path d="M16.3606 14.7862C16.7425 15.0056 14.5844 18.1381 11 18.1381C7.33875 18.1381 5.25687 15.0062 5.63875 14.7862C5.92562 14.4956 8.0775 16.4456 11 16.4456C13.9206 16.4456 16.0737 14.4944 16.3606 14.7862Z" fill="#3E4347"/>
</svg>
