<svg width="20" height="20" viewBox="0 0 20 20" fill="none" xmlns="http://www.w3.org/2000/svg">
<path fill-rule="evenodd" clip-rule="evenodd" d="M3.70503 3.70503C3.8363 3.57375 4.01435 3.5 4.2 3.5H10.725C10.9107 3.5 11.0887 3.57375 11.22 3.70503C11.3513 3.8363 11.425 4.01435 11.425 4.2V4.925C11.425 5.33921 11.7608 5.675 12.175 5.675C12.5892 5.675 12.925 5.33921 12.925 4.925V4.2C12.925 3.61652 12.6932 3.05694 12.2806 2.64437C11.8681 2.23179 11.3085 2 10.725 2H4.2C3.61652 2 3.05695 2.23178 2.64437 2.64437C2.23178 3.05695 2 3.61652 2 4.2V10.725C2 11.3085 2.23179 11.8681 2.64437 12.2806C3.05694 12.6932 3.61652 12.925 4.2 12.925H4.925C5.33921 12.925 5.675 12.5892 5.675 12.175C5.675 11.7608 5.33921 11.425 4.925 11.425H4.2C4.01435 11.425 3.8363 11.3513 3.70503 11.22C3.57375 11.0887 3.5 10.9107 3.5 10.725V4.2C3.5 4.01435 3.57375 3.8363 3.70503 3.70503ZM8.57501 9.27501C8.57501 8.88841 8.88841 8.57501 9.27501 8.57501H15.8C16.1866 8.57501 16.5 8.88841 16.5 9.27501V15.8C16.5 16.1866 16.1866 16.5 15.8 16.5H9.27501C8.88841 16.5 8.57501 16.1866 8.57501 15.8V9.27501ZM9.27501 7.07501C8.05999 7.07501 7.07501 8.05999 7.07501 9.27501V15.8C7.07501 17.015 8.05999 18 9.27501 18H15.8C17.015 18 18 17.015 18 15.8V9.27501C18 8.05999 17.015 7.07501 15.8 7.07501H9.27501Z" fill="#93959C"/>
</svg>
