<svg width="10" height="10" viewBox="0 0 10 10" fill="none" xmlns="http://www.w3.org/2000/svg">
<path fill-rule="evenodd" clip-rule="evenodd" d="M8.07272 8.84091C8.28483 9.05302 8.62873 9.05302 8.84085 8.84091C9.05303 8.6288 9.05303 8.28482 8.84085 8.07271L5.76819 4.99998L8.84092 1.92727C9.05303 1.71515 9.05303 1.37122 8.84092 1.1591C8.62873 0.946968 8.28483 0.946968 8.07272 1.1591L4.99999 4.23179L1.92727 1.1591C1.71515 0.946975 1.37122 0.946975 1.1591 1.1591C0.946968 1.37123 0.946968 1.71516 1.1591 1.92729L4.23179 4.99998L1.1591 8.07271C0.946975 8.28482 0.946975 8.62873 1.1591 8.84091C1.37123 9.05302 1.71515 9.05302 1.92728 8.84091L4.99999 5.76818L8.07272 8.84091Z" fill="#93959C"/>
</svg>
