<svg width="22" height="22" viewBox="0 0 22 22" fill="none" xmlns="http://www.w3.org/2000/svg">
<path d="M11 21C16.5228 21 21 16.5228 21 11C21 5.47715 16.5228 1 11 1C5.47715 1 1 5.47715 1 11C1 16.5228 5.47715 21 11 21Z" fill="#FFD93B"/>
<path d="M21 11C21 16.525 16.5219 21 11 21C7.85626 21 5.05001 19.55 3.21564 17.2781C4.93126 18.6656 7.11564 19.4938 9.49376 19.4938C15.0156 19.4938 19.4938 15.0188 19.4938 9.49376C19.4938 7.11564 18.6656 4.93126 17.2781 3.21564C19.5469 5.05001 21 7.85626 21 11Z" fill="#F4C534"/>
<path d="M10.4848 10.1832C10.4848 11.9444 9.05232 13.3769 7.2842 13.3769C5.51607 13.3769 4.08357 11.9444 4.08357 10.1832C4.08357 8.41504 5.51607 6.98254 7.2842 6.98254C9.05295 6.98317 10.4848 8.41504 10.4848 10.1832Z" fill="#F4C534"/>
<path d="M9.87563 10.1825C10.0581 11.6244 9.04688 12.7975 7.61563 12.7975C6.18438 12.7975 4.87688 11.6244 4.69438 10.1825C4.51125 8.735 5.5225 7.5625 6.95375 7.5625C8.385 7.5625 9.6925 8.735 9.87563 10.1825Z" fill="white"/>
<path d="M9.32188 10.0606C9.32188 10.9419 8.72063 11.6587 7.98313 11.6587C7.24563 11.6587 6.64438 10.9419 6.64438 10.0606C6.64438 9.18623 7.24563 8.46936 7.98313 8.46936C8.72125 8.46936 9.32188 9.18686 9.32188 10.0606Z" fill="#3E4347"/>
<path d="M7.61625 12.7975C8.6525 12.7975 9.46062 12.1788 9.76312 11.2925C9.66 11.2694 9.55812 11.235 9.46062 11.1888L9.45625 11.1869C9.06562 11.0019 8.6125 11.0019 8.2225 11.1875H8.22125C7.83062 11.3731 7.37687 11.3731 6.98625 11.1875H6.98562C6.595 11.0019 6.14125 11.0019 5.75062 11.1875C5.54812 11.2838 5.32812 11.3281 5.10938 11.3244C5.64 12.1925 6.5925 12.7975 7.61625 12.7975Z" fill="#65B1EF"/>
<path d="M7.61252 10.4213C7.61252 10.5369 7.51877 10.6381 7.39565 10.6381C7.27252 10.6381 7.17877 10.5369 7.17877 10.4213C7.17877 10.2988 7.27252 10.1975 7.39565 10.1975C7.51877 10.1975 7.61252 10.2988 7.61252 10.4213Z" fill="white"/>
<path d="M8.65315 9.41688C8.65315 9.68438 8.43628 9.89376 8.17628 9.89376C7.90878 9.89376 7.6994 9.68438 7.6994 9.41688C7.6994 9.15688 7.90878 8.94751 8.17628 8.94751C8.43628 8.94751 8.65315 9.15688 8.65315 9.41688Z" fill="white"/>
<path d="M9.01937 11.0581C8.78062 11.4269 8.405 11.6581 7.98625 11.6581C7.63187 11.6581 7.31437 11.4919 7.07562 11.2244C7.24187 11.2969 7.4225 11.3331 7.60312 11.3331C7.8125 11.3331 8.0225 11.2825 8.22437 11.1888C8.41937 11.095 8.62875 11.0444 8.83875 11.0444C8.89625 11.0431 8.96125 11.0506 9.01937 11.0581Z" fill="#4E99D2"/>
<path d="M6.07956 13.2819C5.57019 13.6256 5.14019 14.1244 4.99519 14.7219C4.95644 14.8825 4.93769 15.0494 4.87831 15.2038C4.81894 15.3588 4.70894 15.505 4.55144 15.555C4.39456 15.6044 4.21769 15.5469 4.09519 15.4369C3.97269 15.3269 3.89894 15.1719 3.85456 15.0138C3.68706 14.4225 3.90644 13.7625 4.32706 13.3125C4.74769 12.8631 5.34331 12.6069 5.94956 12.5C6.26956 12.4438 6.59519 12.4256 6.91956 12.4288C7.03519 12.43 7.67706 12.3875 7.60706 12.5631C7.55331 12.6963 6.99206 12.8106 6.85269 12.87C6.58394 12.985 6.32206 13.1181 6.07956 13.2819Z" fill="#65B1EF"/>
<path d="M3.63207 13.4881C3.56082 13.6306 3.49207 13.7987 3.37394 13.955C3.24145 14.13 3.03457 14.2837 2.85395 14.2569C2.6702 14.23 2.59395 14.0262 2.62207 13.8225C2.64645 13.6412 2.73895 13.4687 2.83395 13.325C3.10707 12.9106 3.45207 12.6575 3.77769 12.56C3.95457 12.5069 4.14269 12.4931 4.32769 12.5125C4.48207 12.5287 4.66582 12.61 4.48769 12.6706C4.17457 12.7775 3.86707 13.0156 3.63207 13.4881Z" fill="#65B1EF"/>
<path d="M3.80188 11.4018C3.475 11.3062 3.11313 11.3381 2.80875 11.49C2.68938 11.5493 2.57438 11.6306 2.51063 11.7481C2.44625 11.865 2.445 12.0237 2.53438 12.1231C2.615 12.2118 2.74938 12.2343 2.8675 12.2137C2.98563 12.1937 3.095 12.1381 3.20625 12.0931C3.3975 12.0156 3.60063 11.9687 3.80563 11.9525C4.0125 11.9362 4.26188 12.0337 4.45313 12.005C4.66375 11.9731 4.40375 11.76 4.30688 11.6775C4.16063 11.5518 3.9875 11.4562 3.80188 11.4018Z" fill="#65B1EF"/>
<path d="M5.05126 6.20937C4.89126 6.1925 4.87438 5.96437 5.03126 5.92687C6.31563 5.63312 8.63313 4.77937 9.38376 2.41312C9.42938 2.27062 9.64063 2.28437 9.66063 2.43312C10.0831 5.42187 8.47063 6.615 5.05126 6.20937Z" fill="#3E4347"/>
<path d="M11.515 10.1831C11.515 11.9444 12.9475 13.3769 14.7156 13.3769C16.4837 13.3769 17.9162 11.9444 17.9162 10.1831C17.9162 8.41498 16.4837 6.98248 14.7156 6.98248C12.9469 6.98311 11.515 8.41498 11.515 10.1831Z" fill="#F4C534"/>
<path d="M12.1244 10.1825C11.9419 11.6244 12.9531 12.7975 14.3844 12.7975C15.8156 12.7975 17.1237 11.6244 17.3056 10.1825C17.4887 8.73501 16.4775 7.56189 15.0462 7.56189C13.615 7.56251 12.3075 8.73501 12.1244 10.1825Z" fill="white"/>
<path d="M15.3556 10.0606C15.3556 10.9419 14.7544 11.6587 14.0169 11.6587C13.2794 11.6587 12.6781 10.9419 12.6781 10.0606C12.6781 9.18623 13.2794 8.46936 14.0169 8.46936C14.7544 8.46936 15.3556 9.18686 15.3556 10.0606Z" fill="#3E4347"/>
<path d="M14.3838 12.7975C13.3475 12.7975 12.5394 12.1788 12.2369 11.2925C12.34 11.2694 12.4419 11.235 12.5388 11.1888L12.5431 11.1869C12.9338 11.0019 13.3869 11.0019 13.7769 11.1875L13.7788 11.1881C14.1694 11.3738 14.6231 11.3738 15.0138 11.1881H15.0144C15.405 11.0025 15.8588 11.0025 16.2494 11.1881C16.4519 11.2844 16.6719 11.3288 16.8906 11.325C16.36 12.1925 15.4075 12.7975 14.3838 12.7975Z" fill="#65B1EF"/>
<path d="M13.6456 10.4213C13.6456 10.5369 13.5519 10.6381 13.4287 10.6381C13.3056 10.6381 13.2119 10.5369 13.2119 10.4213C13.2119 10.2988 13.3056 10.1975 13.4287 10.1975C13.5519 10.1975 13.6456 10.2988 13.6456 10.4213Z" fill="white"/>
<path d="M14.6862 9.41688C14.6862 9.68438 14.4694 9.89376 14.2094 9.89376C13.9419 9.89376 13.7325 9.68438 13.7325 9.41688C13.7325 9.15688 13.9419 8.94751 14.2094 8.94751C14.4694 8.94751 14.6862 9.15688 14.6862 9.41688Z" fill="white"/>
<path d="M12.9806 11.0581C13.2194 11.4269 13.595 11.6581 14.0137 11.6581C14.3675 11.6581 14.6856 11.4919 14.9244 11.2244C14.7581 11.2969 14.5775 11.3331 14.3969 11.3331C14.1875 11.3331 13.9775 11.2825 13.7756 11.1888C13.5806 11.095 13.3712 11.0444 13.1612 11.0444C13.1037 11.0431 13.0387 11.0506 12.9806 11.0581Z" fill="#4E99D2"/>
<path d="M15.9207 13.2819C16.4301 13.6256 16.8595 14.1244 17.0051 14.7219C17.0445 14.8825 17.0626 15.0494 17.122 15.2044C17.1814 15.3594 17.2914 15.5056 17.4489 15.5556C17.6057 15.605 17.7826 15.5475 17.9051 15.4375C18.0276 15.3275 18.1014 15.1725 18.1457 15.0144C18.3132 14.4219 18.0939 13.7619 17.6732 13.3125C17.2526 12.8631 16.657 12.6069 16.0507 12.5C15.7307 12.4438 15.4051 12.4256 15.0807 12.4288C14.9651 12.43 14.3232 12.3875 14.3932 12.5631C14.447 12.6963 15.0082 12.8106 15.1476 12.87C15.4164 12.985 15.6782 13.1181 15.9207 13.2819Z" fill="#65B1EF"/>
<path d="M18.3682 13.4881C18.4395 13.6306 18.5082 13.7987 18.6263 13.955C18.7588 14.13 18.9651 14.2837 19.147 14.2569C19.3307 14.23 19.407 14.0262 19.3788 13.8225C19.3538 13.6412 19.262 13.4687 19.167 13.325C18.8938 12.9106 18.5488 12.6575 18.2232 12.56C18.0463 12.5069 17.8582 12.4931 17.6732 12.5125C17.5188 12.5287 17.3351 12.61 17.5132 12.6706C17.8257 12.7775 18.1332 13.0156 18.3682 13.4881Z" fill="#65B1EF"/>
<path d="M18.1982 11.4019C18.5251 11.3063 18.887 11.3382 19.1913 11.49C19.3107 11.5494 19.4257 11.6307 19.4895 11.7482C19.5538 11.865 19.5551 12.0238 19.4657 12.1232C19.3851 12.2119 19.2507 12.2344 19.1326 12.2138C19.0145 12.1938 18.9051 12.1382 18.7938 12.0932C18.6026 12.0157 18.4001 11.9688 18.1945 11.9525C17.9876 11.9363 17.7382 12.0338 17.547 12.005C17.3363 11.9732 17.5963 11.76 17.6932 11.6775C17.8401 11.5519 18.0126 11.4563 18.1982 11.4019Z" fill="#65B1EF"/>
<path d="M16.9486 6.20943C17.1086 6.19256 17.1255 5.96381 16.9686 5.92693C15.6842 5.63318 13.3667 4.77943 12.6161 2.41318C12.5705 2.27068 12.3592 2.28443 12.3392 2.43318C11.9167 5.42193 13.5298 6.61506 16.9486 6.20943Z" fill="#3E4347"/>
<path d="M10.9967 18.6369C8.98861 18.6369 7.53424 17.0782 7.65299 15.4644C7.66549 15.2932 7.91861 15.2494 8.00111 15.4038C8.54486 16.3938 9.68236 17.0744 10.9967 17.0744C12.3174 17.0744 13.4555 16.3938 13.9986 15.4038C14.0811 15.25 14.3342 15.2938 14.3467 15.4644C14.4655 17.0763 13.0155 18.6369 10.9967 18.6369Z" fill="#3E4347"/>
</svg>
