<svg width="22" height="22" viewBox="0 0 22 22" fill="none" xmlns="http://www.w3.org/2000/svg">
<path d="M11 21C16.5228 21 21 16.5228 21 11C21 5.47715 16.5228 1 11 1C5.47715 1 1 5.47715 1 11C1 16.5228 5.47715 21 11 21Z" fill="#FFD93B"/>
<path d="M21 11C21 16.525 16.5219 21 11 21C7.85626 21 5.05001 19.55 3.21564 17.2781C4.93126 18.6656 7.11564 19.4938 9.49376 19.4938C15.0156 19.4938 19.4938 15.0188 19.4938 9.49376C19.4938 7.11564 18.6656 4.93126 17.2781 3.21564C19.5469 5.05001 21 7.85626 21 11Z" fill="#F4C534"/>
<path d="M14.1475 16.7875C14.635 16.9137 15.1175 16.5468 15.0981 16.0437C15.0156 13.8987 13.2462 12.1081 11 12.1081C8.74937 12.1081 6.98062 13.9037 6.90187 16.0506C6.88374 16.5512 7.36187 16.9193 7.84687 16.795C10.0006 16.245 12.0994 16.2562 14.1475 16.7875Z" fill="#3E4347"/>
<path d="M13.3 16.6C13.3225 16.4962 13.3362 16.3894 13.3362 16.2781C13.3362 15.4412 12.6587 14.7637 11.825 14.7637C11.4112 14.7637 11.04 14.9262 10.7706 15.1925C10.5869 15.1156 10.3875 15.0731 10.1756 15.0731C9.34187 15.0731 8.66437 15.7506 8.66437 16.5844C8.66437 16.5937 8.66687 16.6025 8.66749 16.6119C10.24 16.3131 11.7837 16.315 13.3 16.6Z" fill="#E24B4B"/>
<path d="M18.5756 14.6718C18.5756 13.9593 17.2856 11.7693 17.2856 11.7693C17.2856 11.7693 15.9956 13.9593 15.9956 14.6718C15.9956 15.3843 16.5731 15.9618 17.2856 15.9618C17.9981 15.9618 18.5756 15.3843 18.5756 14.6718Z" fill="#65B1EF"/>
<path d="M17.423 11.5981L16.3061 10.38C15.0218 8.98376 12.7118 8.94313 12.6861 8.94313L12.0518 8.93813L12.5186 8.50626C13.1124 7.94813 13.7424 7.72938 14.3768 7.85626C15.783 8.13063 16.6868 10.0188 16.7224 10.1L17.423 11.5981Z" fill="#3E4347"/>
<path d="M11.7824 2.83936C14.3436 5.71998 15.1255 5.86248 16.0074 6.65186C15.1549 6.65061 14.0611 6.26498 13.2136 5.49998C12.168 4.51498 11.773 3.47936 11.7824 2.83936Z" fill="#3E4347"/>
<path d="M4.5105 11.5981L5.62737 10.38C6.91175 8.98376 9.22175 8.94313 9.24737 8.94313L9.88175 8.93813L9.41487 8.50626C8.82112 7.94813 8.19112 7.72938 7.55675 7.85626C6.1505 8.13063 5.24675 10.0188 5.21112 10.1L4.5105 11.5981Z" fill="#3E4347"/>
<path d="M10.1511 2.83936C7.5899 5.71998 6.80802 5.86248 5.92615 6.65186C6.77865 6.65061 7.8724 6.26498 8.7199 5.49998C9.76615 4.51498 10.1605 3.47936 10.1511 2.83936Z" fill="#3E4347"/>
<g opacity="0.2">
<path opacity="0.2" d="M17.9819 15.2475C17.8013 15.4625 17.5381 15.5506 17.4081 15.4325C17.2719 15.3206 17.3144 15.0519 17.5006 14.8362C17.6819 14.6156 17.9388 14.5331 18.0744 14.6512C18.2106 14.7637 18.1681 15.0325 17.9819 15.2475Z" fill="white"/>
</g>
</svg>
