<svg width="20" height="20" viewBox="0 0 20 20" fill="none" xmlns="http://www.w3.org/2000/svg">
<path fill-rule="evenodd" clip-rule="evenodd" d="M4.09438 2.64437C4.50696 2.23178 5.06654 2 5.65001 2H10.725C10.9239 2 11.1147 2.07902 11.2553 2.21967L16.3303 7.29467C16.471 7.43532 16.55 7.62609 16.55 7.825V15.8C16.55 16.3835 16.3182 16.9431 15.9056 17.3556C15.4931 17.7682 14.9335 18 14.35 18H5.65001C5.06654 18 4.50696 17.7682 4.09438 17.3556C3.6818 16.9431 3.45001 16.3835 3.45001 15.8V4.2C3.45001 3.61652 3.6818 3.05695 4.09438 2.64437ZM5.65001 3.5C5.46436 3.5 5.28631 3.57375 5.15504 3.70503C5.02376 3.8363 4.95001 4.01435 4.95001 4.2V15.8C4.95001 15.9857 5.02376 16.1637 5.15504 16.295C5.28631 16.4263 5.46436 16.5 5.65001 16.5H14.35C14.5357 16.5 14.7137 16.4263 14.845 16.295C14.9763 16.1637 15.05 15.9857 15.05 15.8V8.13566L10.4144 3.5H5.65001Z" fill="#93959C"/>
<path fill-rule="evenodd" clip-rule="evenodd" d="M10.725 2C11.1392 2 11.475 2.33579 11.475 2.75V7.075H15.8C16.2142 7.075 16.55 7.41079 16.55 7.825C16.55 8.23921 16.2142 8.575 15.8 8.575H10.725C10.3108 8.575 9.97498 8.23921 9.97498 7.825V2.75C9.97498 2.33579 10.3108 2 10.725 2Z" fill="#93959C"/>
<path d="M6 12.3352C6 12.078 6.05811 11.8493 6.17434 11.649C6.29056 11.4463 6.45199 11.2893 6.65861 11.178C6.86782 11.0643 7.10414 11.0074 7.36759 11.0074C7.69043 11.0074 7.96679 11.089 8.19666 11.2522C8.42653 11.4154 8.5802 11.6379 8.65769 11.9198H7.92934C7.8751 11.811 7.79762 11.7282 7.69689 11.6713C7.59874 11.6144 7.48639 11.586 7.35984 11.586C7.1558 11.586 6.9905 11.654 6.86394 11.79C6.73739 11.926 6.67411 12.1077 6.67411 12.3352C6.67411 12.5627 6.73739 12.7444 6.86394 12.8804C6.9905 13.0164 7.1558 13.0844 7.35984 13.0844C7.48639 13.0844 7.59874 13.0559 7.69689 12.9991C7.79762 12.9422 7.8751 12.8594 7.92934 12.7506H8.65769C8.5802 13.0325 8.42653 13.255 8.19666 13.4182C7.96679 13.5789 7.69043 13.6592 7.36759 13.6592C7.10414 13.6592 6.86782 13.6036 6.65861 13.4924C6.45199 13.3786 6.29056 13.2216 6.17434 13.0213C6.05811 12.821 6 12.5923 6 12.3352Z" fill="#93959C"/>
<path d="M10.0474 13.6667C9.84855 13.6667 9.67034 13.6358 9.51279 13.5739C9.35524 13.5121 9.22869 13.4206 9.13312 13.2995C9.04014 13.1783 8.99107 13.0325 8.9859 12.8618H9.691C9.70133 12.9583 9.7362 13.0325 9.79561 13.0844C9.85501 13.1338 9.93249 13.1586 10.0281 13.1586C10.1262 13.1586 10.2037 13.1375 10.2605 13.0955C10.3173 13.051 10.3457 12.9904 10.3457 12.9138C10.3457 12.8495 10.3225 12.7963 10.276 12.7543C10.2321 12.7123 10.1766 12.6776 10.1094 12.6504C10.0448 12.6232 9.95187 12.5923 9.83047 12.5577C9.65484 12.5058 9.5115 12.4539 9.40044 12.4019C9.28938 12.35 9.19382 12.2734 9.11375 12.172C9.03368 12.0706 8.99365 11.9383 8.99365 11.7752C8.99365 11.5328 9.08534 11.3437 9.26872 11.2077C9.4521 11.0692 9.691 11 9.98544 11C10.285 11 10.5265 11.0692 10.7099 11.2077C10.8933 11.3437 10.9914 11.5341 11.0044 11.7789H10.2876C10.2825 11.6948 10.2502 11.6293 10.1908 11.5823C10.1314 11.5328 10.0552 11.5081 9.9622 11.5081C9.88213 11.5081 9.81756 11.5291 9.76849 11.5712C9.71941 11.6107 9.69488 11.6688 9.69488 11.7455C9.69488 11.8295 9.7362 11.8951 9.81885 11.942C9.9015 11.989 10.0306 12.0397 10.2063 12.0941C10.3819 12.151 10.524 12.2054 10.6324 12.2573C10.7435 12.3092 10.8391 12.3846 10.9191 12.4835C10.9992 12.5824 11.0392 12.7098 11.0392 12.8656C11.0392 13.0139 10.9992 13.1487 10.9191 13.2698C10.8416 13.391 10.728 13.4874 10.5782 13.5591C10.4284 13.6308 10.2515 13.6667 10.0474 13.6667Z" fill="#93959C"/>
<path d="M14 11.0371L13.0353 13.6407H12.2063L11.2416 11.0371H11.9467L12.6208 13.0028L13.2988 11.0371H14Z" fill="#93959C"/>
</svg>
