<svg width="22" height="22" viewBox="0 0 22 22" fill="none" xmlns="http://www.w3.org/2000/svg">
<path d="M11 21C16.5228 21 21 16.5228 21 11C21 5.47715 16.5228 1 11 1C5.47715 1 1 5.47715 1 11C1 16.5228 5.47715 21 11 21Z" fill="#FFD93B"/>
<path d="M20.9525 11C20.9525 16.525 16.4743 21 10.9525 21C7.80872 21 5.00247 19.55 3.16809 17.2781C4.88372 18.6656 7.06809 19.4938 9.44622 19.4938C14.9681 19.4938 19.4462 15.0188 19.4462 9.49376C19.4462 7.11564 18.6181 4.93126 17.2306 3.21564C19.4993 5.05001 20.9525 7.85626 20.9525 11Z" fill="#F4C534"/>
<path d="M14.0656 3.9775C10.6531 1.9525 8.14064 3.80875 7.93439 3.965C11 -0.328124 14.0656 3.9775 14.0656 3.9775Z" fill="#3E4347"/>
<path d="M11 13.715C13.5474 13.715 15.6125 11.6499 15.6125 9.10249C15.6125 6.55508 13.5474 4.48999 11 4.48999C8.4526 4.48999 6.38751 6.55508 6.38751 9.10249C6.38751 11.6499 8.4526 13.715 11 13.715Z" fill="#F4C534"/>
<path d="M11 12.485C13.5474 12.485 15.6125 10.9706 15.6125 9.10247C15.6125 7.23437 13.5474 5.71997 11 5.71997C8.4526 5.71997 6.38751 7.23437 6.38751 9.10247C6.38751 10.9706 8.4526 12.485 11 12.485Z" fill="#DE9C25"/>
<path d="M15.6106 9.1025C15.6106 10.065 13.5481 10.8463 10.9981 10.8463C8.44812 10.8463 6.38562 10.065 6.38562 9.1025C6.38562 7.23375 8.44812 5.72125 10.9981 5.72125C13.5481 5.72125 15.6106 7.23375 15.6106 9.1025Z" fill="white"/>
<path d="M12.4812 10.7525C12.0187 10.815 11.5187 10.8463 11 10.8463C10.4812 10.8463 9.98124 10.815 9.51874 10.7525C8.25624 9.46814 9.18186 7.26501 11 7.26501C12.8131 7.26501 13.7481 9.46376 12.4812 10.7525Z" fill="#3E4347"/>
<path d="M12.0348 8.28849C11.7929 8.04661 11.488 7.95936 11.3538 8.0936C11.2195 8.22784 11.3068 8.53275 11.5487 8.77462C11.7906 9.0165 12.0955 9.10376 12.2297 8.96952C12.3639 8.83528 12.2767 8.53037 12.0348 8.28849Z" fill="white"/>
<path d="M13.7056 16.6943C13.7056 17.1518 13.3319 17.5256 12.8744 17.5256H9.1056C8.64185 17.5256 8.27435 17.1518 8.27435 16.6943C8.27435 16.2368 8.64185 15.8631 9.1056 15.8631H12.875C13.3325 15.8637 13.7056 16.2375 13.7056 16.6943Z" fill="#3E4347"/>
</svg>
