<svg width="22" height="22" viewBox="0 0 22 22" fill="none" xmlns="http://www.w3.org/2000/svg">
<path d="M10.9213 20.8425C16.4006 20.8425 20.8425 16.4006 20.8425 10.9212C20.8425 5.44189 16.4006 1 10.9213 1C5.4419 1 1 5.44189 1 10.9212C1 16.4006 5.4419 20.8425 10.9213 20.8425Z" fill="#FFD93B"/>
<path d="M20.8425 10.9213C20.8425 16.4027 16.3996 20.8425 10.9212 20.8425C7.80225 20.8425 5.0181 19.4039 3.19817 17.1499C4.90028 18.5265 7.06745 19.3481 9.42685 19.3481C14.9052 19.3481 19.3481 14.9084 19.3481 9.42687C19.3481 7.06747 18.5265 4.9003 17.1499 3.19818C19.4008 5.01811 20.8425 7.80226 20.8425 10.9213Z" fill="#F4C534"/>
<path d="M9.29716 8.37337C9.54271 8.61892 9.54271 9.01887 9.29716 9.27062C9.05161 9.51617 8.65166 9.51617 8.3999 9.27062L7.63783 8.50916L6.87575 9.27062C6.624 9.51617 6.22343 9.51617 5.9785 9.27062C5.73295 9.01887 5.73295 8.61892 5.9785 8.37337L6.74057 7.61191L5.9723 6.83681C5.72675 6.59126 5.73357 6.19813 5.9785 5.94576C6.22405 5.70021 6.624 5.70021 6.86955 5.94576L7.63783 6.71404L8.4061 5.94576C8.65166 5.70021 9.05161 5.70021 9.29716 5.94576C9.54271 6.19751 9.54891 6.59126 9.30336 6.83681L8.53508 7.61191L9.29716 8.37337Z" fill="#3E4347"/>
<path d="M15.8638 8.37337C16.1093 8.61892 16.1093 9.01887 15.8638 9.27062C15.6182 9.51617 15.2183 9.51617 14.9665 9.27062L14.2045 8.50916L13.4424 9.27062C13.1906 9.51617 12.7901 9.51617 12.5451 9.27062C12.2996 9.01887 12.2996 8.61892 12.5451 8.37337L13.3072 7.61191L12.5389 6.83681C12.2934 6.59126 12.3002 6.19813 12.5451 5.94576C12.7907 5.70021 13.1906 5.70021 13.4362 5.94576L14.2045 6.71404L14.9727 5.94576C15.2183 5.70021 15.6182 5.70021 15.8638 5.94576C16.1093 6.19751 16.1155 6.59126 15.87 6.83681L15.1017 7.61191L15.8638 8.37337Z" fill="#3E4347"/>
<path d="M15.9159 15.9253C15.9097 15.9253 15.9035 15.9315 15.9035 15.9377C15.6492 16.2415 15.1966 16.3159 14.8617 16.0927C12.4868 14.4867 9.35544 14.4867 6.97434 16.0927C6.6457 16.3159 6.19304 16.2415 5.93881 15.9377C5.93261 15.9315 5.93261 15.9253 5.92641 15.9253C5.62877 15.5594 5.70938 15.0138 6.10003 14.7533C9.0144 12.8001 12.8279 12.8001 15.7422 14.7533C16.1329 15.0138 16.2135 15.5594 15.9159 15.9253Z" fill="#3E4347"/>
<path d="M15.1731 15.5123C14.9685 17.6454 14.8091 21 13.1101 21C11.4359 21 9.73502 17.6516 9.5428 15.4627C9.48079 14.7186 10.1691 14.1171 10.8884 14.3156C11.8867 14.5946 12.9346 14.5946 13.8151 14.3714C14.5406 14.1915 15.2413 14.7682 15.1731 15.5123Z" fill="#E24B4B"/>
</svg>
