<svg width="22" height="22" viewBox="0 0 22 22" fill="none" xmlns="http://www.w3.org/2000/svg">
<path d="M11 21C16.5228 21 21 16.5228 21 11C21 5.47715 16.5228 1 11 1C5.47715 1 1 5.47715 1 11C1 16.5228 5.47715 21 11 21Z" fill="#FFD93B"/>
<path d="M21 11C21 16.525 16.5219 21 11 21C7.85629 21 5.05004 19.55 3.21567 17.2781C4.93129 18.6656 7.11567 19.4938 9.49379 19.4938C15.0157 19.4938 19.4938 15.0188 19.4938 9.49376C19.4938 7.11564 18.6657 4.93126 17.2782 3.21564C19.5469 5.05001 21 7.85626 21 11Z" fill="#F4C534"/>
<path d="M10.9987 17.6449C12.1309 17.6449 13.0487 16.6566 13.0487 15.4374C13.0487 14.2183 12.1309 13.2299 10.9987 13.2299C9.86655 13.2299 8.94873 14.2183 8.94873 15.4374C8.94873 16.6566 9.86655 17.6449 10.9987 17.6449Z" fill="#3E4347"/>
<path d="M9.66688 10.8356C9.69188 11.0356 9.60438 11.2418 9.43563 11.3606C9.21 11.5262 8.88 11.4856 8.68563 11.2481C8.51063 11.1043 7.89813 10.6793 7.17938 10.2168C6.69188 10.8481 6.26063 11.4606 6.10438 11.7918C5.97875 12.0512 5.65375 12.1881 5.37313 12.0481C5.09813 11.9231 4.98563 11.5981 5.11063 11.3231C5.31063 10.9106 5.78563 10.2418 6.24813 9.64182C5.58563 9.24182 4.94188 8.89182 4.55438 8.74807C4.26688 8.64182 4.12313 8.32932 4.22313 8.04807C4.32938 7.76057 4.64188 7.61682 4.92938 7.71682C5.09188 7.77307 5.96063 8.22932 6.91063 8.78557C8.50438 6.79182 8.57938 6.82307 8.97313 6.99807C9.25438 7.11682 9.37938 7.44182 9.25438 7.71682C9.25438 7.71682 8.55625 8.49932 7.85438 9.35432C8.80438 9.95432 9.62938 10.5418 9.66688 10.8356Z" fill="#3E4347"/>
<path d="M17.6606 8.61059C17.6606 8.61059 16.7162 9.08934 15.7606 9.6481C16.4294 10.5418 16.9919 11.3919 16.9294 11.6731C16.8856 11.8669 16.7356 12.0294 16.5419 12.0856C16.2287 12.1637 15.9506 11.985 15.8731 11.7169C15.7606 11.5231 15.3294 10.9106 14.8106 10.2231C14.1294 10.6418 13.5169 11.0543 13.2606 11.3044C13.0494 11.5156 12.695 11.5137 12.4856 11.2919C12.2731 11.0793 12.2794 10.7356 12.4981 10.5231C12.8231 10.2043 13.5044 9.7481 14.1419 9.3481C13.6669 8.74184 13.1981 8.18559 12.8856 7.91059C12.6544 7.71059 12.6356 7.36684 12.8294 7.14184C13.0294 6.91059 13.3731 6.88559 13.6044 7.08559C13.7356 7.19809 14.3856 7.92934 15.0731 8.77934C17.2669 7.48559 17.3294 7.54809 17.6356 7.83559C17.8544 8.04184 17.8669 8.38559 17.6606 8.61059Z" fill="#3E4347"/>
</svg>
