<svg width="20" height="20" viewBox="0 0 20 20" fill="none" xmlns="http://www.w3.org/2000/svg">
<path fill-rule="evenodd" clip-rule="evenodd" d="M9.35319 8.16498C9.85082 7.60837 10.125 6.86176 10.125 6.06246C10.125 4.5406 9.07088 3 7.05582 3C6.11805 3 5.32693 3.33215 4.76787 3.96052C4.27265 4.51721 4 5.26365 4 6.06246C4 7.58448 5.04965 9.125 7.05582 9.125C7.99709 9.12504 8.79168 8.79314 9.35319 8.16498ZM7.05584 4.42393C8.15993 4.42393 8.66274 5.27385 8.66274 6.06353C8.66274 6.4931 8.52258 6.89075 8.26783 7.18311C7.98363 7.50966 7.5706 7.68233 7.07374 7.68233C5.94173 7.68233 5.42604 6.8325 5.42604 6.04291C5.42604 5.23717 5.93007 4.42393 7.05584 4.42393ZM14.0889 3.90195C13.915 3.90573 13.6776 4.03631 13.5613 4.19203L4.92911 15.7508C4.81284 15.9066 4.8952 16.125 5.0691 16.125H6.1989C6.3728 16.125 6.60999 15.9973 6.72607 15.8413L15.3048 4.28496C15.4209 4.12886 15.4132 3.87491 15.1259 3.875L14.0889 3.90195ZM10.893 11.8357C11.4521 11.2073 12.2433 10.875 13.1808 10.875C15.1957 10.875 16.25 12.4157 16.25 13.9375C16.25 14.7366 15.976 15.4833 15.4783 16.0399C14.9166 16.668 14.1223 17 13.1808 17C11.1747 17 10.125 15.4594 10.125 13.9375C10.125 13.1387 10.3978 12.3922 10.893 11.8357ZM11.5646 13.9178C11.5646 14.7253 12.0761 15.5947 13.1989 15.5947C13.7036 15.5947 14.1234 15.4182 14.4127 15.0844C14.672 14.7853 14.8148 14.3782 14.8148 13.9386C14.8148 13.131 14.3035 12.2618 13.1807 12.2618C12.6759 12.2618 12.2561 12.4382 11.9669 12.7721C11.7074 13.0712 11.5646 13.4781 11.5646 13.9178Z" fill="#93959C"/>
</svg>
