<svg width="60" height="60" viewBox="0 0 20 20" fill="none" xmlns="http://www.w3.org/2000/svg">
<path d="M12.3704 9.26813C11.7425 8.92115 11.075 8.65679 10.4141 8.38252C10.0308 8.2239 9.664 8.03884 9.34015 7.78109C8.70238 7.27219 8.82465 6.44606 9.57147 6.11891C9.78296 6.02639 10.0044 5.99665 10.2291 5.98343C11.0949 5.93716 11.9177 6.09578 12.7009 6.4725C13.0908 6.66086 13.2197 6.60137 13.3519 6.19492C13.4906 5.76533 13.6063 5.32913 13.7352 4.89624C13.8211 4.60544 13.7154 4.41378 13.4411 4.29151C12.9388 4.0701 12.4233 3.91149 11.8813 3.82557C11.1742 3.71652 11.1742 3.71322 11.1709 3.00274C11.1676 2.00147 11.1676 2.00147 10.163 2.00147C10.0176 2.00147 9.87218 1.99816 9.72678 2.00147C9.25754 2.01469 9.17823 2.0973 9.16501 2.56985C9.1584 2.78134 9.16501 2.99283 9.16171 3.20762C9.1584 3.83548 9.1551 3.82557 8.55367 4.04367C7.09968 4.57239 6.20085 5.56375 6.10502 7.14993C6.0191 8.55435 6.75271 9.50275 7.90599 10.1934C8.61646 10.6197 9.40294 10.8708 10.1564 11.2046C10.4505 11.3335 10.7314 11.4822 10.9759 11.687C11.6996 12.2852 11.5674 13.2798 10.7082 13.6565C10.2489 13.8581 9.76313 13.9077 9.26415 13.8449C8.49419 13.7491 7.75728 13.5475 7.06333 13.1873C6.65688 12.9758 6.53791 13.032 6.39912 13.4715C6.28016 13.8515 6.17441 14.2348 6.06867 14.6182C5.92657 15.1337 5.97945 15.2559 6.47182 15.4972C7.09968 15.8012 7.7705 15.9565 8.45454 16.0655C8.98987 16.1515 9.0064 16.1746 9.013 16.7298C9.01631 16.9809 9.01631 17.2354 9.01961 17.4865C9.02292 17.8037 9.17493 17.9888 9.50208 17.9954C9.87218 18.002 10.2456 18.002 10.6157 17.9921C10.9197 17.9855 11.075 17.8203 11.075 17.5129C11.075 17.1693 11.0916 16.8223 11.0783 16.4786C11.0618 16.1283 11.2138 15.9499 11.5509 15.8574C12.3274 15.6459 12.9884 15.2295 13.4973 14.6083C14.9116 12.8899 14.373 10.3751 12.3704 9.26813Z" fill="#93959C"/>
</svg>
