<svg width="25" height="48" viewBox="0 0 25 48" fill="none" xmlns="http://www.w3.org/2000/svg">
<path d="M19.1112 21.8044C17.2276 20.7635 15.2251 19.9704 13.2424 19.1475C12.0924 18.6717 10.992 18.1165 10.0205 17.3433C8.10714 15.8166 8.47394 13.3382 10.7144 12.3567C11.3489 12.0792 12.0131 11.9899 12.6872 11.9503C15.2846 11.8115 17.7531 12.2873 20.1026 13.4175C21.2724 13.9826 21.659 13.8041 22.0556 12.5848C22.4719 11.296 22.8189 9.98739 23.2055 8.68871C23.4633 7.81631 23.1461 7.24133 22.3232 6.87452C20.8164 6.21031 19.2698 5.73446 17.644 5.47671C15.5225 5.14956 15.5225 5.13965 15.5126 3.00822C15.5027 0.0044061 15.5027 0.00440604 12.4889 0.00440604C12.0527 0.00440604 11.6165 -0.00550755 11.1803 0.00440604C9.77262 0.0440604 9.53469 0.2919 9.49504 1.70954C9.47521 2.34401 9.49504 2.97848 9.48513 3.62287C9.47521 5.50645 9.4653 5.47671 7.66103 6.131C3.29905 7.71718 0.60255 10.6913 0.315055 15.4498C0.0573021 19.6631 2.25812 22.5083 5.71796 24.5802C7.84938 25.859 10.2088 26.6125 12.4691 27.6138C13.3514 28.0004 14.1941 28.4465 14.9277 29.0611C17.0988 30.8555 16.7022 33.8395 14.1247 34.9696C12.7467 35.5744 11.2894 35.7231 9.79245 35.5347C7.48258 35.2472 5.27185 34.6425 3.19 33.5619C1.97063 32.9274 1.61374 33.096 1.19736 34.4145C0.840475 35.5545 0.523241 36.7045 0.206006 37.8545C-0.220278 39.401 -0.0616618 39.7678 1.41546 40.4915C3.29905 41.4036 5.3115 41.8695 7.36362 42.1966C8.96962 42.4544 9.01919 42.5238 9.03902 44.1893C9.04893 44.9427 9.04893 45.7061 9.05884 46.4595C9.06876 47.4112 9.52478 47.9664 10.5062 47.9862C11.6165 48.006 12.7368 48.006 13.8471 47.9763C14.7592 47.9564 15.2251 47.4608 15.2251 46.5388C15.2251 45.5078 15.2747 44.4669 15.235 43.4358C15.1854 42.385 15.6415 41.8497 16.6527 41.5721C18.9823 40.9376 20.9651 39.6885 22.4918 37.8248C26.7348 32.6697 25.1189 25.1254 19.1112 21.8044Z" fill="#FF955C"/>
</svg>
