<svg width="20" height="20" viewBox="0 0 20 20" fill="none" xmlns="http://www.w3.org/2000/svg">
<path fill-rule="evenodd" clip-rule="evenodd" d="M10.7545 2.75C10.7545 2.33579 10.4187 2 10.0045 2C9.5903 2 9.25452 2.33579 9.25452 2.75V4.63635H8.35681C7.54609 4.63635 6.76857 4.95841 6.19531 5.53167C5.62204 6.10494 5.29999 6.88245 5.29999 7.69317C5.29999 8.50389 5.62204 9.2814 6.19531 9.85467C6.76857 10.4279 7.54609 10.75 8.35681 10.75H9.25452V13.8636H6.04999C5.63577 13.8636 5.29999 14.1994 5.29999 14.6136C5.29999 15.0278 5.63577 15.3636 6.04999 15.3636H9.25452V17.25C9.25452 17.6642 9.5903 18 10.0045 18C10.4187 18 10.7545 17.6642 10.7545 17.25V15.3636H11.6523C12.463 15.3636 13.2405 15.0416 13.8138 14.4683C14.387 13.895 14.7091 13.1175 14.7091 12.3068C14.7091 11.4961 14.387 10.7186 13.8138 10.1453C13.2405 9.57205 12.463 9.24999 11.6523 9.24999H10.7545V6.13635H13.3C13.7142 6.13635 14.05 5.80057 14.05 5.38635C14.05 4.97214 13.7142 4.63635 13.3 4.63635H10.7545V2.75ZM9.25452 6.13635H8.35681C7.94391 6.13635 7.54793 6.30037 7.25597 6.59233C6.96401 6.88429 6.79999 7.28028 6.79999 7.69317C6.79999 8.10606 6.96401 8.50205 7.25597 8.79401C7.54793 9.08597 7.94391 9.24999 8.35681 9.24999H9.25452V6.13635ZM10.7545 10.75V13.8636H11.6523C12.0652 13.8636 12.4611 13.6996 12.7531 13.4076C13.0451 13.1157 13.2091 12.7197 13.2091 12.3068C13.2091 11.8939 13.0451 11.4979 12.7531 11.206C12.4611 10.914 12.0652 10.75 11.6523 10.75H10.7545Z" fill="#93959C"/>
</svg>
