<svg width="20" height="20" viewBox="0 0 20 20" fill="none" xmlns="http://www.w3.org/2000/svg">
<path fill-rule="evenodd" clip-rule="evenodd" d="M7.4 5.8C8.1732 5.8 8.8 5.1732 8.8 4.4C8.8 3.6268 8.1732 3 7.4 3C6.6268 3 6 3.6268 6 4.4C6 5.1732 6.6268 5.8 7.4 5.8ZM7.4 11.4C8.1732 11.4 8.8 10.7732 8.8 10C8.8 9.2268 8.1732 8.6 7.4 8.6C6.6268 8.6 6 9.2268 6 10C6 10.7732 6.6268 11.4 7.4 11.4ZM8.8 15.6C8.8 16.3732 8.1732 17 7.4 17C6.6268 17 6 16.3732 6 15.6C6 14.8268 6.6268 14.2 7.4 14.2C8.1732 14.2 8.8 14.8268 8.8 15.6ZM13 5.8C13.7732 5.8 14.4 5.1732 14.4 4.4C14.4 3.6268 13.7732 3 13 3C12.2268 3 11.6 3.6268 11.6 4.4C11.6 5.1732 12.2268 5.8 13 5.8ZM14.4 10C14.4 10.7732 13.7732 11.4 13 11.4C12.2268 11.4 11.6 10.7732 11.6 10C11.6 9.2268 12.2268 8.6 13 8.6C13.7732 8.6 14.4 9.2268 14.4 10ZM13 17C13.7732 17 14.4 16.3732 14.4 15.6C14.4 14.8268 13.7732 14.2 13 14.2C12.2268 14.2 11.6 14.8268 11.6 15.6C11.6 16.3732 12.2268 17 13 17Z" fill="#93959C"/>
</svg>
