<svg width="34" height="34" viewBox="0 0 34 34" fill="none" xmlns="http://www.w3.org/2000/svg">
<circle cx="17" cy="17" r="16" fill="#23262B"/>
<circle cx="17" cy="17" r="16.5" stroke="#93959C"/>
<path fill-rule="evenodd" clip-rule="evenodd" d="M22.1817 10.5C22.0085 10.5 21.8371 10.5341 21.6771 10.6004C21.5172 10.6666 21.3719 10.7637 21.2494 10.8861L20.0763 12.0592L21.9408 13.9237L23.1139 12.7506C23.2363 12.6281 23.3334 12.4828 23.3996 12.3229C23.4659 12.1629 23.5 11.9915 23.5 11.8184C23.5 11.6452 23.4659 11.4738 23.3996 11.3138C23.3334 11.1539 23.2363 11.0086 23.1139 10.8861C22.9914 10.7637 22.8461 10.6666 22.6862 10.6004C22.5262 10.5341 22.3548 10.5 22.1817 10.5ZM20.8801 14.9843L19.0157 13.1199L11.5181 20.6175L10.8189 23.1811L13.3825 22.4819L20.8801 14.9843ZM21.1031 9.21453C21.4451 9.0729 21.8115 9 22.1817 9C22.5518 9 22.9182 9.0729 23.2602 9.21453C23.6021 9.35617 23.9128 9.56377 24.1745 9.82548C24.4362 10.0872 24.6438 10.3979 24.7855 10.7398C24.9271 11.0818 25 11.4482 25 11.8184C25 12.1885 24.9271 12.5549 24.7855 12.8969C24.6438 13.2388 24.4362 13.5495 24.1745 13.8112L14.3023 23.6834C14.2101 23.7757 14.0953 23.8423 13.9694 23.8766L9.94735 24.9736C9.6877 25.0444 9.41 24.9706 9.21969 24.7803C9.02937 24.59 8.95563 24.3123 9.02644 24.0526L10.1234 20.0306C10.1577 19.9047 10.2243 19.7899 10.3166 19.6977L20.1888 9.82548C20.4505 9.56377 20.7612 9.35617 21.1031 9.21453Z" fill="#93959C"/>
</svg>
