<svg width="20" height="20" viewBox="0 0 20 20" fill="none" xmlns="http://www.w3.org/2000/svg">
<path fill-rule="evenodd" clip-rule="evenodd" d="M4.09438 2.64437C4.50696 2.23178 5.06654 2 5.65001 2H10.725C10.9239 2 11.1147 2.07902 11.2553 2.21967L16.3303 7.29467C16.471 7.43532 16.55 7.62609 16.55 7.825V15.8C16.55 16.3835 16.3182 16.9431 15.9056 17.3556C15.4931 17.7682 14.9335 18 14.35 18H5.65001C5.06654 18 4.50696 17.7682 4.09438 17.3556C3.6818 16.9431 3.45001 16.3835 3.45001 15.8V4.2C3.45001 3.61652 3.6818 3.05695 4.09438 2.64437ZM5.65001 3.5C5.46436 3.5 5.28631 3.57375 5.15504 3.70503C5.02376 3.8363 4.95001 4.01435 4.95001 4.2V15.8C4.95001 15.9857 5.02376 16.1637 5.15504 16.295C5.28631 16.4263 5.46436 16.5 5.65001 16.5H14.35C14.5357 16.5 14.7137 16.4263 14.845 16.295C14.9763 16.1637 15.05 15.9857 15.05 15.8V8.13566L10.4144 3.5H5.65001Z" fill="#93959C"/>
<path fill-rule="evenodd" clip-rule="evenodd" d="M10.725 2C11.1392 2 11.475 2.33579 11.475 2.75V7.075H15.8C16.2142 7.075 16.55 7.41079 16.55 7.825C16.55 8.23921 16.2142 8.575 15.8 8.575H10.725C10.3108 8.575 9.97501 8.23921 9.97501 7.825V2.75C9.97501 2.33579 10.3108 2 10.725 2Z" fill="#93959C"/>
<path d="M8.11263 13.9188L7.45494 12.962L6.87543 13.9188H5.98317L7.01801 12.33L5.96017 10.7945H6.87543L7.52393 11.738L8.09424 10.7945H8.98649L7.96086 12.37L9.02789 13.9188H8.11263Z" fill="#93959C"/>
<path d="M10.2092 13.3314H11.2394V13.9188H9.42271V10.7945H10.2092V13.3314Z" fill="#93959C"/>
<path d="M12.7828 13.95C12.5467 13.95 12.3351 13.9129 12.1481 13.8387C11.961 13.7646 11.8108 13.6548 11.6973 13.5094C11.587 13.364 11.5287 13.1889 11.5226 12.9842H12.3596C12.3719 13.0999 12.4133 13.1889 12.4838 13.2513C12.5543 13.3106 12.6463 13.3403 12.7598 13.3403C12.8763 13.3403 12.9683 13.315 13.0357 13.2646C13.1032 13.2112 13.1369 13.1385 13.1369 13.0465C13.1369 12.9694 13.1093 12.9056 13.0541 12.8551C13.002 12.8047 12.9361 12.7632 12.8563 12.7305C12.7797 12.6979 12.6693 12.6608 12.5252 12.6193C12.3167 12.557 12.1465 12.4946 12.0147 12.4323C11.8828 12.37 11.7694 12.278 11.6743 12.1564C11.5793 12.0347 11.5318 11.876 11.5318 11.6802C11.5318 11.3894 11.6406 11.1624 11.8583 10.9992C12.076 10.8331 12.3596 10.75 12.7092 10.75C13.0648 10.75 13.3515 10.8331 13.5692 10.9992C13.7869 11.1624 13.9035 11.3909 13.9188 11.6846H13.0679C13.0618 11.5838 13.0235 11.5051 12.9529 11.4487C12.8824 11.3894 12.792 11.3597 12.6816 11.3597C12.5865 11.3597 12.5099 11.385 12.4516 11.4354C12.3934 11.4829 12.3642 11.5526 12.3642 11.6446C12.3642 11.7455 12.4133 11.8241 12.5114 11.8805C12.6095 11.9368 12.7628 11.9977 12.9713 12.0629C13.1798 12.1312 13.3485 12.1965 13.4773 12.2588C13.6091 12.3211 13.7225 12.4116 13.8176 12.5303C13.9126 12.6489 13.9602 12.8017 13.9602 12.9887C13.9602 13.1667 13.9126 13.3284 13.8176 13.4738C13.7256 13.6192 13.5907 13.7349 13.4129 13.8209C13.235 13.907 13.025 13.95 12.7828 13.95Z" fill="#93959C"/>
</svg>
