<svg width="22" height="22" viewBox="0 0 22 22" fill="none" xmlns="http://www.w3.org/2000/svg">
<path d="M11 21C16.5228 21 21 16.5228 21 11C21 5.47715 16.5228 1 11 1C5.47715 1 1 5.47715 1 11C1 16.5228 5.47715 21 11 21Z" fill="#FFD93B"/>
<path d="M21 11C21 16.525 16.5219 21 11 21C7.85626 21 5.05001 19.55 3.21564 17.2781C4.93126 18.6656 7.11564 19.4938 9.49376 19.4938C15.0156 19.4938 19.4938 15.0188 19.4938 9.49376C19.4938 7.11564 18.6656 4.93126 17.2781 3.21564C19.5469 5.05001 21 7.85626 21 11Z" fill="#F4C534"/>
<path d="M18.4025 8.66061C18.3081 9.15374 18.2144 9.64686 18.12 10.14C17.2762 8.90686 15.5725 8.05686 13.7125 8.15874C13.3269 8.18374 12.9637 8.25249 12.6175 8.35061C12.4637 7.60061 12.2994 6.85186 12.1256 6.10374C12.34 6.56561 12.5475 7.02999 12.7481 7.49499C12.6869 6.99624 12.6225 6.49811 12.555 5.99999C12.7825 5.95436 13.0269 5.92686 13.27 5.91311C14.4475 5.83749 15.5925 6.11499 16.4994 6.62936C16.49 7.06999 16.48 7.51061 16.4675 7.95061C16.5444 7.54936 16.6219 7.14811 16.7 6.74686C16.9381 6.89624 17.1556 7.05374 17.3512 7.23249C17.3156 7.62311 17.2794 8.01436 17.2425 8.40561C17.3331 8.06561 17.425 7.72624 17.5169 7.38686C17.905 7.76124 18.2056 8.19686 18.4025 8.66061Z" fill="#3E4347"/>
<path d="M16.7494 11.4193C16.5525 12.5481 15.365 13.2812 14.0894 13.1525C12.8137 13.0187 11.8056 12.0562 11.8431 10.9125C11.88 9.77246 13.0787 8.88496 14.5144 9.03371C15.95 9.18059 16.9462 10.2943 16.7494 11.4193Z" fill="#F4C534"/>
<path d="M16.525 11.3831C16.4612 12.3493 15.46 12.9668 14.2906 12.8431C13.1212 12.7156 12.1287 11.8893 12.07 10.9237C12.0106 9.96244 13.0062 9.21494 14.2987 9.34307C15.5912 9.46807 16.5887 10.4199 16.525 11.3831Z" fill="white"/>
<path d="M15.0006 11.2625C14.9319 11.8081 14.3606 12.1888 13.7231 12.1306C13.0919 12.07 12.6 11.5944 12.6313 11.0456C12.6631 10.4925 13.2369 10.0763 13.905 10.1375C14.5806 10.1994 15.0694 10.7125 15.0006 11.2625Z" fill="#3E4347"/>
<path d="M13.3756 10.9174C13.3069 11.0587 13.1525 11.1293 13.0288 11.0824C12.9094 11.0374 12.8712 10.8868 12.9475 10.7493C13.015 10.6062 13.1763 10.5368 13.2969 10.5837C13.4175 10.6312 13.4538 10.7812 13.3756 10.9174Z" fill="#5A5F63"/>
<path d="M3.5975 8.66055C3.69188 9.15368 3.78563 9.64681 3.88 10.1399C4.72375 8.9068 6.4275 8.0568 8.28813 8.15868C8.67313 8.18368 9.03688 8.25243 9.38313 8.35055C9.53688 7.60055 9.70125 6.8518 9.875 6.10368C9.66063 6.56555 9.45313 7.02993 9.2525 7.49493C9.31313 6.99618 9.3775 6.49805 9.44438 5.99993C9.21688 5.9543 8.9725 5.9268 8.72938 5.91305C7.55188 5.8368 6.40688 6.1143 5.5 6.6293C5.50875 7.06993 5.51938 7.51055 5.53125 7.95055C5.45438 7.5493 5.37688 7.14805 5.29875 6.7468C5.06125 6.89555 4.84375 7.05305 4.6475 7.2318C4.68313 7.62243 4.71938 8.01368 4.75625 8.40493C4.66563 8.06493 4.57375 7.72555 4.48188 7.38618C4.095 7.76118 3.79438 8.1968 3.5975 8.66055Z" fill="#3E4347"/>
<path d="M5.24998 11.4193C5.44686 12.5481 6.63436 13.2812 7.90999 13.1525C9.18561 13.0187 10.1937 12.0562 10.1562 10.9125C10.1194 9.77246 8.92061 8.88496 7.48499 9.03371C6.04998 9.18059 5.05311 10.2943 5.24998 11.4193Z" fill="#F4C534"/>
<path d="M5.475 11.3831C5.53875 12.3493 6.54 12.9668 7.70937 12.8431C8.87875 12.7156 9.87063 11.8893 9.93 10.9237C9.98937 9.96121 8.99312 9.21559 7.70125 9.34309C6.40875 9.46809 5.41125 10.42 5.475 11.3831Z" fill="white"/>
<path d="M6.99937 11.2625C7.06812 11.8081 7.63937 12.1888 8.27687 12.1306C8.90812 12.07 9.39999 11.5944 9.36812 11.0456C9.33624 10.4925 8.7625 10.0763 8.09437 10.1375C7.42 10.1994 6.93 10.7125 6.99937 11.2625Z" fill="#3E4347"/>
<path d="M8.62438 10.9174C8.69312 11.0587 8.8475 11.1293 8.97125 11.0824C9.09062 11.0374 9.12874 10.8868 9.0525 10.7493C8.985 10.6062 8.82375 10.5368 8.70312 10.5837C8.5825 10.6312 8.54625 10.7812 8.62438 10.9174Z" fill="#5A5F63"/>
<path d="M10.1081 16.8262C10.1269 16.8237 10.75 16.9187 11.1019 16.9175C11.6237 16.9206 11.8619 16.8275 12.0956 16.8262C11.9406 17.1387 11.5294 17.3843 11.1019 17.3856C10.6637 17.3831 10.2506 17.1231 10.1081 16.8262Z" fill="#3E4347"/>
<path d="M14.6325 15.8981C14.6819 16.0312 7.32 16.0606 7.36812 15.9181C7.38437 15.525 14.5656 15.5168 14.6325 15.8981Z" fill="#3E4347"/>
</svg>
