<svg width="20" height="20" viewBox="0 0 20 20" fill="none" xmlns="http://www.w3.org/2000/svg">
<path fill-rule="evenodd" clip-rule="evenodd" d="M8.45641 3.28141C9.27688 2.46094 10.3897 2 11.55 2H13.725C14.1392 2 14.475 2.33579 14.475 2.75V5.65C14.475 6.06421 14.1392 6.4 13.725 6.4H11.575V7.8H13.725C13.956 7.8 14.174 7.9064 14.3162 8.08844C14.4583 8.27048 14.5086 8.50785 14.4526 8.7319L13.7276 11.6319C13.6441 11.9658 13.3442 12.2 13 12.2H11.575V17.25C11.575 17.6642 11.2392 18 10.825 18H7.925C7.51079 18 7.175 17.6642 7.175 17.25V12.2H5.75C5.33579 12.2 5 11.8642 5 11.45V8.55C5 8.13579 5.33579 7.8 5.75 7.8H7.175V6.375C7.175 5.21468 7.63594 4.10188 8.45641 3.28141ZM11.55 3.5C10.7875 3.5 10.0562 3.8029 9.51707 4.34207C8.9779 4.88124 8.675 5.6125 8.675 6.375V8.55C8.675 8.96421 8.33921 9.3 7.925 9.3H6.5V10.7H7.925C8.33921 10.7 8.675 11.0358 8.675 11.45V16.5H10.075V11.45C10.075 11.0358 10.4108 10.7 10.825 10.7H12.4144L12.7644 9.3H10.825C10.4108 9.3 10.075 8.96421 10.075 8.55V6.375C10.075 5.98381 10.2304 5.60863 10.507 5.33202C10.7836 5.0554 11.1588 4.9 11.55 4.9H12.975V3.5H11.55Z" fill="#93959C"/>
</svg>
