<svg width="20" height="20" viewBox="0 0 20 20" fill="none" xmlns="http://www.w3.org/2000/svg">
<path fill-rule="evenodd" clip-rule="evenodd" d="M3 5.78947C3 5.35346 3.33579 5 3.75 5H16.25C16.6642 5 17 5.35346 17 5.78947C17 6.22549 16.6642 6.57895 16.25 6.57895H3.75C3.33579 6.57895 3 6.22549 3 5.78947ZM5 10C5 9.56399 5.33579 9.21053 5.75 9.21053H14.25C14.6642 9.21053 15 9.56399 15 10C15 10.436 14.6642 10.7895 14.25 10.7895H5.75C5.33579 10.7895 5 10.436 5 10ZM7 14.2105C7 13.7745 7.33579 13.4211 7.75 13.4211H12.25C12.6642 13.4211 13 13.7745 13 14.2105C13 14.6465 12.6642 15 12.25 15H7.75C7.33579 15 7 14.6465 7 14.2105Z" fill="#93959C"/>
</svg>
