<svg width="20" height="20" viewBox="0 0 20 20" fill="none" xmlns="http://www.w3.org/2000/svg">
<path fill-rule="evenodd" clip-rule="evenodd" d="M6.65 2C5.47796 2 4.65711 2.19563 4.10583 2.41614C3.65748 2.59548 3 2.90958 3 3.475V17.25C3 17.6643 3.33579 18 3.75 18C4.16421 18 4.5 17.6643 4.5 17.25V12.5807C4.81339 12.4282 5.47154 12.2 6.65 12.2C7.57302 12.2 8.35164 12.5034 9.27146 12.8714C10.2949 13.2808 11.3326 13.65 12.45 13.65C13.622 13.65 14.4429 13.4544 14.9942 13.2339C15.4447 13.0536 16.1 12.7422 16.1 12.175V3.475C16.1 3.17165 15.9173 2.89818 15.637 2.78209C15.3642 2.6691 15.0514 2.72687 14.8371 2.92781C14.8194 2.94223 14.7007 3.03571 14.4371 3.14114C14.0821 3.28313 13.453 3.45 12.45 3.45C11.527 3.45 10.7484 3.14657 9.82854 2.77864C8.80511 2.36918 7.7674 2 6.65 2ZM4.5 3.88066C4.54667 3.85795 4.60081 3.8337 4.66292 3.80886C5.01789 3.66687 5.64704 3.5 6.65 3.5C7.57302 3.5 8.35164 3.80343 9.27146 4.17136C10.2949 4.58082 11.3326 4.95 12.45 4.95C13.3698 4.95 14.0733 4.82951 14.6 4.67106V11.7693C14.2866 11.9218 13.6285 12.15 12.45 12.15C11.527 12.15 10.7484 11.8466 9.82854 11.4786C8.80512 11.0692 7.7674 10.7 6.65 10.7C5.73018 10.7 5.02667 10.8205 4.5 10.9789V3.88066Z" fill="#93959C"/>
</svg>
