<svg width="20" height="20" viewBox="0 0 20 20" fill="none" xmlns="http://www.w3.org/2000/svg">
<path fill-rule="evenodd" clip-rule="evenodd" d="M3.70503 4.70503C3.8363 4.57375 4.01435 4.5 4.2 4.5H7.42361L8.65096 6.34103C8.79006 6.54967 9.02424 6.675 9.275 6.675H15.8C15.9857 6.675 16.1637 6.74875 16.295 6.88003C16.4263 7.0113 16.5 7.18935 16.5 7.375V15.35C16.5 15.5357 16.4263 15.7137 16.295 15.845C16.1637 15.9763 15.9857 16.05 15.8 16.05H4.2C4.01435 16.05 3.8363 15.9763 3.70503 15.845C3.57375 15.7137 3.5 15.5357 3.5 15.35V5.2C3.5 5.01435 3.57375 4.8363 3.70503 4.70503ZM4.2 3C3.61652 3 3.05695 3.23178 2.64437 3.64437C2.23178 4.05695 2 4.61652 2 5.2V15.35C2 15.9335 2.23179 16.4931 2.64437 16.9056C3.05694 17.3182 3.61652 17.55 4.2 17.55H15.8C16.3835 17.55 16.9431 17.3182 17.3556 16.9056C17.7682 16.4931 18 15.9335 18 15.35V7.375C18 6.79152 17.7682 6.23194 17.3556 5.81937C16.9431 5.40679 16.3835 5.175 15.8 5.175H9.67639L8.44904 3.33397C8.30994 3.12533 8.07577 3 7.825 3H4.2ZM11.277 9.21632C10.9822 8.92529 10.5073 8.9283 10.2163 9.22304C9.92529 9.51779 9.9283 9.99265 10.223 10.2837L10.923 10.9748H7.25C6.83579 10.9748 6.5 11.3106 6.5 11.7248C6.5 12.139 6.83579 12.4748 7.25 12.4748H10.9552L10.2164 13.223C9.92531 13.5177 9.92828 13.9926 10.223 14.2836C10.5177 14.5747 10.9926 14.5717 11.2836 14.277L13.2836 12.2518C13.4234 12.1103 13.5012 11.919 13.5 11.7201C13.4987 11.5212 13.4185 11.3309 13.277 11.1911L11.277 9.21632Z" fill="#93959C"/>
</svg>
