<svg width="22" height="22" viewBox="0 0 22 22" fill="none" xmlns="http://www.w3.org/2000/svg">
<path d="M11 20.9288C16.5032 20.9288 20.9644 16.4675 20.9644 10.9644C20.9644 5.4612 16.5032 1 11 1C5.49685 1 1.03564 5.4612 1.03564 10.9644C1.03564 16.4675 5.49685 20.9288 11 20.9288Z" fill="#FFD93B"/>
<path d="M20.9644 10.9644C20.9644 16.4694 16.5025 20.9288 11 20.9288C7.86748 20.9288 5.07123 19.4838 3.2431 17.22C4.95248 18.6025 7.12935 19.4275 9.49873 19.4275C15.0006 19.4275 19.4631 14.9688 19.4631 9.46314C19.4631 7.09377 18.6381 4.91689 17.2556 3.20752C19.5162 5.03564 20.9644 7.83189 20.9644 10.9644Z" fill="#F4C534"/>
<path d="M6.295 12.8356C8.27667 12.8356 9.88313 11.2292 9.88313 9.24749C9.88313 7.26582 8.27667 5.65936 6.295 5.65936C4.31334 5.65936 2.70688 7.26582 2.70688 9.24749C2.70688 11.2292 4.31334 12.8356 6.295 12.8356Z" fill="white"/>
<path d="M15.7048 12.8356C17.6865 12.8356 19.2929 11.2292 19.2929 9.24749C19.2929 7.26582 17.6865 5.65936 15.7048 5.65936C13.7232 5.65936 12.1167 7.26582 12.1167 9.24749C12.1167 11.2292 13.7232 12.8356 15.7048 12.8356Z" fill="white"/>
<path d="M6.09875 10.5744V9.3975C5.73187 9.2925 5.4625 9.13375 5.29125 8.92125C5.12 8.70875 5.03437 8.45062 5.03437 8.1475C5.03437 7.84062 5.13125 7.5825 5.325 7.37375C5.51875 7.165 5.77687 7.04437 6.09875 7.0125V6.73438H6.50625V7.0125C6.80375 7.04812 7.04062 7.14937 7.21687 7.3175C7.39312 7.485 7.505 7.70937 7.55375 7.99L6.84312 8.08312C6.8 7.86187 6.6875 7.71187 6.50563 7.63312V8.73125C6.955 8.85312 7.26125 9.01062 7.42438 9.20437C7.5875 9.39812 7.66875 9.64687 7.66875 9.95C7.66875 10.2887 7.56625 10.5744 7.36125 10.8069C7.15625 11.0394 6.87125 11.1812 6.50563 11.2337V11.7587H6.09875V11.2475C5.775 11.2081 5.51187 11.0875 5.30937 10.885C5.10687 10.6825 4.97813 10.3969 4.92188 10.0281L5.655 9.94938C5.685 10.0994 5.74125 10.2281 5.82375 10.3369C5.90562 10.4469 5.9975 10.5256 6.09875 10.5744ZM6.09875 7.625C5.98812 7.6625 5.9 7.72625 5.835 7.81625C5.76937 7.90625 5.73687 8.00562 5.73687 8.11375C5.73687 8.21312 5.76687 8.305 5.82687 8.39062C5.88687 8.47562 5.9775 8.54437 6.09938 8.59687V7.625H6.09875ZM6.50563 10.6137C6.64625 10.5875 6.76063 10.5225 6.84813 10.4187C6.93563 10.315 6.98 10.1925 6.98 10.0525C6.98 9.92688 6.94313 9.81875 6.86875 9.72813C6.795 9.6375 6.67375 9.5675 6.505 9.51875V10.6137H6.50563Z" fill="#8CC63E"/>
<path d="M15.5081 10.5744V9.3975C15.1412 9.2925 14.8719 9.13375 14.7006 8.92125C14.5294 8.70875 14.4437 8.45062 14.4437 8.1475C14.4437 7.84062 14.5406 7.5825 14.7344 7.37375C14.9281 7.165 15.1862 7.04437 15.5081 7.0125V6.73438H15.9156V7.0125C16.2131 7.04812 16.45 7.14937 16.6262 7.3175C16.8025 7.485 16.9144 7.70937 16.9631 7.99L16.2525 8.0825C16.2094 7.86125 16.0969 7.71187 15.9156 7.63312V8.73125C16.365 8.85312 16.6712 9.01062 16.8344 9.20437C16.9975 9.39812 17.0787 9.64687 17.0787 9.95C17.0787 10.2887 16.9762 10.5744 16.7712 10.8069C16.5662 11.0394 16.2812 11.1812 15.9156 11.2337V11.7587H15.5081V11.2475C15.1844 11.2081 14.9212 11.0875 14.7187 10.885C14.5162 10.6825 14.3875 10.3969 14.3312 10.0281L15.0644 9.94938C15.0944 10.0994 15.1506 10.2281 15.2331 10.3369C15.3156 10.4469 15.4075 10.5256 15.5081 10.5744ZM15.5081 7.625C15.3975 7.6625 15.3094 7.72625 15.2444 7.81625C15.1787 7.90625 15.1462 8.00562 15.1462 8.11375C15.1462 8.21312 15.1762 8.305 15.2362 8.39062C15.2962 8.47562 15.3869 8.54437 15.5087 8.59687V7.625H15.5081ZM15.9156 10.6137C16.0562 10.5875 16.1706 10.5225 16.2581 10.4187C16.3462 10.315 16.39 10.1925 16.39 10.0525C16.39 9.92688 16.3531 9.81875 16.2787 9.72813C16.205 9.6375 16.0837 9.5675 15.915 9.51875V10.6137H15.9156Z" fill="#8CC63E"/>
<path d="M21 8.65123H19.7631C19.3031 5.39186 15.4206 4.04436 13.0069 6.15311C11.7738 7.22998 10.0681 7.08686 8.98312 6.14436C6.57187 4.05123 2.69687 5.39061 2.23687 8.65123H1V9.84248H2.23063C2.52 11.8262 4.2325 13.3544 6.295 13.3544C8.27063 13.3544 9.92437 11.9519 10.3144 10.0906H10.315C10.315 10.0875 10.315 10.0881 10.315 10.0881C10.3344 9.99686 10.3463 9.90311 10.3594 9.80936C10.5725 9.17373 11.43 9.19623 11.64 9.80998C11.6531 9.90311 11.665 9.99686 11.6838 10.0875C11.6838 10.0875 11.6838 10.0881 11.6838 10.0912H11.685C12.0756 11.9525 13.7294 13.3544 15.705 13.3544C17.7675 13.3544 19.48 11.8262 19.7694 9.84248H21V8.65123ZM6.295 12.3862C4.56375 12.3862 3.15562 10.9781 3.15562 9.24686C3.15562 7.51561 4.56437 6.10811 6.295 6.10811C8.02563 6.10811 9.43375 7.51623 9.43375 9.24748C9.43375 10.9787 8.02625 12.3862 6.295 12.3862ZM15.705 12.3862C13.9738 12.3862 12.5656 10.9781 12.5656 9.24686C12.5656 7.51561 13.9738 6.10748 15.705 6.10748C17.4356 6.10748 18.8438 7.51561 18.8438 9.24686C18.8438 10.9781 17.4356 12.3862 15.705 12.3862Z" fill="#3E4347"/>
<path d="M17.5456 4.93748C17.5606 4.81998 17.2019 4.27748 17.1475 4.2031C16.7762 3.6806 16.3281 3.28873 15.7981 2.91935C15.08 2.44623 13.8181 1.96373 13.165 2.5181C13.145 2.53123 13.145 2.55748 13.1587 2.5706C13.635 3.13498 14.4106 3.21998 15.4562 3.58435C16.8194 4.0806 16.8525 4.3656 17.5025 4.94623C17.5181 4.9606 17.5325 4.97873 17.5456 4.93748Z" fill="#3E4347"/>
<path d="M4.45438 4.93748C4.43876 4.81998 4.79751 4.27685 4.85251 4.2031C5.22376 3.6806 5.67188 3.28873 6.20188 2.91935C6.92001 2.44623 8.18188 1.96373 8.83501 2.5181C8.85501 2.53123 8.85501 2.55748 8.84126 2.5706C8.36501 3.13498 7.58938 3.21998 6.54376 3.58435C5.18126 4.07998 5.14813 4.3656 4.49813 4.94623C4.48188 4.9606 4.46751 4.97873 4.45438 4.93748Z" fill="#3E4347"/>
<path d="M16.1012 15.2656C15.3975 17.4093 13.3819 18.9562 10.9981 18.9562C8.61936 18.9562 6.60373 17.4093 5.89498 15.26C5.79436 14.9531 6.05686 14.6512 6.37498 14.685C9.47936 15.0368 12.5562 15.0481 15.6212 14.6906C15.945 14.6512 16.2019 14.9581 16.1012 15.2656Z" fill="#3E4347"/>
<path d="M14.0555 17.2125C13.2274 17.9225 12.1499 18.3331 10.998 18.3331C9.85236 18.3331 8.78111 17.9219 7.94611 17.2181C9.98298 16.7262 12.0192 16.7262 14.0555 17.2125Z" fill="white"/>
<path d="M15.4131 15.3375C15.295 15.6362 15.1513 15.9106 14.9769 16.1719C12.2863 16.8881 9.63375 16.8756 7.01188 16.1594C6.84375 15.8981 6.70063 15.6237 6.58188 15.3312C8.07625 15.4931 9.59 15.5744 11.0656 15.5744C12.5175 15.5744 13.9813 15.5 15.4131 15.3375Z" fill="white"/>
</svg>
