<svg width="22" height="22" viewBox="0 0 22 22" fill="none" xmlns="http://www.w3.org/2000/svg">
<path d="M11 21C16.5228 21 21 16.5228 21 11C21 5.47715 16.5228 1 11 1C5.47715 1 1 5.47715 1 11C1 16.5228 5.47715 21 11 21Z" fill="#FFD93B"/>
<path d="M21 11C21 16.525 16.5219 21 11 21C7.85626 21 5.05001 19.55 3.21564 17.2781C4.93126 18.6656 7.11564 19.4938 9.49376 19.4938C15.0156 19.4938 19.4938 15.0188 19.4938 9.49376C19.4938 7.11564 18.6656 4.93126 17.2781 3.21564C19.5469 5.05001 21 7.85626 21 11Z" fill="#F4C534"/>
<path d="M16.6712 14.0606C15.965 16.4794 13.7337 18.2481 11.0775 18.2481C8.43375 18.2481 6.2025 16.4856 5.49625 14.0669C5.43375 13.8544 5.60875 13.6481 5.8275 13.6981C9.22125 14.4044 12.7275 14.4044 16.34 13.6919C16.5525 13.6481 16.7337 13.8481 16.6712 14.0606Z" fill="#3E4347"/>
<path d="M6.80438 13.8788C7.27126 14.9769 9.04751 15.6681 11.1063 15.6581C13.1806 15.6688 14.9694 14.9663 15.4188 13.8531C12.4744 14.3388 9.60313 14.3481 6.80438 13.8788Z" fill="white"/>
<path d="M11.0775 18.2482C11.9231 18.2482 12.7244 18.0657 13.4494 17.7425C13.4419 16.8525 12.7231 16.1369 11.8319 16.1369C11.3431 16.1369 10.9025 16.3544 10.6094 16.6963C10.3919 16.5825 10.1475 16.5225 9.88687 16.5225C9.19062 16.5225 8.60438 16.9638 8.375 17.5769C9.18187 18.0032 10.1 18.2482 11.0775 18.2482Z" fill="#E24B4B"/>
<g opacity="0.25">
<path opacity="0.25" d="M12.6681 16.9937C12.5919 17.1106 12.3181 17.1081 12.0625 16.9894C11.8013 16.87 11.6569 16.68 11.7394 16.5644C11.8156 16.4475 12.0831 16.4487 12.3375 16.5719C12.6006 16.6875 12.745 16.8769 12.6681 16.9937Z" fill="white"/>
</g>
<path d="M13.6968 9.78625L14.1456 8.1125C13.2956 7.60312 12.8468 6.9025 13.1081 5.92937C13.34 5.065 14.0962 4.56312 15.0543 4.72125L15.1606 4.32562L15.74 4.48062L15.6337 4.87625C16.4818 5.21562 16.8243 5.85937 16.7512 6.66562L15.705 6.52687C15.7281 6.19625 15.625 5.94 15.3968 5.75937L14.9781 7.32125C17.3587 8.70437 16 11.1169 14.0243 10.8806L13.8243 11.6275L13.245 11.4725L13.44 10.7456C12.5831 10.4006 12.105 9.69375 12.2306 8.56375L13.3031 8.73125C13.2731 9.19437 13.4531 9.57687 13.6968 9.78625ZM14.8206 5.59125C14.1356 5.63562 13.7856 6.44875 14.45 6.97312L14.8206 5.59125ZM14.2612 9.9975C15.0806 10.0606 15.6381 9.01812 14.6787 8.43937L14.2612 9.9975Z" fill="#719D34"/>
<path d="M7.74248 9.94438L7.29373 8.27063C6.30311 8.25438 5.56436 7.87188 5.30311 6.89875C5.07186 6.03375 5.47623 5.22125 6.38498 4.87875L6.27873 4.48313L6.85811 4.32812L6.96436 4.72375C7.86811 4.59375 8.48686 4.98 8.82686 5.71438L7.85123 6.11688C7.70561 5.81875 7.48873 5.64875 7.20061 5.60625L7.61936 7.16813C10.3725 7.17563 10.4019 9.945 8.57311 10.7275L8.77311 11.4744L8.19373 11.6294L7.99873 10.9025C7.08436 11.0325 6.31686 10.6588 5.86061 9.6175L6.87311 9.22625C7.07998 9.64375 7.42686 9.88438 7.74248 9.94438ZM6.61873 5.75C6.04811 6.13125 6.15123 7.01 6.98936 7.1325L6.61873 5.75ZM8.33686 9.845C9.07873 9.49 9.03936 8.30875 7.91936 8.28688L8.33686 9.845Z" fill="#719D34"/>
</svg>
