<svg width="18" height="18" viewBox="0 0 18 18" xmlns="http://www.w3.org/2000/svg">
<path fill-rule="evenodd" clip-rule="evenodd" d="M14.8494 11.25H11.2494V14.85H14.8494V11.25ZM11.2494 9.90002H14.8494C15.595 9.90002 16.1994 10.5044 16.1994 11.25V14.85C16.1994 15.5956 15.595 16.2 14.8494 16.2H11.2494C10.5038 16.2 9.89941 15.5956 9.89941 14.85V11.25C9.89941 10.5044 10.5038 9.90002 11.2494 9.90002Z" />
<path fill-rule="evenodd" clip-rule="evenodd" d="M6.7498 3.15005H3.1498L3.1498 6.75005H6.7498V3.15005ZM14.8498 3.15005H11.2498V6.75005H14.8498V3.15005ZM6.7498 11.25H3.1498L3.1498 14.85H6.7498V11.25ZM6.7498 1.80005H3.1498C2.40422 1.80005 1.7998 2.40446 1.7998 3.15005V6.75005C1.7998 7.49563 2.40422 8.10005 3.1498 8.10005H6.7498C7.49539 8.10005 8.0998 7.49563 8.0998 6.75005V3.15005C8.0998 2.40446 7.49539 1.80005 6.7498 1.80005ZM14.8498 1.80005H11.2498C10.5042 1.80005 9.8998 2.40446 9.8998 3.15005V6.75005C9.8998 7.49563 10.5042 8.10005 11.2498 8.10005H14.8498C15.5954 8.10005 16.1998 7.49563 16.1998 6.75005V3.15005C16.1998 2.40446 15.5954 1.80005 14.8498 1.80005ZM3.1498 9.90005H6.7498C7.49539 9.90005 8.0998 10.5045 8.0998 11.25V14.85C8.0998 15.5956 7.49539 16.2 6.7498 16.2H3.1498C2.40422 16.2 1.7998 15.5956 1.7998 14.85V11.25C1.7998 10.5045 2.40422 9.90005 3.1498 9.90005Z" />
</svg>
