<svg width="22" height="22" viewBox="0 0 22 22" fill="none" xmlns="http://www.w3.org/2000/svg">
<path d="M11.0002 20.5861C16.1326 20.5861 20.2932 16.4255 20.2932 11.293C20.2932 6.16064 16.1326 2 11.0002 2C5.86779 2 1.70715 6.16064 1.70715 11.293C1.70715 16.4255 5.86779 20.5861 11.0002 20.5861Z" fill="#FFD93B"/>
<path d="M20.2932 11.2931C20.2932 16.4274 16.1314 20.5861 11.0002 20.5861C8.07833 20.5861 5.47085 19.2386 3.76587 17.1274C5.36023 18.4168 7.39021 19.1868 9.6002 19.1868C14.732 19.1868 18.8932 15.028 18.8932 9.89371C18.8932 7.68373 18.1239 5.65375 16.8339 4.05939C18.9426 5.76375 20.2932 8.37123 20.2932 11.2931Z" fill="#F4C534"/>
<path d="M7.30026 13.1599C8.85907 13.1599 10.1227 11.8962 10.1227 10.3374C10.1227 8.77862 8.85907 7.51495 7.30026 7.51495C5.74145 7.51495 4.47778 8.77862 4.47778 10.3374C4.47778 11.8962 5.74145 13.1599 7.30026 13.1599Z" fill="white"/>
<path d="M14.7011 13.16C16.2599 13.16 17.5236 11.8963 17.5236 10.3375C17.5236 8.77868 16.2599 7.51501 14.7011 7.51501C13.1423 7.51501 11.8786 8.77868 11.8786 10.3375C11.8786 11.8963 13.1423 13.16 14.7011 13.16Z" fill="white"/>
<path d="M8.99228 10.0414C8.50566 9.55463 7.7168 9.55432 7.23029 10.0407C6.74378 10.5271 6.74387 11.3159 7.23048 11.8027C7.71709 12.2894 8.50596 12.2897 8.99247 11.8034C9.47898 11.317 9.47889 10.5281 8.99228 10.0414Z" fill="#3E4347"/>
<path d="M8.75403 11.2993C8.62278 11.2993 8.52216 11.1293 8.52216 10.9212C8.52216 10.713 8.62278 10.543 8.75403 10.543C8.87778 10.543 8.98528 10.713 8.98528 10.9212C8.9859 11.1293 8.88153 11.303 8.75403 11.2993Z" fill="white"/>
<path d="M14.7708 10.042C14.2841 9.55537 13.4952 9.55529 13.0088 10.0418C12.5225 10.5283 12.5228 11.3172 13.0095 11.8038C13.4963 12.2904 14.2851 12.2905 14.7715 11.804C15.2579 11.3175 15.2576 10.5286 14.7708 10.042Z" fill="#3E4347"/>
<path d="M13.2477 11.3012C13.379 11.3012 13.479 11.1312 13.479 10.923C13.479 10.7149 13.3784 10.5449 13.2471 10.5449C13.1234 10.5449 13.0159 10.7149 13.0159 10.923C13.0159 11.1312 13.1202 11.3049 13.2477 11.3012Z" fill="white"/>
<path d="M20.6608 14.9474C18.3145 18.113 14.7014 20.0061 11.0015 20.0061C7.29588 20.0061 3.68342 18.113 1.34219 14.9474C0.76719 14.1693 0.935314 13.0774 1.70781 12.508C2.4803 11.9387 3.57217 12.1012 4.14154 12.8737C5.83152 15.1561 8.399 16.5211 11.0009 16.5211C13.6027 16.5211 16.1646 15.1561 17.8545 12.8737C18.4295 12.1012 19.5214 11.9387 20.2939 12.508C21.067 13.0774 21.2295 14.1693 20.6608 14.9474Z" fill="#FFD93B"/>
<path d="M19.8414 14.3429C17.6865 17.2529 14.3815 18.9898 11.0015 18.9898C7.6153 18.9898 4.31033 17.2535 2.1616 14.3429C1.91785 14.0179 1.98723 13.5648 2.31285 13.3267C2.63222 13.0886 3.09097 13.1586 3.32909 13.4779C5.20532 16.0217 8.07468 17.5379 11.0015 17.5379C13.9228 17.5379 16.7921 16.0223 18.674 13.4779C18.9121 13.1523 19.3652 13.083 19.6902 13.3267C20.0102 13.5648 20.0796 14.0179 19.8414 14.3429Z" fill="#3E4347"/>
<path d="M16.5959 6.19679C15.8159 4.01805 13.6628 4.36868 13.5715 4.38493C13.3346 4.4268 13.1084 4.26868 13.0671 4.0318C13.0253 3.79493 13.1834 3.56868 13.4203 3.52743C14.4434 3.34868 16.5959 3.61181 17.4159 5.90304C17.4971 6.12991 17.379 6.37928 17.1527 6.45991C16.9302 6.53991 16.6777 6.42616 16.5959 6.19679Z" fill="#3E4347"/>
<path d="M4.84781 6.45989C4.62156 6.37864 4.50344 6.12989 4.58469 5.90302C5.40468 3.61179 7.55841 3.34491 8.58028 3.52741C8.81715 3.56866 8.9759 3.79429 8.9334 4.03178C8.89277 4.26803 8.66778 4.42241 8.4309 4.38553C8.33778 4.36991 6.17905 4.03116 5.40468 6.19677C5.3228 6.42614 5.07031 6.53989 4.84781 6.45989Z" fill="#3E4347"/>
</svg>
