<svg width="22" height="22" viewBox="0 0 22 22" fill="none" xmlns="http://www.w3.org/2000/svg">
<path d="M11 21C16.5228 21 21 16.5228 21 11C21 5.47715 16.5228 1 11 1C5.47715 1 1 5.47715 1 11C1 16.5228 5.47715 21 11 21Z" fill="#FFD93B"/>
<path d="M21 11C21 16.525 16.5219 21 11 21C7.85626 21 5.05001 19.55 3.21564 17.2781C4.93126 18.6656 7.11564 19.4938 9.49376 19.4938C15.0156 19.4938 19.4938 15.0188 19.4938 9.49376C19.4938 7.11564 18.6656 4.93126 17.2781 3.21564C19.5469 5.05001 21 7.85626 21 11Z" fill="#F4C534"/>
<path d="M14.2373 12.0444C15.8555 12.0444 17.1673 10.7326 17.1673 9.11445C17.1673 7.49625 15.8555 6.18445 14.2373 6.18445C12.6191 6.18445 11.3073 7.49625 11.3073 9.11445C11.3073 10.7326 12.6191 12.0444 14.2373 12.0444Z" fill="#F4C534"/>
<path d="M11.7519 9.11438C11.68 10.4519 12.735 11.5363 14.1088 11.5363C15.4825 11.5363 16.6544 10.4519 16.7263 9.11438C16.7981 7.77688 15.7431 6.6925 14.3694 6.6925C12.9956 6.6925 11.8238 7.77625 11.7519 9.11438Z" fill="white"/>
<path d="M12.1588 9.60251C12.1588 10.3338 12.6713 10.9338 13.3088 10.9338C13.9463 10.9338 14.4588 10.3338 14.4588 9.60251C14.4588 8.86501 13.9463 8.26501 13.3088 8.26501C12.6713 8.26564 12.1588 8.86501 12.1588 9.60251Z" fill="#3E4347"/>
<path d="M12.6206 9.24623C12.7144 9.33998 12.9019 9.30248 13.0456 9.15873C13.1894 9.01498 13.2269 8.82748 13.1331 8.73373C13.0456 8.64623 12.8519 8.68373 12.7144 8.82748C12.5706 8.96498 12.5331 9.15873 12.6206 9.24623Z" fill="#5A5F63"/>
<path d="M12.5425 5.64252C12.5425 5.64252 15.4325 4.56252 17.5462 7.27689C17.5462 7.27627 14.7137 2.07752 12.5425 5.64252Z" fill="#3E4347"/>
<path d="M7.76124 12.0444C9.37943 12.0444 10.6912 10.7326 10.6912 9.11439C10.6912 7.49619 9.37943 6.18439 7.76124 6.18439C6.14304 6.18439 4.83124 7.49619 4.83124 9.11439C4.83124 10.7326 6.14304 12.0444 7.76124 12.0444Z" fill="#F4C534"/>
<path d="M10.2481 9.11438C10.32 10.4519 9.26499 11.5363 7.89124 11.5363C6.51749 11.5363 5.34624 10.4519 5.27437 9.11438C5.20249 7.77688 6.25749 6.6925 7.63124 6.6925C9.00437 6.6925 10.1762 7.77625 10.2481 9.11438Z" fill="white"/>
<path d="M9.84126 9.60251C9.84126 10.3338 9.32876 10.9338 8.69126 10.9338C8.05376 10.9338 7.54126 10.3338 7.54126 9.60251C7.54126 8.86501 8.05376 8.26501 8.69126 8.26501C9.32876 8.26501 9.84126 8.86501 9.84126 9.60251Z" fill="#3E4347"/>
<path d="M9.37938 9.24623C9.28563 9.33998 9.09813 9.30248 8.95438 9.15873C8.81063 9.01498 8.77313 8.82748 8.86688 8.73373C8.95438 8.64623 9.14813 8.68373 9.28563 8.82748C9.42938 8.96498 9.46688 9.15873 9.37938 9.24623Z" fill="#5A5F63"/>
<path d="M9.45749 5.64252C9.45749 5.64252 6.56749 4.56252 4.45374 7.27689C4.45374 7.27627 7.28624 2.07752 9.45749 5.64252Z" fill="#3E4347"/>
<path d="M6.61826 14.3251C6.72763 16.6057 8.64451 18.4238 11.0001 18.4238C13.3558 18.4238 15.2733 16.6063 15.382 14.3251C12.4145 15.6869 9.49388 15.6657 6.61826 14.3251Z" fill="#3E4347"/>
<path d="M11.6206 16.7225C11.3381 16.7225 11.0837 16.8444 10.9069 17.0375C10.7737 16.9657 10.6244 16.9269 10.4644 16.9269C9.97875 16.9269 9.5825 17.2813 9.51062 17.7463C9.9725 17.9275 10.4725 18.0357 11 18.0357C11.5662 18.0357 12.0994 17.9094 12.5887 17.7019C12.5887 17.6988 12.5894 17.6938 12.5894 17.6907C12.5887 17.1544 12.1575 16.7225 11.6206 16.7225Z" fill="#E24B4B"/>
<path d="M14.7712 13.7943C15.2781 14.2781 15.715 14.3568 16.1943 14.6143C15.5506 14.8124 14.7812 14.2743 14.7712 13.7943Z" fill="#3E4347"/>
<path d="M7.22938 13.7944C7.21876 14.2756 6.44876 14.8125 5.80563 14.6144C6.29188 14.3537 6.72001 14.2806 7.22938 13.7944Z" fill="#3E4347"/>
<path d="M13.5736 15.3832L13.5179 16.2294L13.1748 16.3569L12.9204 15.5376C13.1423 15.4938 13.3579 15.4444 13.5736 15.3832Z" fill="white"/>
<path d="M12.3842 15.627L12.3067 16.3963C11.7254 16.4238 11.1279 16.402 10.5135 16.3357L10.4304 15.7101C10.6129 15.7213 10.801 15.727 10.9835 15.727C11.4485 15.7263 11.9192 15.6932 12.3842 15.627Z" fill="white"/>
<path d="M11.9911 17.9125C11.6754 17.99 11.3436 18.0344 11.0004 18.0344C10.9398 18.0344 10.8729 18.0344 10.8123 18.0232L10.8286 17.525C11.2048 17.5082 11.5867 17.5194 11.9798 17.5638L11.9911 17.9125Z" fill="white"/>
<path d="M9.69999 15.6381L9.40687 16.3356L8.34999 15.9263L8.28937 15.3506C8.75937 15.4831 9.22999 15.5825 9.69999 15.6381Z" fill="white"/>
</svg>
