<svg width="22" height="22" viewBox="0 0 22 22" fill="none" xmlns="http://www.w3.org/2000/svg">
<path d="M10.9925 20.9906C16.5112 20.9906 20.985 16.5156 20.985 10.9953C20.985 5.47505 16.5112 1 10.9925 1C5.4738 1 1 5.47505 1 10.9953C1 16.5156 5.4738 20.9906 10.9925 20.9906Z" fill="#FFD93B"/>
<path d="M21.0006 11.0047C21.0006 16.5271 16.5258 21 11.0081 21C7.8667 21 5.06256 19.5507 3.22955 17.2798C4.94389 18.6667 7.12663 19.4944 9.50298 19.4944C15.0207 19.4944 19.4955 15.0215 19.4955 9.49912C19.4955 7.12211 18.668 4.93876 17.2815 3.22394C19.5486 5.05745 21.0006 7.86239 21.0006 11.0047Z" fill="#F4C534"/>
<path d="M4.45712 14.8679C5.3577 16.8332 9.30911 16.7108 11.1203 16.4727C13.16 16.2322 16.851 15.4264 17.5255 13.4623C17.6597 15.953 13.7458 17.3923 11.282 17.7109C8.53407 18.0514 4.5889 17.3273 4.45712 14.8679Z" fill="#3E4347"/>
<path d="M10.5332 9.72215C10.5332 11.5838 9.14674 13.0893 7.43552 13.0893C5.73055 13.0893 4.34409 11.5838 4.34409 9.72215C4.34409 7.86677 5.73055 6.35498 7.43552 6.35498C9.14674 6.35436 10.5332 7.86615 10.5332 9.72215Z" fill="#F4C534"/>
<path d="M9.99076 9.72217C9.99076 11.2583 8.84662 12.5002 7.43517 12.5002C6.02873 12.5002 4.88458 11.2583 4.88458 9.72217C4.88458 8.19101 6.02873 6.94409 7.43517 6.94409C8.84662 6.94347 9.99076 8.19101 9.99076 9.72217Z" fill="white"/>
<path d="M8.29243 11.3451C9.02386 11.3451 9.61681 10.6823 9.61681 9.86459C9.61681 9.0469 9.02386 8.38403 8.29243 8.38403C7.56099 8.38403 6.96805 9.0469 6.96805 9.86459C6.96805 10.6823 7.56099 11.3451 8.29243 11.3451Z" fill="#3E4347"/>
<path d="M7.49891 9.45227C7.59886 9.53973 7.79252 9.47725 7.93621 9.31483C8.08613 9.15865 8.12986 8.95875 8.03616 8.87129C7.93621 8.79008 7.74255 8.84005 7.59886 9.00248C7.45518 9.1649 7.41145 9.37105 7.49891 9.45227Z" fill="#5A5F63"/>
<path d="M11.4678 9.72215C11.4678 11.5838 12.8542 13.0893 14.5655 13.0893C16.2704 13.0893 17.6569 11.5838 17.6569 9.72215C17.6569 7.86677 16.2704 6.35498 14.5655 6.35498C12.8542 6.35436 11.4678 7.86615 11.4678 9.72215Z" fill="#F4C534"/>
<path d="M12.0092 9.72217C12.0092 11.2583 13.1534 12.5002 14.5648 12.5002C15.9713 12.5002 17.1154 11.2583 17.1154 9.72217C17.1154 8.19101 15.9713 6.94409 14.5648 6.94409C13.1534 6.94347 12.0092 8.19101 12.0092 9.72217Z" fill="white"/>
<path d="M13.7084 11.3451C14.4398 11.3451 15.0328 10.6823 15.0328 9.86459C15.0328 9.0469 14.4398 8.38403 13.7084 8.38403C12.977 8.38403 12.384 9.0469 12.384 9.86459C12.384 10.6823 12.977 11.3451 13.7084 11.3451Z" fill="#3E4347"/>
<path d="M12.9149 9.45227C13.0148 9.53973 13.2085 9.47725 13.3522 9.31483C13.5021 9.15865 13.5458 8.95875 13.4521 8.87129C13.3522 8.79008 13.1585 8.84005 13.0148 9.00248C12.8711 9.1649 12.8274 9.37105 12.9149 9.45227Z" fill="#5A5F63"/>
<path d="M15.9323 5.24864C10.7784 5.96706 12.7713 3.4245 12.7713 3.4245C13.3835 4.70515 15.9323 5.24864 15.9323 5.24864Z" fill="#3E4347"/>
<path d="M6.0687 5.24864C11.2225 5.96706 9.22971 3.4245 9.22971 3.4245C8.6175 4.70515 6.0687 5.24864 6.0687 5.24864Z" fill="#3E4347"/>
</svg>
