<svg width="20" height="20" viewBox="0 0 20 20" fill="none" xmlns="http://www.w3.org/2000/svg">
<path d="M2.29243 6.35554C2.61993 6.10366 3.08925 6.16417 3.34223 6.49031L3.34478 6.49351C3.34816 6.49773 3.35472 6.50583 3.36448 6.51749C3.38399 6.54083 3.41624 6.57838 3.46135 6.62766C3.55162 6.72628 3.69298 6.87143 3.88633 7.04334C4.27335 7.38744 4.86585 7.83628 5.67161 8.23505C6.72929 8.75849 8.16282 9.20005 9.99966 9.20005C11.8365 9.20005 13.27 8.75849 14.3277 8.23505C15.1335 7.83628 15.726 7.38744 16.113 7.04334C16.3063 6.87143 16.4477 6.72628 16.538 6.62766C16.5831 6.57838 16.6153 6.54083 16.6349 6.51749C16.6446 6.50583 16.6512 6.49773 16.6545 6.49351L16.6568 6.4907C16.9098 6.16454 17.3794 6.10366 17.7069 6.35554C18.0352 6.60806 18.0967 7.07894 17.8442 7.40728L17.8429 7.40893L17.8413 7.41099L17.8372 7.41628L17.8251 7.43152C17.8153 7.4437 17.8021 7.45989 17.7855 7.47975C17.7523 7.51946 17.7053 7.57391 17.6444 7.64045C17.5227 7.77347 17.3449 7.95522 17.1097 8.16433C16.758 8.47701 16.2764 8.85227 15.6607 9.21717L16.8819 11.609C17.0703 11.9779 16.9239 12.4297 16.555 12.618C16.1861 12.8064 15.7343 12.66 15.546 12.2911L14.317 9.8841C13.3369 10.2842 12.1493 10.5947 10.7497 10.678V12.95C10.7497 13.3643 10.4139 13.7 9.99966 13.7C9.58545 13.7 9.24966 13.3643 9.24966 12.95V10.678C7.85001 10.5947 6.66248 10.2842 5.68229 9.8841L4.45335 12.2911C4.265 12.66 3.81324 12.8064 3.44433 12.618C3.07542 12.4297 2.92905 11.9779 3.11741 11.609L4.33861 9.21717C3.72289 8.85227 3.24133 8.47701 2.88965 8.16433C2.65445 7.95522 2.47664 7.77347 2.35489 7.64045C2.29398 7.57391 2.24701 7.51946 2.2138 7.47975C2.19719 7.45989 2.18402 7.4437 2.17425 7.43152L2.16216 7.41628L2.15802 7.41099L2.15643 7.40893L2.15575 7.40806C1.90323 7.07972 1.96409 6.60806 2.29243 6.35554Z" fill="#93959C"/>
</svg>
