<svg width="22" height="22" viewBox="0 0 22 22" fill="none" xmlns="http://www.w3.org/2000/svg">
<path d="M11 21C16.5228 21 21 16.5228 21 11C21 5.47715 16.5228 1 11 1C5.47715 1 1 5.47715 1 11C1 16.5228 5.47715 21 11 21Z" fill="#FFD93B"/>
<path d="M21 11C21 16.525 16.5219 21 11 21C7.85628 21 5.05003 19.55 3.21565 17.2781C4.93128 18.6656 7.11565 19.4938 9.49378 19.4938C15.0157 19.4938 19.4938 15.0188 19.4938 9.49376C19.4938 7.11564 18.6657 4.93126 17.2782 3.21564C19.5469 5.05001 21 7.85626 21 11Z" fill="#F4C534"/>
<path d="M10.0306 8.02312C10.0306 10.395 8.11252 12.3194 5.74065 12.3194C3.36252 12.3194 1.4444 10.3944 1.4444 8.02312C1.4444 5.65124 3.36252 3.72687 5.74065 3.72687C8.11252 3.72687 10.0306 5.65187 10.0306 8.02312Z" fill="#F4C534"/>
<path d="M9.63625 8.02311C9.505 10.0531 7.65875 11.7025 5.51062 11.7025C3.35562 11.7025 1.71312 10.0531 1.83812 8.02311C1.96937 5.98624 3.81562 4.34436 5.96375 4.34436C8.11875 4.34436 9.76125 5.98686 9.63625 8.02311Z" fill="white"/>
<path d="M5.55313 5.22437C8.78125 5.42187 8.9325 8.46562 7.7375 9.85999C7.31125 10.3562 6.69813 10.7094 6.01063 10.795C3.4725 11.1344 1.95313 8.27562 3.63938 6.64312C4.63438 5.63937 6.35688 6.10374 6.69313 7.30374C7.10125 8.69312 5.41313 9.64437 4.74625 8.66499C5.485 9.30187 6.57063 8.40812 6.15813 7.48812C5.88 6.83124 4.83938 6.60687 4.26 7.24937C3.27563 8.31562 4.28125 10.0325 5.895 9.85124C6.49438 9.77937 7.00188 9.43624 7.09813 9.27624C7.70875 8.62937 7.86313 7.64999 7.605 6.87812C7.18 5.56874 5.55313 5.22437 5.55313 5.22437Z" fill="#3E4347"/>
<path d="M20.5563 8.02312C20.5563 10.395 18.6381 12.3194 16.2663 12.3194C13.8881 12.3194 11.97 10.3944 11.97 8.02312C11.97 5.65124 13.8881 3.72687 16.2663 3.72687C18.6375 3.72687 20.5563 5.65187 20.5563 8.02312Z" fill="#F4C534"/>
<path d="M20.1619 8.02311C20.0306 10.0531 18.1844 11.7025 16.0362 11.7025C13.8812 11.7025 12.2387 10.0531 12.3637 8.02311C12.495 5.98624 14.3412 4.34436 16.4894 4.34436C18.6444 4.34436 20.2869 5.98686 20.1619 8.02311Z" fill="white"/>
<path d="M16.0787 5.22437C19.3069 5.42187 19.4581 8.46562 18.2631 9.85999C17.8369 10.3562 17.2237 10.7094 16.5362 10.795C13.9981 11.1344 12.4787 8.27562 14.165 6.64312C15.16 5.63937 16.8825 6.10374 17.2187 7.30374C17.6269 8.69312 15.9387 9.64437 15.2719 8.66499C16.0106 9.30187 17.0969 8.40812 16.6837 7.48812C16.405 6.83124 15.365 6.60687 14.7856 7.24937C13.8012 8.31562 14.8069 10.0325 16.4206 9.85124C17.02 9.77937 17.5275 9.43624 17.6237 9.27624C18.2344 8.62937 18.3887 7.64999 18.1306 6.87812C17.7056 5.56874 16.0787 5.22437 16.0787 5.22437Z" fill="#3E4347"/>
<path d="M14.4413 17.3813C12.1888 16.4906 9.85626 16.1656 7.56001 17.7375C7.18126 18.0106 6.76813 17.6263 6.92188 17.1244C7.54688 15.085 9.21751 13.9075 11.1156 14.2294C13.0113 14.5456 14.5406 15.8481 15.1156 16.9938C15.2619 17.2831 14.8175 17.5256 14.4413 17.3813Z" fill="#3E4347"/>
<path d="M12.8619 16.8756C12.7794 16.4712 12.5275 16.1037 12.1594 15.8231C11.9637 15.6744 11.6975 15.6194 11.4556 15.6756C11.2456 15.7269 11.015 15.7506 10.7581 15.7387C10.7044 15.7356 10.65 15.7325 10.5987 15.7275C10.0506 15.6637 9.49687 15.8962 9.22874 16.4275C9.14249 16.5994 9.08124 16.7875 9.04062 16.9856C10.32 16.5312 11.6012 16.5681 12.8619 16.8756Z" fill="#E24B4B"/>
</svg>
