<svg width="20" height="20" viewBox="0 0 20 20" fill="none" xmlns="http://www.w3.org/2000/svg">
<path fill-rule="evenodd" clip-rule="evenodd" d="M6.25124 3.5C6.07166 3.5 5.88707 3.57614 5.7418 3.73222C5.59479 3.89017 5.50348 4.11553 5.50348 4.36111V15.7268L9.54166 12.6278C9.81187 12.4204 10.1881 12.4204 10.4583 12.6278L14.4965 15.7268V4.36111C14.4965 4.11553 14.4052 3.89017 14.2582 3.73222C14.1129 3.57614 13.9283 3.5 13.7488 3.5H6.25124ZM4.64006 2.71154C5.05722 2.26334 5.63544 2 6.25124 2H13.7488C14.3646 2 14.9428 2.26334 15.3599 2.71154C15.7753 3.15788 16 3.7521 16 4.36111V17.25C16 17.5357 15.8373 17.7966 15.5803 17.9228C15.3234 18.0491 15.0169 18.0187 14.7899 17.8445L10 14.1684L5.21008 17.8445C4.98308 18.0187 4.67659 18.0491 4.41966 17.9228C4.16273 17.7966 4 17.5357 4 17.25V4.36111C4 3.7521 4.22465 3.15788 4.64006 2.71154Z" fill="#93959C"/>
</svg>
