<svg width="20" height="20" viewBox="0 0 20 20" fill="none" xmlns="http://www.w3.org/2000/svg">
<path fill-rule="evenodd" clip-rule="evenodd" d="M13.451 3.5H6.549C6.13971 3.50022 5.73819 3.61373 5.39035 3.82779C5.04287 4.04162 4.76232 4.34731 4.58017 4.71055L4.5796 4.71168L2.07937 9.66676C2.02718 9.77021 2 9.88431 2 10V14.3168C2 14.8958 2.23179 15.4511 2.64437 15.8606C3.05694 16.27 3.61652 16.5 4.2 16.5H15.8C16.3835 16.5 16.9431 16.27 17.3556 15.8606C17.7682 15.4511 18 14.8958 18 14.3168V10C18 9.88431 17.9728 9.77021 17.9206 9.66676L15.4204 4.71168L15.4198 4.71054C15.2377 4.34731 14.9571 4.04162 14.6096 3.82779C14.2618 3.61373 13.8603 3.50022 13.451 3.5ZM5.92188 5.37612L5.25125 5.04288L5.9229 5.37408C5.98085 5.25835 6.07019 5.16095 6.18086 5.09285C6.29149 5.02477 6.41905 4.98865 6.54922 4.98855H13.4508C13.5809 4.98865 13.7085 5.02477 13.8191 5.09285C13.9298 5.16095 14.0191 5.25835 14.0771 5.37408L14.0781 5.37612L16.0357 9.25577H12.9C12.6492 9.25577 12.4151 9.38014 12.276 9.5872L11.0486 11.4142H8.95139L7.72404 9.5872C7.58494 9.38014 7.35077 9.25577 7.1 9.25577H3.96429L5.92188 5.37612ZM3.5 10.7443V14.3168C3.5 14.501 3.57375 14.6777 3.70503 14.808C3.8363 14.9383 4.01435 15.0115 4.2 15.0115H15.8C15.9857 15.0115 16.1637 14.9383 16.295 14.808C16.4263 14.6777 16.5 14.501 16.5 14.3168V10.7443H13.3014L12.074 12.5713C11.9349 12.7784 11.7008 12.9027 11.45 12.9027H8.55C8.29924 12.9027 8.06506 12.7784 7.92596 12.5713L6.69861 10.7443H3.5Z" fill="#93959C"/>
</svg>
