<svg width="20" height="20" viewBox="0 0 20 20" fill="none" xmlns="http://www.w3.org/2000/svg">
<path fill-rule="evenodd" clip-rule="evenodd" d="M13.0235 2.00027H14.5094C15.0617 2.00027 15.5094 2.44799 15.5094 3.00027C15.5094 3.55256 15.0617 4.00027 14.5094 4.00027H13.693L9.193 16.0003H9.9375C10.4898 16.0003 10.9375 16.448 10.9375 17.0003C10.9375 17.5526 10.4898 18.0003 9.9375 18.0003H7.77287C7.75756 18.0006 7.74221 18.0006 7.72682 18.0003H6C5.44772 18.0003 5 17.5526 5 17.0003C5 16.448 5.44772 16.0003 6 16.0003H7.05699L11.557 4.00027H10.8125C10.2602 4.00027 9.8125 3.55256 9.8125 3.00027C9.8125 2.44799 10.2602 2.00027 10.8125 2.00027H12.9768C12.9923 1.99991 13.0079 1.99991 13.0235 2.00027Z" fill="#93959C"/>
</svg>
