<svg width="22" height="22" viewBox="0 0 22 22" fill="none" xmlns="http://www.w3.org/2000/svg">
<path d="M11 21C16.5228 21 21 16.5228 21 11C21 5.47715 16.5228 1 11 1C5.47715 1 1 5.47715 1 11C1 16.5228 5.47715 21 11 21Z" fill="#FFD93B"/>
<path d="M21 11C21 16.525 16.5219 21 11 21C7.85626 21 5.05001 19.55 3.21564 17.2781C4.93126 18.6656 7.11564 19.4938 9.49376 19.4938C15.0156 19.4938 19.4938 15.0188 19.4938 9.49376C19.4938 7.11564 18.6656 4.93126 17.2781 3.21564C19.5469 5.05001 21 7.85626 21 11Z" fill="#F4C534"/>
<path d="M17.6011 10.5431C18.0379 11.3775 12.3123 12.5456 11.853 11.5818C11.7323 11.2712 12.3129 10.9112 13.9123 10.0681C15.1154 9.43371 16.2742 8.97058 16.4698 9.18809C16.6292 9.36559 15.9179 10.1887 14.9692 10.6993C16.3511 10.4731 17.4742 10.2887 17.6011 10.5431Z" fill="#3E4347"/>
<path d="M17.8042 7.36495C17.2211 7.2512 16.5536 7.11495 15.5467 7.25495C14.8955 7.34995 14.2874 7.56433 13.7661 7.87183C13.0661 8.29183 12.7367 8.6962 12.4492 9.17058C12.3873 9.2737 12.2248 9.23995 12.218 9.11995C12.1823 8.48995 12.5123 7.53245 13.4361 6.96183C13.4886 6.9262 13.543 6.89433 13.5992 6.86308C13.9611 6.66495 14.3761 6.52495 14.8142 6.45745C15.8886 6.2837 17.0367 6.47495 17.9111 7.15808C18.0299 7.25183 17.9524 7.3962 17.8042 7.36495Z" fill="#3E4347"/>
<path d="M4.3987 10.5431C3.96183 11.3775 9.68745 12.5456 10.1468 11.5818C10.2675 11.2712 9.68683 10.9112 8.08745 10.0681C6.88433 9.43371 5.72558 8.97058 5.52995 9.18809C5.37058 9.36559 6.08183 10.1887 7.03058 10.6993C5.64933 10.4731 4.5262 10.2887 4.3987 10.5431Z" fill="#3E4347"/>
<path d="M4.19558 7.36487C4.7787 7.25112 5.4462 7.11487 6.45308 7.25487C7.10433 7.34987 7.71245 7.56424 8.2337 7.87175C8.9337 8.29175 9.26308 8.69612 9.55058 9.1705C9.61183 9.27362 9.77495 9.23987 9.78183 9.11987C9.81745 8.48987 9.48745 7.53237 8.5637 6.96174C8.5112 6.92612 8.45683 6.89424 8.40058 6.86299C8.0387 6.66487 7.62308 6.52487 7.18558 6.45737C6.1112 6.28424 4.96308 6.47549 4.0887 7.15799C3.96995 7.25174 4.04745 7.39612 4.19558 7.36487Z" fill="#3E4347"/>
<path d="M16.377 15.5144C15.0563 17.5412 13.137 18.8125 10.9988 18.8125C8.86008 18.8125 6.94133 17.5406 5.6257 15.5144C5.52945 15.3669 5.65258 15.1737 5.8182 15.2019C9.26633 15.815 12.7257 15.815 16.1845 15.2019C16.3501 15.1737 16.4732 15.3662 16.377 15.5144Z" fill="#3E4347"/>
<path d="M15.975 15.2344C12.6557 15.7987 9.33629 15.7994 6.02692 15.2344L6.53879 15.8612C6.72629 16.0912 6.98941 16.245 7.27316 16.2862C9.84629 16.6644 12.1488 16.6644 14.7282 16.2862C15.0125 16.2444 15.275 16.0912 15.4632 15.8612L15.975 15.2344Z" fill="white"/>
<path d="M13.6932 18.08V18.0969C12.8644 18.5569 11.9501 18.8125 10.9988 18.8125C10.0469 18.8125 9.14381 18.5625 8.31506 18.1031C8.37944 17.4619 9.12756 16.9675 10.0419 16.9675C10.3469 16.9675 10.6301 17.0188 10.8757 17.1206C11.1694 16.95 11.5494 16.8538 11.9557 16.8538C12.9126 16.8538 13.6932 17.4044 13.6932 18.08Z" fill="#E24B4B"/>
<g opacity="0.3">
<path opacity="0.3" d="M12.9099 17.5569C12.8449 17.7113 12.5043 17.7782 12.1493 17.7063C11.7943 17.6288 11.5624 17.4438 11.6274 17.2844C11.6924 17.13 12.0331 17.0632 12.388 17.135C12.7362 17.2119 12.9749 17.3975 12.9099 17.5569Z" fill="white"/>
</g>
</svg>
