<svg width="16" height="14" viewBox="0 0 16 14" fill="none" xmlns="http://www.w3.org/2000/svg">
<path fill-rule="evenodd" clip-rule="evenodd" d="M9.6852 0.344356C10.2394 0.117034 10.8335 0 11.4335 0C12.0335 0 12.6276 0.117034 13.1818 0.344356C13.7359 0.571632 14.2392 0.904667 14.663 1.32432C15.087 1.7439 15.4232 2.24193 15.6526 2.78992C15.882 3.33791 16 3.92518 16 4.5182C16 5.11123 15.882 5.6985 15.6526 6.24648C15.4232 6.79447 15.087 7.2925 14.663 7.71208L8.53099 13.7824C8.39027 13.9217 8.19914 14 7.99981 14C7.80049 14 7.60936 13.9217 7.46864 13.7824L1.33654 7.71195C0.480491 6.86452 0 5.71564 0 4.5182C0 3.32076 0.480491 2.17189 1.33654 1.32445C2.19266 0.476929 3.35433 0.000367253 4.56612 0.000367253C5.7779 0.000367194 6.93957 0.476929 7.79569 1.32445L7.99981 1.52652L8.20381 1.32457C8.20385 1.32453 8.20377 1.32461 8.20381 1.32457C8.62762 0.904855 9.13106 0.571654 9.6852 0.344356ZM13.6006 2.36929C13.3159 2.08726 12.9779 1.86366 12.6061 1.71115C12.2343 1.55864 11.8358 1.48018 11.4335 1.48018C11.0312 1.48018 10.6328 1.55864 10.261 1.71115C9.88914 1.86366 9.55117 2.08726 9.26641 2.36929L8.53099 3.09732C8.39027 3.23662 8.19914 3.31492 7.99981 3.31492C7.80049 3.31492 7.60936 3.23662 7.46864 3.09732L6.73334 2.36942C6.15815 1.8 5.37853 1.48054 4.56612 1.48054C3.75371 1.48054 2.97409 1.8 2.39889 2.36942C1.82362 2.93891 1.5 3.7118 1.5 4.5182C1.5 5.3246 1.82362 6.0975 2.39889 6.66699L7.99981 12.2116L13.6007 6.66699C13.8856 6.38508 14.1119 6.05013 14.2662 5.68142C14.4205 5.31272 14.5 4.91744 14.5 4.5182C14.5 4.11896 14.4205 3.72368 14.2662 3.35498C14.1119 2.98627 13.8855 2.65119 13.6006 2.36929Z" fill="white"/>
</svg>
