<svg width="20" height="20" viewBox="0 0 20 20" fill="none" xmlns="http://www.w3.org/2000/svg">
<path fill-rule="evenodd" clip-rule="evenodd" d="M13.4787 2.00017C12.2828 1.98982 11.1307 2.44759 10.2705 3.27489L8.95289 4.57922C8.65789 4.87125 8.6565 5.34613 8.94978 5.63987C9.24306 5.93362 9.71995 5.935 10.0149 5.64296L11.3207 4.35027C11.8964 3.79845 12.6664 3.4932 13.4656 3.50011C14.2665 3.50705 15.0326 3.82693 15.599 4.39087C16.1653 4.95481 16.4865 5.71769 16.4935 6.51519C16.5005 7.31065 16.1942 8.07706 15.6405 8.65024L13.3606 10.9205C13.0509 11.2289 12.6783 11.4675 12.2679 11.6199C11.8575 11.7723 11.419 11.8351 10.9821 11.8039C10.5452 11.7728 10.1202 11.6484 9.73579 11.4393C9.35141 11.2302 9.01669 10.9412 8.75433 10.592C8.50517 10.2603 8.03316 10.1925 7.70006 10.4406C7.36697 10.6887 7.29892 11.1587 7.54808 11.4904C7.93982 12.0119 8.43961 12.4434 9.01355 12.7557C9.58749 13.0679 10.2222 13.2536 10.8745 13.3001C11.5268 13.3466 12.1816 13.2529 12.7944 13.0253C13.4071 12.7977 13.9636 12.4415 14.426 11.9809L16.7106 9.70612L16.7197 9.69674C17.5505 8.84019 18.0102 7.69296 17.9998 6.50216C17.9894 5.31136 17.5098 4.17227 16.6641 3.33021C15.8185 2.48816 14.6746 2.01052 13.4787 2.00017ZM9.12549 6.6999C8.47315 6.65337 7.81839 6.7471 7.20562 6.97471C6.59289 7.20231 6.03639 7.55855 5.57403 8.01909L3.2894 10.2939L3.28031 10.3033C2.4495 11.1598 1.98978 12.307 2.00017 13.4978C2.01056 14.6886 2.49023 15.8277 3.33587 16.6698C4.1815 17.5119 5.32544 17.9895 6.5213 17.9998C7.71716 18.0102 8.86934 17.5525 9.72954 16.7252L11.041 15.4192C11.3352 15.1264 11.3352 14.6515 11.041 14.3586C10.7469 14.0657 10.27 14.0657 9.97588 14.3586L8.67853 15.6505C8.10291 16.2018 7.33323 16.5068 6.53439 16.4999C5.7335 16.493 4.96738 16.1731 4.40104 15.6091C3.8347 15.0452 3.51345 14.2823 3.50649 13.4848C3.49955 12.6894 3.80583 11.9229 4.35954 11.3498L6.6394 9.07956C6.94906 8.77109 7.32172 8.53255 7.7321 8.38011C8.14249 8.22768 8.581 8.16491 9.01789 8.19606C9.45477 8.22722 9.87982 8.35157 10.2642 8.56069C10.6486 8.76981 10.9833 9.05879 11.2457 9.40805C11.4948 9.73974 11.9668 9.8075 12.2999 9.55939C12.633 9.31129 12.7011 8.84127 12.4519 8.50958C12.0602 7.98809 11.5604 7.55658 10.9864 7.24434C10.4125 6.9321 9.77784 6.74642 9.12549 6.6999Z" fill="#93959C"/>
</svg>
