<svg width="20" height="20" viewBox="0 0 20 20" fill="none" xmlns="http://www.w3.org/2000/svg">
<path fill-rule="evenodd" clip-rule="evenodd" d="M5.25204 4.75C5.25204 4.33579 5.58783 4 6.00204 4H17.25C17.6642 4 18 4.33579 18 4.75C18 5.16421 17.6642 5.5 17.25 5.5H6.00204C5.58783 5.5 5.25204 5.16421 5.25204 4.75Z" fill="#93959C"/>
<path fill-rule="evenodd" clip-rule="evenodd" d="M5.25204 9.94138C5.25204 9.52716 5.58783 9.19138 6.00204 9.19138H17.25C17.6642 9.19138 18 9.52716 18 9.94138C18 10.3556 17.6642 10.6914 17.25 10.6914H6.00204C5.58783 10.6914 5.25204 10.3556 5.25204 9.94138Z" fill="#93959C"/>
<path fill-rule="evenodd" clip-rule="evenodd" d="M5.25204 15.1327C5.25204 14.7185 5.58783 14.3827 6.00204 14.3827H17.25C17.6642 14.3827 18 14.7185 18 15.1327C18 15.5469 17.6642 15.8827 17.25 15.8827H6.00204C5.58783 15.8827 5.25204 15.5469 5.25204 15.1327Z" fill="#93959C"/>
<path fill-rule="evenodd" clip-rule="evenodd" d="M2 4.75C2 4.33579 2.33579 4 2.75 4H2.75806C3.17227 4 3.50806 4.33579 3.50806 4.75C3.50806 5.16421 3.17227 5.5 2.75806 5.5H2.75C2.33579 5.5 2 5.16421 2 4.75Z" fill="#93959C"/>
<path fill-rule="evenodd" clip-rule="evenodd" d="M2 9.94138C2 9.52716 2.33579 9.19138 2.75 9.19138H2.75806C3.17227 9.19138 3.50806 9.52716 3.50806 9.94138C3.50806 10.3556 3.17227 10.6914 2.75806 10.6914H2.75C2.33579 10.6914 2 10.3556 2 9.94138Z" fill="#93959C"/>
<path fill-rule="evenodd" clip-rule="evenodd" d="M2 15.1327C2 14.7185 2.33579 14.3827 2.75 14.3827H2.75806C3.17227 14.3827 3.50806 14.7185 3.50806 15.1327C3.50806 15.5469 3.17227 15.8827 2.75806 15.8827H2.75C2.33579 15.8827 2 15.5469 2 15.1327Z" fill="#93959C"/>
</svg>
