<svg width="20" height="20" viewBox="0 0 20 20" fill="none" xmlns="http://www.w3.org/2000/svg">
<path fill-rule="evenodd" clip-rule="evenodd" d="M7.36363 3C7.22344 3 7.09224 3.03846 6.97999 3.10541L2.3779 5.73518C2.14421 5.86871 2 6.11722 2 6.38636V16.9318C2 17.1992 2.14232 17.4463 2.37355 17.5805C2.60479 17.7147 2.88998 17.7156 3.1221 17.583L7.38724 15.1458L12.2879 17.5961C12.3835 17.6463 12.4912 17.6766 12.6055 17.6812C12.625 17.682 12.6446 17.682 12.6641 17.6813C12.7937 17.6766 12.9149 17.639 13.0196 17.5767L17.6221 14.9466C17.8558 14.8131 18 14.5646 18 14.2955V3.75C18 3.48265 17.8577 3.23551 17.6264 3.10132C17.3952 2.96713 17.11 2.96617 16.8779 3.09882L12.6128 5.53604L7.71246 3.08589C7.60999 3.03195 7.49351 3.00104 7.36991 3.00003L7.36363 3ZM13.3864 15.6394L16.5 13.8602V5.04238L13.3864 6.8216V15.6394ZM11.8864 6.84989L8.11363 4.96352V13.8319L11.8864 15.7183V6.84989ZM3.5 6.82161L6.61363 5.04239V13.8602L3.5 15.6394V6.82161Z" fill="#93959C"/>
</svg>
