<svg width="26" height="26" viewBox="0 0 26 26" fill="none" xmlns="http://www.w3.org/2000/svg">
<path fill-rule="evenodd" clip-rule="evenodd" d="M12.9998 18.85C14.0768 18.85 14.9498 19.723 14.9498 20.8C14.9498 21.877 14.0768 22.75 12.9998 22.75C11.9228 22.75 11.0498 21.877 11.0498 20.8C11.0498 19.723 11.9228 18.85 12.9998 18.85ZM12.9998 11.05C14.0768 11.05 14.9498 11.923 14.9498 13C14.9498 14.077 14.0768 14.95 12.9998 14.95C11.9228 14.95 11.0498 14.077 11.0498 13C11.0498 11.923 11.9228 11.05 12.9998 11.05ZM14.9498 5.2C14.9498 4.12305 14.0768 3.25 12.9998 3.25C11.9228 3.25 11.0498 4.12305 11.0498 5.2C11.0498 6.27696 11.9228 7.15 12.9998 7.15C14.0768 7.15 14.9498 6.27696 14.9498 5.2Z" fill="#93959C"/>
</svg>
