<svg width="20" height="20" viewBox="0 0 20 20" fill="none" xmlns="http://www.w3.org/2000/svg">
<path fill-rule="evenodd" clip-rule="evenodd" d="M8.67697 7.17694V3.5H16.4955V11.3185H12.8185V11.0331H11.3185V11.3185H8.67697V8.67694H8.96234V7.17694H8.67697ZM7.17697 7.17694V3.25C7.17697 2.55964 7.73662 2 8.42697 2H16.7455C17.4358 2 17.9955 2.55964 17.9955 3.25V11.5685C17.9955 12.2589 17.4358 12.8185 16.7455 12.8185H12.8185V14.1393H11.3185V12.8185H8.42697C7.73662 12.8185 7.17697 12.2589 7.17697 11.5685V8.67694H5.85617V7.17694H7.17697ZM4.49722 8.67694H3.5V9.67416H2V8.42694C2 7.73659 2.55964 7.17694 3.25 7.17694H4.49722V8.67694ZM10.3213 8.67694H11.3185V9.67416H12.8185V8.42694C12.8185 7.73659 12.2589 7.17694 11.5685 7.17694H10.3213V8.67694ZM3.5 14.1393V11.0331H2V14.1393H3.5ZM3.5 15.4982V16.4954H4.49722V17.9954H3.25C2.55964 17.9954 2 17.4358 2 16.7454V15.4982H3.5ZM11.3185 15.4982V16.4954H10.3213V17.9954H11.5685C12.2589 17.9954 12.8185 17.4358 12.8185 16.7454V15.4982H11.3185ZM8.96234 16.4954H5.85617V17.9954H8.96234V16.4954Z" fill="#93959C"/>
</svg>
