<svg width="20" height="20" viewBox="0 0 20 20" fill="none" xmlns="http://www.w3.org/2000/svg">
<path fill-rule="evenodd" clip-rule="evenodd" d="M17.7348 2.17774C17.903 2.32024 18 2.52954 18 2.75001V13.2222C18 13.2247 18 13.2272 18 13.2296C17.996 14.9751 16.5798 16.3889 14.8333 16.3889C13.0844 16.3889 11.6667 14.9711 11.6667 13.2222C11.6667 11.4733 13.0844 10.0555 14.8333 10.0555C15.4449 10.0555 16.0159 10.2289 16.5 10.5291V3.63535L8.33334 4.99646V14.8333L8.33333 14.8378C8.3309 16.5847 6.91407 18 5.16667 18C3.41776 18 2 16.5822 2 14.8333C2 13.0844 3.41776 11.6667 5.16667 11.6667C5.7782 11.6667 6.34924 11.84 6.83334 12.1402V4.36112C6.83334 3.99449 7.0984 3.68159 7.46004 3.62132L17.1267 2.01021C17.3442 1.97397 17.5666 2.03524 17.7348 2.17774ZM5.16667 13.1667C4.24619 13.1667 3.5 13.9129 3.5 14.8333C3.5 15.7538 4.24619 16.5 5.16667 16.5C6.08714 16.5 6.83333 15.7538 6.83333 14.8333C6.83333 13.9129 6.08714 13.1667 5.16667 13.1667ZM13.1667 13.2222C13.1667 12.3017 13.9128 11.5555 14.8333 11.5555C15.7538 11.5555 16.5 12.3017 16.5 13.2222C16.5 14.1427 15.7538 14.8889 14.8333 14.8889C13.9128 14.8889 13.1667 14.1427 13.1667 13.2222Z" fill="#93959C"/>
</svg>
