<svg width="22" height="22" viewBox="0 0 22 22" fill="none" xmlns="http://www.w3.org/2000/svg">
<path d="M11 21C16.5228 21 21 16.5228 21 11C21 5.47715 16.5228 1 11 1C5.47715 1 1 5.47715 1 11C1 16.5228 5.47715 21 11 21Z" fill="#FFD93B"/>
<path d="M21 11C21 16.525 16.5219 21 11 21C7.85626 21 5.05001 19.55 3.21564 17.2781C4.93126 18.6656 7.11564 19.4938 9.49376 19.4938C15.0156 19.4938 19.4938 15.0188 19.4938 9.49376C19.4938 7.11564 18.6656 4.93126 17.2781 3.21564C19.5469 5.05001 21 7.85626 21 11Z" fill="#F4C534"/>
<path d="M17.3799 5.98682C17.3799 5.98682 15.1824 2.67057 12.0511 3.75744C12.0505 3.75744 14.6374 0.253691 17.3799 5.98682Z" fill="#3E4347"/>
<path d="M4.65562 6.06312C4.65562 6.06312 6.75 2.68124 9.91375 3.67062C9.91375 3.67062 7.22062 0.248118 4.65562 6.06312Z" fill="#3E4347"/>
<path d="M15.0867 6.49433C13.6338 6.07399 12.1149 6.9119 11.6943 8.36585C11.2737 9.8198 12.1106 11.3392 13.5635 11.7595C15.0165 12.1799 16.5353 11.342 16.9559 9.88802C17.3766 8.43407 16.5397 6.91467 15.0867 6.49433Z" fill="#F4C534"/>
<path d="M12.07 8.47311C11.7931 9.74561 12.5781 11.0712 13.8262 11.4325C15.0744 11.7937 16.3094 11.0525 16.5862 9.77999C16.8631 8.50749 16.0775 7.18561 14.8294 6.82436C13.5812 6.46311 12.3475 7.20061 12.07 8.47311Z" fill="white"/>
<path d="M10.3014 8.36414C9.88079 6.91019 8.36195 6.07228 6.909 6.49262C5.45604 6.91296 4.61917 8.43237 5.0398 9.88631C5.46042 11.3403 6.97926 12.1782 8.43221 11.7578C9.88517 11.3375 10.722 9.81809 10.3014 8.36414Z" fill="#F4C534"/>
<path d="M9.93 8.47311C10.2069 9.74561 9.42187 11.0712 8.17375 11.4325C6.92562 11.7937 5.69062 11.0525 5.41375 9.77999C5.13687 8.50749 5.9225 7.18561 7.17062 6.82436C8.41875 6.46311 9.6525 7.20061 9.93 8.47311Z" fill="white"/>
<path d="M7.67671 17.5224C7.77359 17.4312 7.87234 17.3418 7.97296 17.2537C7.96546 17.4293 7.95921 17.6043 7.95546 17.7793C8.10296 17.7431 8.25109 17.7093 8.39984 17.6793C8.36546 17.8106 8.33296 17.9424 8.30234 18.0743C8.45171 17.9487 8.60609 17.8268 8.76421 17.7074C8.67359 17.8881 8.58733 18.0699 8.50671 18.2518C8.61921 18.2581 8.73109 18.2668 8.84296 18.2762C8.84296 18.2781 8.82921 18.4049 8.81546 18.5124C8.91046 18.3881 9.02296 18.2537 9.02484 18.2431C9.02921 18.2468 9.02171 18.3143 9.01358 18.3999C10.4973 16.9481 12.5623 15.7862 15.0473 15.2637C15.1298 15.1406 15.2136 15.0181 15.2986 14.8956C15.118 14.8437 14.9361 14.7949 14.7536 14.7493C14.858 14.6506 14.9636 14.5524 15.0717 14.4556C14.8267 14.4812 14.5848 14.5137 14.3455 14.5512C14.5323 14.4274 14.7236 14.3074 14.9192 14.1912C14.7836 14.1256 14.6461 14.0618 14.508 13.9993C14.508 13.9974 14.5867 13.8881 14.6573 13.8012C14.4692 13.8649 14.2648 13.9387 14.2548 13.9412C14.2505 13.9356 14.4361 13.6724 14.518 13.5481C14.4542 13.5531 14.3911 13.5587 14.3273 13.5649C14.3442 13.4674 14.3605 13.3706 14.3773 13.2731C11.4067 13.9824 8.97796 15.4962 7.29984 17.3468C7.41984 17.2737 7.54109 17.2024 7.66421 17.1331C7.66796 17.2631 7.67171 17.3931 7.67671 17.5224Z" fill="white"/>
<path d="M7.41983 13.8843C7.57546 13.9193 7.72921 13.9556 7.88171 13.9949C7.64858 14.0743 7.41796 14.1581 7.18921 14.2474C7.29671 14.3506 7.40233 14.4556 7.50671 14.5606C7.32671 14.6024 7.14671 14.6474 6.96733 14.6962C7.19483 14.7506 7.41858 14.8093 7.63921 14.8731C7.37608 14.8974 7.11296 14.9287 6.84858 14.9668C6.89796 15.0643 6.94671 15.1618 6.99546 15.2593C6.99546 15.2587 6.83421 15.3262 6.70108 15.3768C6.90233 15.3806 7.12108 15.3943 7.13358 15.3887C7.13108 15.3937 7.04733 15.4299 6.94483 15.4731C9.47858 15.8256 11.638 16.8556 13.2386 18.2193C13.3892 18.2199 13.5398 18.2237 13.6917 18.2299C13.6611 18.0949 13.6292 17.9606 13.5948 17.8262C13.7355 17.8568 13.8761 17.8899 14.0161 17.9249C13.888 17.7774 13.7555 17.6324 13.618 17.4893C13.8198 17.5674 14.0198 17.6518 14.2161 17.7406C14.2273 17.6324 14.238 17.5243 14.248 17.4168C14.2473 17.4181 14.3942 17.4349 14.513 17.4568C14.3742 17.3531 14.2173 17.2412 14.2111 17.2343C14.2161 17.2274 14.563 17.2768 14.7286 17.2999C14.6992 17.2599 14.6698 17.2199 14.6398 17.1806C14.7505 17.1674 14.8623 17.1556 14.9748 17.1449C13.1417 15.3712 10.5811 13.9999 7.53296 13.4874C7.66921 13.5518 7.80358 13.6181 7.93608 13.6862C7.76233 13.7493 7.59046 13.8156 7.41983 13.8843Z" fill="white"/>
<path d="M15.0395 8.40968C14.5523 7.92251 13.7619 7.9231 13.274 8.41101C12.7861 8.89891 12.7855 9.68937 13.2726 10.1765C13.7598 10.6637 14.5503 10.6631 15.0382 10.1752C15.5261 9.68731 15.5267 8.89686 15.0395 8.40968Z" fill="#3E4347"/>
<path d="M13.9326 8.5227C13.8372 8.42727 13.6369 8.47278 13.4854 8.62435C13.3338 8.77592 13.2883 8.97615 13.3837 9.07159C13.4792 9.16702 13.6794 9.12151 13.831 8.96994C13.9825 8.81837 14.028 8.61813 13.9326 8.5227Z" fill="#5A5F63"/>
<path d="M8.72625 8.41157C8.23859 7.92391 7.44833 7.92351 6.96116 8.41069C6.47398 8.89786 6.47438 9.68812 6.96204 10.1758C7.4497 10.6634 8.23996 10.6638 8.72714 10.1767C9.21431 9.6895 9.21392 8.89923 8.72625 8.41157Z" fill="#3E4347"/>
<path d="M8.51491 8.62404C8.36334 8.47247 8.1631 8.42696 8.06767 8.5224C7.97223 8.61783 8.01774 8.81807 8.16931 8.96964C8.32088 9.12121 8.52112 9.16672 8.61655 9.07128C8.71199 8.97585 8.66648 8.77561 8.51491 8.62404Z" fill="#5A5F63"/>
</svg>
