<svg width="22" height="22" viewBox="0 0 22 22" fill="none" xmlns="http://www.w3.org/2000/svg">
<path d="M11 21C16.5228 21 21 16.5228 21 11C21 5.47715 16.5228 1 11 1C5.47715 1 1 5.47715 1 11C1 16.5228 5.47715 21 11 21Z" fill="#FFD93B"/>
<path d="M20.9525 11C20.9525 16.525 16.4743 21 10.9525 21C7.80872 21 5.00247 19.55 3.16809 17.2781C4.88372 18.6656 7.06809 19.4938 9.44622 19.4938C14.9681 19.4938 19.4462 15.0188 19.4462 9.49376C19.4462 7.11564 18.6181 4.93126 17.2306 3.21564C19.4993 5.05001 20.9525 7.85626 20.9525 11Z" fill="#F4C534"/>
<path d="M10.1956 9.1519C10.1956 10.8632 8.81188 12.2525 7.09501 12.2525C5.38376 12.2525 3.99438 10.8625 3.99438 9.1519C3.99438 7.43503 5.38376 6.04565 7.09501 6.04565C8.81188 6.04565 10.1956 7.43565 10.1956 9.1519Z" fill="white"/>
<path d="M18.0056 9.1519C18.0056 10.8632 16.6219 12.2525 14.905 12.2525C13.1944 12.2525 11.8044 10.8625 11.8044 9.1519C11.8044 7.43503 13.1944 6.04565 14.905 6.04565C16.6219 6.04565 18.0056 7.43565 18.0056 9.1519Z" fill="white"/>
<path d="M19.9544 8.6806H18.4113C18.18 6.94872 16.6969 5.60809 14.905 5.60809C13.5788 5.60809 12.4225 6.34309 11.8175 7.42685C11.6531 7.72122 11.3425 7.89247 11.0056 7.8906C11.0038 7.8906 11.0019 7.8906 10.9994 7.8906C10.9963 7.8906 10.9938 7.8906 10.9906 7.89122C10.655 7.89372 10.3456 7.72122 10.1825 7.42872C9.57751 6.34434 8.42126 5.60872 7.09501 5.60872C5.30376 5.60872 3.82376 6.94997 3.59189 8.68122H2.04376V9.61873H3.60314C3.82064 11.2362 5.13501 12.5381 6.79064 12.6781C8.88564 12.8556 10.675 11.185 10.6306 9.07873C10.6663 8.90247 10.815 8.76748 11.0006 8.76748C11.1906 8.76748 11.3669 8.90435 11.3669 9.1531C11.3669 11.1956 13.1069 12.84 15.1831 12.6806C16.8444 12.5531 18.1844 11.2537 18.4006 9.61873H19.9544V8.6806ZM7.09501 11.8144C5.62689 11.8144 4.43189 10.6194 4.43189 9.15185C4.43189 7.6806 5.62626 6.48372 7.09501 6.48372C8.56314 6.48372 9.75751 7.6806 9.75751 9.15185C9.75751 10.62 8.56314 11.8144 7.09501 11.8144ZM14.905 11.8144C13.4369 11.8144 12.2419 10.6194 12.2419 9.15185C12.2419 7.6806 13.4363 6.48372 14.905 6.48372C16.3731 6.48372 17.5675 7.6806 17.5675 9.15185C17.5675 10.62 16.3731 11.8144 14.905 11.8144Z" fill="#3E4347"/>
<path d="M15.3094 9.15058C15.3094 9.80246 14.785 10.3393 14.125 10.3393C13.4732 10.3393 12.9407 9.80246 12.9407 9.15058C12.9407 8.49496 13.4738 7.95746 14.125 7.95746C14.785 7.95808 15.3094 8.49496 15.3094 9.15058Z" fill="#3E4347"/>
<path d="M14.7268 8.54666C14.5743 8.39411 14.3652 8.35593 14.2597 8.46137C14.1543 8.56681 14.1925 8.77595 14.345 8.9285C14.4976 9.08105 14.7067 9.11923 14.8121 9.01379C14.9176 8.90835 14.8794 8.69921 14.7268 8.54666Z" fill="white"/>
<path d="M9.05942 9.15064C9.05942 9.80252 8.53442 10.3394 7.87505 10.3394C7.22317 10.3394 6.69067 9.80252 6.69067 9.15064C6.69067 8.49502 7.2238 7.95752 7.87505 7.95752C8.53505 7.95814 9.05942 8.49502 9.05942 9.15064Z" fill="#3E4347"/>
<path d="M8.47739 8.54593C8.32484 8.39338 8.1157 8.35519 8.01026 8.46064C7.90482 8.56608 7.943 8.77522 8.09555 8.92777C8.2481 9.08031 8.45724 9.1185 8.56268 9.01306C8.66812 8.90762 8.62994 8.69848 8.47739 8.54593Z" fill="white"/>
<path d="M9.12007 3.68878C9.12007 3.93191 8.90882 4.15253 8.62695 4.08941C7.9257 3.93253 7.21383 3.93566 6.49258 4.08628C6.2282 4.14128 5.98633 3.96066 5.98633 3.68878C5.98633 3.46065 6.16883 3.27065 6.39695 3.27065C7.14508 3.1219 7.9132 3.12003 8.70132 3.27065C8.93757 3.27065 9.12007 3.46128 9.12007 3.68878Z" fill="#3E4347"/>
<path d="M16.0138 3.68878C16.0138 3.93191 15.8026 4.15253 15.5213 4.08941C14.8201 3.93253 14.1082 3.93566 13.3863 4.08628C13.122 4.14128 12.8801 3.96066 12.8801 3.68878C12.8801 3.46065 13.0626 3.27065 13.2907 3.27065C14.0388 3.1219 14.807 3.12003 15.5951 3.27065C15.8313 3.27065 16.0138 3.46128 16.0138 3.68878Z" fill="#3E4347"/>
<path d="M14.6694 16.085C14.6981 19.9569 7.30251 19.9688 7.33126 16.0794C7.30251 12.2069 14.6981 12.2069 14.6694 16.085Z" fill="#3E4347"/>
<path d="M13.9219 15.3681C13.4594 14.4038 12.4394 13.74 11.0007 13.7544C9.56191 13.74 8.54191 14.4038 8.07941 15.3681C10.0182 15.09 11.965 15.0894 13.9219 15.3681Z" fill="white"/>
</svg>
