<svg width="22" height="22" viewBox="0 0 22 22" fill="none" xmlns="http://www.w3.org/2000/svg">
<path d="M11 21C16.5228 21 21 16.5228 21 11C21 5.47715 16.5228 1 11 1C5.47715 1 1 5.47715 1 11C1 16.5228 5.47715 21 11 21Z" fill="#FFD93B"/>
<path d="M20.9526 11C20.9526 16.525 16.4745 21 10.9526 21C7.80884 21 5.00259 19.55 3.16821 17.2781C4.88384 18.6656 7.06821 19.4938 9.44634 19.4938C14.9682 19.4938 19.4463 15.0188 19.4463 9.49376C19.4463 7.11564 18.6182 4.93126 17.2307 3.21564C19.4995 5.05001 20.9526 7.85626 20.9526 11Z" fill="#F4C534"/>
<path d="M10.1956 9.14562C10.1956 10.8562 8.81188 12.2462 7.09501 12.2462C5.38438 12.2462 3.99438 10.8562 3.99438 9.14562C3.99438 7.42874 5.38438 6.03937 7.09501 6.03937C8.81188 6.03937 10.1956 7.42937 10.1956 9.14562Z" fill="white"/>
<path d="M18.0056 9.14562C18.0056 10.8562 16.6219 12.2462 14.905 12.2462C13.1944 12.2462 11.8044 10.8562 11.8044 9.14562C11.8044 7.42874 13.1937 6.03937 14.905 6.03937C16.6219 6.03937 18.0056 7.42937 18.0056 9.14562Z" fill="white"/>
<path d="M19.9544 8.67435H18.4113C18.18 6.94248 16.6969 5.60248 14.905 5.60248C13.5788 5.60248 12.4225 6.33748 11.8175 7.42122C11.6531 7.7156 11.3425 7.88685 11.0056 7.88497C11.0038 7.88497 11.0019 7.88497 10.9994 7.88497C10.9963 7.88497 10.9938 7.88497 10.9906 7.88497C10.655 7.88747 10.3456 7.7156 10.1825 7.42247C9.57751 6.3381 8.42126 5.60248 7.09501 5.60248C5.30376 5.60248 3.82376 6.94373 3.59189 8.67435H2.04376V9.61185H3.60251C3.82001 11.2293 5.13439 12.5312 6.79001 12.6712C8.88501 12.8487 10.6744 11.1781 10.6294 9.07185C10.665 8.8956 10.8138 8.7606 10.9994 8.7606C11.1894 8.7606 11.3656 8.89747 11.3656 9.14622C11.3656 11.1887 13.1063 12.8331 15.1819 12.6737C16.8431 12.5462 18.1831 11.2468 18.3994 9.61185H19.9531V8.67435H19.9544ZM7.09501 11.8081C5.62689 11.8081 4.43189 10.6131 4.43189 9.1456C4.43189 7.67435 5.62626 6.47748 7.09501 6.47748C8.56314 6.47748 9.75751 7.67435 9.75751 9.1456C9.75751 10.6137 8.56314 11.8081 7.09501 11.8081ZM14.905 11.8081C13.4369 11.8081 12.2419 10.6131 12.2419 9.1456C12.2419 7.67435 13.4363 6.47748 14.905 6.47748C16.3731 6.47748 17.5675 7.67435 17.5675 9.1456C17.5675 10.6137 16.3731 11.8081 14.905 11.8081Z" fill="#3E4347"/>
<path d="M15.3094 9.14436C15.3094 9.79623 14.785 10.3331 14.125 10.3331C13.4732 10.3331 12.9407 9.79623 12.9407 9.14436C12.9407 8.48873 13.4738 7.95123 14.125 7.95123C14.785 7.95186 15.3094 8.48873 15.3094 9.14436Z" fill="#3E4347"/>
<path d="M14.7276 8.54031C14.575 8.38777 14.3659 8.34958 14.2604 8.45502C14.155 8.56046 14.1932 8.7696 14.3457 8.92215C14.4983 9.0747 14.7074 9.11289 14.8129 9.00745C14.9183 8.902 14.8801 8.69286 14.7276 8.54031Z" fill="white"/>
<path d="M9.05942 9.14436C9.05942 9.79623 8.53505 10.3331 7.87505 10.3331C7.22317 10.3331 6.69067 9.79623 6.69067 9.14436C6.69067 8.48873 7.2238 7.95123 7.87505 7.95123C8.53505 7.95186 9.05942 8.48873 9.05942 9.14436Z" fill="#3E4347"/>
<path d="M8.47745 8.54031C8.3249 8.38777 8.11576 8.34958 8.01032 8.45502C7.90488 8.56046 7.94307 8.7696 8.09561 8.92215C8.24816 9.0747 8.4573 9.11289 8.56274 9.00745C8.66819 8.902 8.63 8.69286 8.47745 8.54031Z" fill="white"/>
<path d="M16.32 4.50627C14.8556 3.22751 13.0894 3.42564 13.0725 3.42752C12.8506 3.44814 12.6444 3.29501 12.6156 3.07126C12.5875 2.84689 12.7462 2.64251 12.9706 2.61376C13.0575 2.60251 15.1119 2.36189 16.86 3.88814C17.03 4.03689 17.0481 4.29627 16.8994 4.46689C16.75 4.63689 16.4912 4.65502 16.32 4.50627Z" fill="#3E4347"/>
<path d="M5.68009 4.50626C7.14446 3.22751 8.91071 3.42564 8.92821 3.42751C9.15009 3.44814 9.35634 3.29501 9.38509 3.07126C9.41321 2.84689 9.25446 2.64251 9.03071 2.61376C8.94384 2.60251 6.88946 2.36189 5.14134 3.88814C4.97009 4.03751 4.95197 4.29626 5.10134 4.46751C5.25009 4.63689 5.50884 4.65501 5.68009 4.50626Z" fill="#3E4347"/>
<path d="M15.7027 17.9775C12.6339 16.9775 9.49644 16.9837 6.29019 17.99C5.88394 18.115 5.50894 17.74 5.59644 17.3275C6.14019 14.84 8.35269 12.9775 11.0027 12.9775C13.6464 12.9775 15.8527 14.8337 16.4027 17.315C16.4964 17.7337 16.1089 18.1087 15.7027 17.9775Z" fill="#3E4347"/>
<path d="M14.055 17.5507C13.8868 16.8219 13.4662 16.1838 12.8737 15.7482C12.5 15.4688 11.9962 15.4176 11.5675 15.6169C11.1975 15.7826 10.7581 15.8682 10.2475 15.8294L10.2412 15.8288C9.38122 15.7632 8.5181 16.1482 8.15122 16.9288C8.05872 17.1301 7.99122 17.3463 7.94122 17.5707C10.0081 17.1407 12.0456 17.1338 14.055 17.5507Z" fill="#E24B4B"/>
</svg>
