<svg width="22" height="22" viewBox="0 0 22 22" fill="none" xmlns="http://www.w3.org/2000/svg">
<path d="M11.1094 21C16.1403 21 20.2188 16.9216 20.2188 11.8906C20.2188 6.85966 16.1403 2.78125 11.1094 2.78125C6.07841 2.78125 2 6.85966 2 11.8906C2 16.9216 6.07841 21 11.1094 21Z" fill="#FFD93B"/>
<path d="M20.1757 11.8906C20.1757 16.9238 16.0963 21 11.0663 21C8.2026 21 5.64635 19.6794 3.9751 17.6094C5.53822 18.8731 7.5276 19.6275 9.69447 19.6275C14.7245 19.6275 18.8038 15.5513 18.8038 10.5181C18.8038 8.35189 18.0495 6.36189 16.7857 4.79877C18.852 6.47002 20.1757 9.02689 20.1757 11.8906Z" fill="#F4C534"/>
<path d="M10.3769 10.2069C10.3769 11.7656 9.11627 13.0313 7.55252 13.0313C5.99377 13.0313 4.72815 11.7656 4.72815 10.2069C4.72815 8.64314 5.9944 7.37689 7.55252 7.37689C9.11627 7.37752 10.3769 8.64314 10.3769 10.2069Z" fill="white"/>
<path d="M17.4912 10.2069C17.4912 11.7656 16.2306 13.0313 14.6668 13.0313C13.1081 13.0313 11.8425 11.7656 11.8425 10.2069C11.8425 8.64314 13.1087 7.37689 14.6668 7.37689C16.2306 7.37752 17.4912 8.64314 17.4912 10.2069Z" fill="white"/>
<path d="M19.2663 9.77752H17.8607C17.6501 8.20001 16.2988 6.97876 14.6669 6.97876C13.4588 6.97876 12.4057 7.64814 11.8544 8.63564C11.7051 8.90376 11.4219 9.06001 11.1151 9.05814C11.1132 9.05814 11.1113 9.05814 11.1094 9.05814C11.1069 9.05814 11.1038 9.05814 11.1013 9.05814C10.7957 9.06001 10.5138 8.90376 10.3651 8.63689C9.81381 7.64876 8.76068 6.97876 7.55256 6.97876C5.92068 6.97876 4.57256 8.20064 4.36131 9.77752H2.95068V10.6313H4.37068C4.56881 12.105 5.76631 13.2906 7.27443 13.4181C9.18318 13.58 10.8132 12.0581 10.7719 10.1388C10.8044 9.97814 10.9394 9.85502 11.1094 9.85502C11.2826 9.85502 11.4432 9.98002 11.4432 10.2063C11.4432 12.0669 13.0288 13.565 14.9201 13.42C16.4332 13.3038 17.6538 12.12 17.8513 10.6306H19.2669V9.77752H19.2663ZM7.55256 12.6325C6.21506 12.6325 5.12693 11.5444 5.12693 10.2075C5.12693 8.86751 6.21506 7.77689 7.55256 7.77689C8.89006 7.77689 9.97818 8.86751 9.97818 10.2075C9.97756 11.5438 8.89006 12.6325 7.55256 12.6325ZM14.6669 12.6325C13.3294 12.6325 12.2413 11.5444 12.2413 10.2075C12.2413 8.86751 13.3294 7.77689 14.6669 7.77689C16.0044 7.77689 17.0926 8.86751 17.0926 10.2075C17.0926 11.5438 16.0044 12.6325 14.6669 12.6325Z" fill="#3E4347"/>
<path d="M15.0351 10.2056C15.0351 10.7994 14.557 11.2888 13.9557 11.2888C13.362 11.2888 12.8763 10.7994 12.8763 10.2056C12.8763 9.60815 13.362 9.11877 13.9557 9.11877C14.5576 9.1194 15.0351 9.60815 15.0351 10.2056Z" fill="#3E4347"/>
<path d="M14.5096 9.65676C14.3707 9.51788 14.1801 9.48325 14.084 9.57942C13.9878 9.67558 14.0224 9.86613 14.1613 10.005C14.3002 10.1439 14.4907 10.1785 14.5869 10.0823C14.6831 9.98618 14.6484 9.79564 14.5096 9.65676Z" fill="white"/>
<path d="M9.34192 10.2056C9.34192 10.7994 8.86379 11.2888 8.26254 11.2888C7.66879 11.2888 7.18317 10.7994 7.18317 10.2056C7.18317 9.60815 7.66879 9.11877 8.26254 9.11877C8.86379 9.1194 9.34192 9.60815 9.34192 10.2056Z" fill="#3E4347"/>
<path d="M8.81096 9.65902C8.67208 9.52014 8.48154 9.48552 8.38537 9.58168C8.28921 9.67785 8.32383 9.86839 8.46271 10.0073C8.60159 10.1461 8.79213 10.1808 8.88829 10.0846C8.98446 9.98844 8.94983 9.7979 8.81096 9.65902Z" fill="white"/>
<path d="M12.8257 2.89062C12.8257 2.405 11.9463 1 11.9463 1C11.9463 1 11.067 2.405 11.067 2.89062C11.067 3.37625 11.4607 3.77 11.9463 3.77C12.432 3.77 12.8257 3.37625 12.8257 2.89062Z" fill="#65B1EF"/>
<path d="M12.3626 3.33685C12.2295 3.45623 12.0695 3.4881 12.0051 3.41498C11.9407 3.34185 11.9957 3.1906 12.1245 3.07123C12.2576 2.95622 12.4226 2.91997 12.487 2.9931C12.5507 3.06623 12.4957 3.21748 12.3626 3.33685Z" fill="white"/>
<path d="M11.1526 5.1094C11.1526 4.69752 10.4069 3.5069 10.4069 3.5069C10.4069 3.5069 9.66132 4.69815 9.66132 5.1094C9.66132 5.52127 9.99506 5.85502 10.4069 5.85502C10.8188 5.85502 11.1526 5.52127 11.1526 5.1094Z" fill="#65B1EF"/>
<path d="M10.7601 5.48748C10.6476 5.58873 10.5113 5.61561 10.4569 5.55373C10.4026 5.49186 10.4494 5.36311 10.5582 5.26248C10.6707 5.16561 10.8107 5.13436 10.8651 5.19623C10.9194 5.25811 10.8732 5.38623 10.7601 5.48748Z" fill="white"/>
<path d="M16.1432 5.72936C16.1432 5.72936 13.9488 5.94874 12.67 3.96936C12.6707 3.96936 13.1825 7.64874 16.1432 5.72936Z" fill="#3E4347"/>
<path d="M6.07568 5.72936C6.07568 5.72936 8.27006 5.94874 9.54881 3.96936C9.54818 3.96936 9.03631 7.64874 6.07568 5.72936Z" fill="#3E4347"/>
<path d="M14.6463 17.95C14.597 18.3512 14.1551 18.5718 13.7901 18.405C12.0138 17.5756 10.2288 17.5937 8.4307 18.4137C8.06132 18.5806 7.6282 18.355 7.57445 17.9587C7.30382 15.885 8.92195 13.9468 11.1126 13.9468C13.2982 13.9475 14.912 15.8768 14.6463 17.95Z" fill="#3E4347"/>
<path d="M13.1964 18.1637C13.1801 17.5806 12.9314 17.0568 12.5283 16.6893C12.2833 16.4625 11.9214 16.4318 11.6151 16.5668C11.3945 16.6587 11.1489 16.7137 10.867 16.7137C10.7751 16.7137 10.6895 16.7075 10.6033 16.6956C10.0208 16.6225 9.42013 16.855 9.187 17.3887C9.082 17.6337 9.02763 17.9 9.02075 18.1781C10.4195 17.6762 11.8108 17.6643 13.1964 18.1637Z" fill="#E24B4B"/>
</svg>
