<svg width="22" height="22" viewBox="0 0 22 22" fill="none" xmlns="http://www.w3.org/2000/svg">
<path d="M11 21C16.5228 21 21 16.5228 21 11C21 5.47715 16.5228 1 11 1C5.47715 1 1 5.47715 1 11C1 16.5228 5.47715 21 11 21Z" fill="#FFD93B"/>
<path d="M21 11C21 16.525 16.5219 21 11 21C7.85626 21 5.05001 19.55 3.21564 17.2781C4.93126 18.6656 7.11564 19.4938 9.49376 19.4938C15.0156 19.4938 19.4938 15.0188 19.4938 9.49376C19.4938 7.11564 18.6656 4.93126 17.2781 3.21564C19.5469 5.05001 21 7.85626 21 11Z" fill="#F4C534"/>
<path d="M11.5275 10.1007C11.6087 12.2707 13.4387 14.0288 15.6162 14.0288C17.7937 14.0288 19.4918 12.2707 19.4106 10.1007C19.3293 7.93067 17.4994 6.16754 15.3219 6.16754C13.1444 6.16754 11.4462 7.93067 11.5275 10.1007Z" fill="#F4C534"/>
<path d="M12.1713 9.89814C12.0513 11.7175 13.4307 13.2838 15.2519 13.3956C17.0732 13.5075 18.6469 12.1225 18.7669 10.3031C18.8869 8.47814 17.5082 6.91252 15.6869 6.80064C13.865 6.68877 12.2913 8.07314 12.1713 9.89814Z" fill="white"/>
<path d="M12.6624 10.0432C12.6624 10.9119 13.3587 11.6032 14.2224 11.6032C15.0812 11.6032 15.7824 10.9069 15.7874 10.0432C15.7824 9.1794 15.0862 8.48315 14.2224 8.48315C13.3587 8.48315 12.6624 9.18503 12.6624 10.0432Z" fill="#3E4347"/>
<path d="M13.27 9.86001C13.4112 9.99626 13.6575 9.97001 13.83 9.79688C14.0025 9.62438 14.0344 9.37313 13.8981 9.23688C13.7619 9.10063 13.5106 9.12688 13.3381 9.29938C13.165 9.47251 13.1337 9.72376 13.27 9.86001Z" fill="#5A5F63"/>
<path d="M11.9675 6.49937C11.9675 6.49937 13.8812 4.69999 17.2187 4.99437C17.2187 4.99437 12.8018 3.30937 11.9675 6.49937Z" fill="#3E4347"/>
<path d="M10.2081 10.1006C10.1269 12.2706 8.29688 14.0287 6.11938 14.0287C3.94188 14.0287 2.24375 12.2706 2.325 10.1006C2.40625 7.93061 4.23625 6.16748 6.41375 6.16748C8.59125 6.16748 10.2894 7.93061 10.2081 10.1006Z" fill="#F4C534"/>
<path d="M9.5644 9.89814C9.6844 11.7175 8.30502 13.2838 6.48377 13.3956C4.66252 13.5075 3.08877 12.1225 2.96877 10.3031C2.84815 8.47814 4.22752 6.91252 6.04877 6.80064C7.87002 6.68877 9.44377 8.07314 9.5644 9.89814Z" fill="white"/>
<path d="M9.07252 10.0432C9.07252 10.9119 8.37627 11.6032 7.51251 11.6032C6.65376 11.6032 5.95251 10.9069 5.94751 10.0432C5.95251 9.1794 6.64876 8.48315 7.51251 8.48315C8.37627 8.48315 9.07252 9.18503 9.07252 10.0432Z" fill="#3E4347"/>
<path d="M8.46567 9.86001C8.32442 9.99626 8.07817 9.97001 7.90567 9.79688C7.73317 9.62438 7.7013 9.37313 7.83755 9.23688C7.9738 9.10063 8.22505 9.12688 8.39755 9.29938C8.57005 9.47251 8.60192 9.72376 8.46567 9.86001Z" fill="#5A5F63"/>
<path d="M9.76736 6.49937C9.76736 6.49937 7.85361 4.69999 4.51611 4.99437C4.51611 4.99437 8.93299 3.30937 9.76736 6.49937Z" fill="#3E4347"/>
<path d="M15.7692 5.82562C13.6249 5.82562 11.8249 7.31437 11.338 9.31187C11.0392 9.19812 10.6955 9.19812 10.3967 9.3125C9.90986 7.315 8.10986 5.82562 5.96486 5.82562C3.44736 5.82562 1.39923 7.87437 1.39923 10.3912C1.39923 12.9081 3.44798 14.9569 5.96486 14.9569C8.48236 14.9569 10.5305 12.9081 10.5305 10.3912C10.5305 10.0719 10.788 10.0462 10.8674 10.0462C10.9455 10.0462 11.2036 10.0719 11.2036 10.3912C11.2036 12.9087 13.2524 14.9569 15.7692 14.9569C18.2867 14.9569 20.3349 12.9081 20.3349 10.3912C20.3349 7.87437 18.2867 5.82562 15.7692 5.82562ZM5.96486 14.1025C3.91861 14.1025 2.25361 12.4381 2.25361 10.3912C2.25361 8.34437 3.91861 6.68062 5.96486 6.68062C8.01111 6.68062 9.67611 8.345 9.67611 10.3919C9.67611 12.4387 8.01173 14.1025 5.96486 14.1025ZM15.7692 14.1025C13.723 14.1025 12.058 12.4381 12.058 10.3912C12.058 8.34437 13.7224 6.68 15.7692 6.68C17.8161 6.68 19.4805 8.34437 19.4805 10.3912C19.4805 12.4381 17.8161 14.1025 15.7692 14.1025Z" fill="#3E4347"/>
<path d="M10.9998 18.8799C12.0488 18.8799 12.8991 18.1104 12.8991 17.1612C12.8991 16.212 12.0488 15.4424 10.9998 15.4424C9.95077 15.4424 9.1004 16.212 9.1004 17.1612C9.1004 18.1104 9.95077 18.8799 10.9998 18.8799Z" fill="#3E4347"/>
</svg>
