<svg width="22" height="22" viewBox="0 0 22 22" fill="none" xmlns="http://www.w3.org/2000/svg">
<path d="M11 21C16.5228 21 21 16.5228 21 11C21 5.47715 16.5228 1 11 1C5.47715 1 1 5.47715 1 11C1 16.5228 5.47715 21 11 21Z" fill="#FFD93B"/>
<path d="M21 11C21 16.525 16.5219 21 11 21C7.85626 21 5.05001 19.55 3.21564 17.2781C4.93126 18.6656 7.11564 19.4938 9.49376 19.4938C15.0156 19.4938 19.4938 15.0188 19.4938 9.49376C19.4938 7.11564 18.6656 4.93126 17.2781 3.21564C19.5469 5.05001 21 7.85626 21 11Z" fill="#F4C534"/>
<path d="M10.1969 9.65746C10.1969 11.3687 8.81314 12.7581 7.09626 12.7581C5.38564 12.7581 3.99564 11.3687 3.99564 9.65746C3.99564 7.94058 5.38564 6.55121 7.09626 6.55121C8.81314 6.55121 10.1969 7.94058 10.1969 9.65746Z" fill="white"/>
<path d="M18.0069 9.65746C18.0069 11.3687 16.6232 12.7581 14.9063 12.7581C13.1957 12.7581 11.8057 11.3687 11.8057 9.65746C11.8057 7.94058 13.1957 6.55121 14.9063 6.55121C16.6232 6.55121 18.0069 7.94058 18.0069 9.65746Z" fill="white"/>
<path d="M19.9556 9.18565H18.4125C18.1812 7.45377 16.6981 6.11377 14.9069 6.11377C13.5806 6.11377 12.4244 6.84877 11.8194 7.93252C11.655 8.2269 11.3444 8.39815 11.0075 8.39627C11.0056 8.39627 11.0037 8.39627 11.0012 8.39627C10.9981 8.39627 10.9956 8.39627 10.9925 8.3969C10.6569 8.3994 10.3475 8.2269 10.1844 7.9344C9.57937 6.85002 8.42312 6.11439 7.09687 6.11439C5.30562 6.11439 3.82562 7.45502 3.59375 9.18628H2.04437V10.1238H3.60312C3.82062 11.7413 5.135 13.0432 6.79062 13.1832C8.88562 13.3607 10.675 11.69 10.6306 9.58378C10.6662 9.40753 10.8144 9.27253 11.0006 9.27253C11.1906 9.27253 11.3669 9.4094 11.3669 9.65815C11.3669 11.7007 13.1075 13.345 15.1831 13.1857C16.8444 13.0582 18.1844 11.7588 18.4006 10.1238H19.9544V9.18565H19.9556ZM7.09625 12.32C5.62812 12.32 4.43312 11.125 4.43312 9.65753C4.43312 8.18627 5.6275 6.9894 7.09625 6.9894C8.56437 6.9894 9.75875 8.18627 9.75875 9.65753C9.75875 11.125 8.56437 12.32 7.09625 12.32ZM14.9062 12.32C13.4381 12.32 12.2431 11.125 12.2431 9.65753C12.2431 8.18627 13.4375 6.9894 14.9062 6.9894C16.3744 6.9894 17.5687 8.18627 17.5687 9.65753C17.5687 11.125 16.3744 12.32 14.9062 12.32Z" fill="#3E4347"/>
<path d="M15.3106 10.1563C15.3106 10.8082 14.7862 11.3451 14.1262 11.3451C13.4743 11.3451 12.9418 10.8082 12.9418 10.1563C12.9418 9.50069 13.475 8.9632 14.1262 8.9632C14.7862 8.9632 15.3106 9.50007 15.3106 10.1563Z" fill="#3E4347"/>
<path d="M14.7278 9.55008C14.5753 9.39753 14.3662 9.35934 14.2607 9.46479C14.1553 9.57023 14.1935 9.77937 14.346 9.93192C14.4986 10.0845 14.7077 10.1227 14.8131 10.0172C14.9186 9.91177 14.8804 9.70263 14.7278 9.55008Z" fill="white"/>
<path d="M9.06061 10.1563C9.06061 10.8082 8.53624 11.3451 7.87624 11.3451C7.22436 11.3451 6.69186 10.8082 6.69186 10.1563C6.69186 9.50069 7.22499 8.9632 7.87624 8.9632C8.53624 8.9632 9.06061 9.50007 9.06061 10.1563Z" fill="#3E4347"/>
<path d="M8.47843 9.55069C8.32588 9.39814 8.11674 9.35996 8.0113 9.4654C7.90585 9.57084 7.94404 9.77998 8.09659 9.93253C8.24914 10.0851 8.45828 10.1233 8.56372 10.0178C8.66916 9.91238 8.63097 9.70324 8.47843 9.55069Z" fill="white"/>
<path d="M11.7875 6.30866C13.4525 5.37866 15.3862 4.76178 17.5 4.60491C17.2175 4.11428 16.9125 3.62928 16.585 3.15491C14.7337 3.92241 13.1181 5.01366 11.7875 6.30866Z" fill="#3E4347"/>
<path d="M10.2169 6.31492C8.54999 5.39305 6.61624 4.76805 4.49374 4.58617C4.77437 4.08992 5.07812 3.60117 5.40499 3.12305C7.26562 3.91992 8.88374 5.0243 10.2169 6.31492Z" fill="#3E4347"/>
<path d="M6.18186 16.488C6.05373 16.3718 6.04373 16.1749 6.15936 16.0468C6.22811 15.9705 6.84936 15.3055 7.54499 15.3055C7.97249 15.3055 8.19311 15.5499 8.35436 15.728C8.49311 15.8818 8.55561 15.9443 8.69936 15.9443C8.84249 15.9443 8.90436 15.8818 9.04311 15.728C9.53874 15.1793 10.1194 15.1305 10.6587 15.728C10.9069 16.0024 11.06 16.0461 11.3462 15.728C11.8419 15.1793 12.4231 15.1305 12.9619 15.728C13.2119 16.0049 13.3644 16.0443 13.65 15.728C14.3325 14.9718 15.2187 15.358 15.8412 16.0474C15.9569 16.1755 15.9462 16.373 15.8187 16.488C15.6906 16.6043 15.4931 16.5936 15.3775 16.4668C15.2419 16.318 14.8125 15.9311 14.4575 15.9311C14.3144 15.9311 14.2525 15.9936 14.1137 16.1474C13.6181 16.6961 13.0375 16.7449 12.4981 16.1474C12.2481 15.8705 12.0956 15.8311 11.8106 16.1474C11.3231 16.6886 10.74 16.7511 10.195 16.1474C9.94499 15.8705 9.79249 15.8311 9.50686 16.1474C9.34624 16.3255 9.12624 16.5699 8.69874 16.5699C8.27124 16.5699 8.05124 16.3255 7.88999 16.1474C7.75124 15.9936 7.68874 15.9311 7.54499 15.9311C7.18749 15.9311 6.74873 16.328 6.62311 16.4661C6.50748 16.5936 6.30998 16.6036 6.18186 16.488Z" fill="#3E4347"/>
</svg>
