<svg width="20" height="20" viewBox="0 0 20 20" fill="none" xmlns="http://www.w3.org/2000/svg">
<path fill-rule="evenodd" clip-rule="evenodd" d="M5.16671 6.09999C5.04515 6.09999 4.92857 6.14828 4.84262 6.23424C4.75667 6.32019 4.70838 6.43677 4.70838 6.55832V13.3604H15.2916V6.55832C15.2916 6.43677 15.2433 6.32019 15.1574 6.23424C15.0714 6.14828 14.9549 6.09999 14.8333 6.09999H5.16671ZM16.7916 13.3604V6.55832C16.7916 6.03894 16.5853 5.54084 16.218 5.17358C15.8508 4.80633 15.3527 4.60001 14.8333 4.60001H5.16671C4.64733 4.60001 4.14922 4.80633 3.78197 5.17358C3.41471 5.54084 3.20839 6.03895 3.20839 6.55832V13.3604H2.75006C2.38008 13.3604 2.06538 13.6302 2.00887 13.9958C1.95236 14.3614 2.17093 14.7137 2.52364 14.8253L4.33613 15.3993C4.40936 15.4225 4.48573 15.4343 4.56254 15.4343H15.4375C15.5143 15.4343 15.5906 15.4225 15.6639 15.3993L17.4764 14.8253C17.8291 14.7137 18.0476 14.3614 17.9911 13.9958C17.9346 13.6302 17.6199 13.3604 17.2499 13.3604H16.7916Z" fill="#93959C"/>
</svg>
