<svg width="20" height="20" viewBox="0 0 20 20" fill="none" xmlns="http://www.w3.org/2000/svg">
<path fill-rule="evenodd" clip-rule="evenodd" d="M5.90207 4.90002C5.90207 4.48581 6.23786 4.15002 6.65207 4.15002H17.9C18.3142 4.15002 18.65 4.48581 18.65 4.90002C18.65 5.31424 18.3142 5.65002 17.9 5.65002H6.65207C6.23786 5.65002 5.90207 5.31424 5.90207 4.90002Z" fill="#93959C"/>
<path fill-rule="evenodd" clip-rule="evenodd" d="M5.90207 10.0914C5.90207 9.67716 6.23786 9.34137 6.65207 9.34137H17.9C18.3142 9.34137 18.65 9.67716 18.65 10.0914C18.65 10.5056 18.3142 10.8414 17.9 10.8414H6.65207C6.23786 10.8414 5.90207 10.5056 5.90207 10.0914Z" fill="#93959C"/>
<path fill-rule="evenodd" clip-rule="evenodd" d="M5.90207 15.2827C5.90207 14.8685 6.23786 14.5327 6.65207 14.5327H17.9C18.3142 14.5327 18.65 14.8685 18.65 15.2827C18.65 15.6969 18.3142 16.0327 17.9 16.0327H6.65207C6.23786 16.0327 5.90207 15.6969 5.90207 15.2827Z" fill="#93959C"/>
<path d="M2.75003 6.5H1.87503V3.875H1.00003V3H2.75003V6.5Z" fill="#93959C"/>
<path d="M2.75003 14.375H1.00003V13.5H3.62503V17H1.00003V16.125H2.75003V15.8625L2.31253 15.6875V14.8125L2.75003 14.6375V14.375Z" fill="#93959C"/>
<path d="M2.75003 9.125H1.00003V8.25H3.62503V9.125L1.87503 10.875H3.62503V11.75H1.00003V10.875L2.75003 9.125Z" fill="#93959C"/>
</svg>
