<svg width="20" height="20" viewBox="0 0 20 20" fill="none" xmlns="http://www.w3.org/2000/svg">
<path fill-rule="evenodd" clip-rule="evenodd" d="M3.97246 2C2.8846 2 2 2.8846 2 3.97246V15.4263C2 16.8458 3.15425 18 4.57375 18H16.0275C17.1154 18 18 17.1154 18 16.0275V13.8931C18 12.8051 17.1154 11.9206 16.0275 11.9206H15.1161L16.2464 11.268C17.1882 10.724 17.5119 9.51572 16.9682 8.57368L15.9009 6.72497C15.4045 5.8657 14.3557 5.52075 13.4604 5.87964C13.819 4.9843 13.4741 3.93535 12.615 3.43904L10.7662 2.37177C9.82247 1.82724 8.6169 2.14973 8.07201 3.09393L7.95816 3.29113C7.68028 2.53814 6.95551 2 6.10691 2H3.97246ZM3.54 3.97246C3.54 3.73435 3.73435 3.54 3.97246 3.54H6.10691C6.34511 3.54 6.53937 3.73432 6.53937 3.97246V16.46H4.57375C4.004 16.46 3.54 15.996 3.54 15.4263V3.97246ZM8.07938 6.16113L9.40571 3.86389C9.52522 3.65696 9.78941 3.58609 9.99661 3.70563L11.8449 4.77268C12.0512 4.89184 12.1223 5.15746 12.0033 5.36359L8.07938 12.16V6.16113ZM13.9767 7.33676C14.1827 7.21781 14.448 7.28877 14.5673 7.49516L15.6345 9.34356C15.7536 9.54979 15.6824 9.81535 15.4762 9.93441L8.9757 13.6875L11.9751 8.49238L13.9767 7.33676ZM8.07938 15.9832L12.4488 13.4606H16.0275C16.2657 13.4606 16.46 13.6549 16.46 13.8931V16.0275C16.46 16.2657 16.2657 16.46 16.0275 16.46H8.07938V15.9832ZM5.04917 14.1802C4.62388 14.1802 4.27917 14.5249 4.27917 14.9502C4.27917 15.3755 4.62388 15.7202 5.04917 15.7202C5.47445 15.7202 5.81917 15.3755 5.81917 14.9502C5.81917 14.5249 5.47445 14.1802 5.04917 14.1802Z" fill="#93959C"/>
</svg>
