<svg width="20" height="20" viewBox="0 0 20 20" fill="none" xmlns="http://www.w3.org/2000/svg">
<path fill-rule="evenodd" clip-rule="evenodd" d="M4.09438 2.64437C4.50696 2.23178 5.06654 2 5.65001 2H10.725C10.9239 2 11.1147 2.07902 11.2553 2.21967L16.3303 7.29467C16.471 7.43532 16.55 7.62609 16.55 7.825V15.8C16.55 16.3835 16.3182 16.9431 15.9056 17.3556C15.4931 17.7682 14.9335 18 14.35 18H5.65001C5.06654 18 4.50696 17.7682 4.09438 17.3556C3.6818 16.9431 3.45001 16.3835 3.45001 15.8V4.2C3.45001 3.61652 3.6818 3.05695 4.09438 2.64437ZM5.65001 3.5C5.46436 3.5 5.28631 3.57375 5.15504 3.70503C5.02376 3.8363 4.95001 4.01435 4.95001 4.2V15.8C4.95001 15.9857 5.02376 16.1637 5.15504 16.295C5.28631 16.4263 5.46436 16.5 5.65001 16.5H14.35C14.5357 16.5 14.7137 16.4263 14.845 16.295C14.9763 16.1637 15.05 15.9857 15.05 15.8V8.13566L10.4144 3.5H5.65001Z" fill="#93959C"/>
<path fill-rule="evenodd" clip-rule="evenodd" d="M10.725 2C11.1392 2 11.475 2.33579 11.475 2.75V7.075H15.8C16.2142 7.075 16.55 7.41079 16.55 7.825C16.55 8.23921 16.2142 8.575 15.8 8.575H10.725C10.3108 8.575 9.97498 8.23921 9.97498 7.825V2.75C9.97498 2.33579 10.3108 2 10.725 2Z" fill="#93959C"/>
<path d="M8.3678 11.8158C8.3678 11.9896 8.32649 12.1492 8.24388 12.2945C8.16126 12.4369 8.03439 12.5523 7.86326 12.6406C7.69213 12.7289 7.47969 12.7731 7.22594 12.7731H6.75681V13.85H6V10.85H7.22594C7.47379 10.85 7.68328 10.8913 7.85441 10.9739C8.02554 11.0566 8.15389 11.1705 8.23945 11.3158C8.32502 11.4611 8.3678 11.6278 8.3678 11.8158ZM7.16841 12.1919C7.31299 12.1919 7.42068 12.1591 7.49149 12.0936C7.5623 12.0281 7.59771 11.9355 7.59771 11.8158C7.59771 11.6962 7.5623 11.6036 7.49149 11.538C7.42068 11.4725 7.31299 11.4397 7.16841 11.4397H6.75681V12.1919H7.16841Z" fill="#93959C"/>
<path d="M9.92578 10.85C10.2533 10.85 10.5395 10.9127 10.7844 11.038C11.0293 11.1634 11.2181 11.34 11.3509 11.568C11.4866 11.793 11.5545 12.0537 11.5545 12.35C11.5545 12.6435 11.4866 12.9041 11.3509 13.1321C11.2181 13.36 11.0278 13.5366 10.78 13.662C10.5351 13.7873 10.2503 13.85 9.92578 13.85H8.7618V10.85H9.92578ZM9.8771 13.2175C10.1633 13.2175 10.3861 13.142 10.5454 12.991C10.7047 12.84 10.7844 12.6264 10.7844 12.35C10.7844 12.0737 10.7047 11.8586 10.5454 11.7047C10.3861 11.5509 10.1633 11.4739 9.8771 11.4739H9.51861V13.2175H9.8771Z" fill="#93959C"/>
<path d="M14 10.85V11.4355H12.7342V12.068H13.6813V12.6363H12.7342V13.85H11.9774V10.85H14Z" fill="#93959C"/>
</svg>
