<svg width="20" height="20" viewBox="0 0 20 20" fill="none" xmlns="http://www.w3.org/2000/svg">
<path fill-rule="evenodd" clip-rule="evenodd" d="M6.87061 3.67101C6.74038 3.55923 6.57361 3.49834 6.40135 3.50003L6.39399 3.50011L4.20722 3.50007C4.1088 3.50021 4.01152 3.52077 3.92158 3.56042C3.83155 3.60011 3.7509 3.65802 3.68471 3.73039C3.61852 3.80275 3.56824 3.88798 3.53698 3.98062C3.50624 4.07171 3.49453 4.16805 3.50252 4.26374C3.73016 6.39294 4.45661 8.43894 5.62329 10.2363L5.62687 10.2418C6.68703 11.9069 8.10159 13.3187 9.77021 14.377L9.77606 14.3807C11.5688 15.541 13.6091 16.266 15.7333 16.4976C15.8299 16.5055 15.927 16.4937 16.0188 16.4627C16.1124 16.4311 16.1982 16.3804 16.2708 16.3139C16.3434 16.2475 16.4012 16.1667 16.4406 16.0768C16.4765 15.9948 16.498 15.8923 16.5001 15.7454L16.4996 13.6062L16.4999 13.5874C16.5042 13.4149 16.4448 13.2466 16.3327 13.1146C16.2212 12.9832 16.0651 12.8968 15.8938 12.872C15.1392 12.7724 14.3984 12.5881 13.6853 12.3225L13.6836 12.3219C13.5567 12.2743 13.4186 12.2639 13.286 12.2922C13.1539 12.3203 13.0328 12.3854 12.9368 12.4797C12.9364 12.4801 12.9359 12.4805 12.9355 12.4809L12.0126 13.402C11.774 13.6401 11.4058 13.6898 11.1126 13.5234C9.17012 12.4211 7.56156 10.8158 6.45681 8.87675C6.28942 8.58296 6.33932 8.21348 6.57866 7.97462L7.5028 7.05232C7.59723 6.95655 7.66217 6.83603 7.69017 6.70499C7.71829 6.5734 7.70803 6.43652 7.66057 6.31051L7.65994 6.30881C7.39376 5.59691 7.20898 4.85728 7.10911 4.10397C7.08464 3.93599 7.0001 3.78215 6.87061 3.67101ZM6.39068 2.00007C6.92463 1.99581 7.44228 2.18493 7.84756 2.53278C8.2539 2.88154 8.51959 3.36614 8.59469 3.89639L8.59567 3.9033C8.68056 4.54567 8.83796 5.17641 9.06494 5.78349L9.06431 5.7818C9.21302 6.17664 9.24523 6.60583 9.15705 7.01845C9.06888 7.43106 8.86408 7.8096 8.56713 8.10929L8.56418 8.11228L8.05452 8.62091C8.90599 9.94896 10.0364 11.0769 11.3676 11.9265L11.8819 11.4133C12.1821 11.1169 12.5611 10.9129 12.9737 10.825C13.386 10.7373 13.8149 10.7692 14.2096 10.9171C14.8179 11.1436 15.4499 11.3007 16.0935 11.3854L16.1002 11.3863C16.6361 11.4617 17.1259 11.7312 17.4762 12.1438C17.8243 12.5538 18.0105 13.0768 17.9996 13.6143L18.0001 15.7587C17.9968 16.0444 17.954 16.3603 17.8145 16.6787C17.6912 16.9602 17.5104 17.2127 17.2837 17.4202C17.0571 17.6278 16.7896 17.7857 16.4985 17.8839C16.2074 17.9822 15.8989 18.0187 15.5929 17.9911L15.5794 17.9898C13.2208 17.7341 10.955 16.9298 8.96394 15.6418C7.11171 14.4666 5.54104 12.8991 4.36333 11.0503C3.06805 9.05383 2.26189 6.78096 2.01021 4.41562L2.00896 4.40391C1.98133 4.09878 2.01776 3.79127 2.11573 3.50099C2.21369 3.21071 2.37111 2.94407 2.57787 2.71801C2.78463 2.49196 3.0362 2.31144 3.31652 2.18787C3.59683 2.0643 3.89978 2.00036 4.20612 2.00007L6.39068 2.00007Z" fill="#93959C"/>
</svg>
