<svg width="20" height="20" viewBox="0 0 20 20" fill="none" xmlns="http://www.w3.org/2000/svg">
<path fill-rule="evenodd" clip-rule="evenodd" d="M4.89979 2.75C4.89979 2.33579 5.23557 2 5.64979 2H14.3492C14.7634 2 15.0992 2.33579 15.0992 2.75V7.07461H15.7991C16.3825 7.07461 16.9421 7.30638 17.3546 7.71894C17.7672 8.1315 17.999 8.69106 17.999 9.27451V12.8992C17.999 13.4827 17.7672 14.0422 17.3546 14.4548C16.9421 14.8674 16.3825 15.0991 15.7991 15.0991H15.0992V17.2489C15.0992 17.6632 14.7634 17.9989 14.3492 17.9989H5.64979C5.23557 17.9989 4.89979 17.6632 4.89979 17.2489V15.0991H4.1999C3.61645 15.0991 3.05689 14.8674 2.64433 14.4548C2.23177 14.0422 2 13.4827 2 12.8992V9.27451C2 8.69106 2.23177 8.13151 2.64433 7.71894C3.05689 7.30638 3.61645 7.07461 4.1999 7.07461H4.89979V2.75ZM6.39979 14.3518C6.39979 14.3509 6.39979 14.35 6.39979 14.3491C6.39979 14.3482 6.39979 14.3473 6.39979 14.3464V12.1994H13.5992V16.4989H6.39979V14.3518ZM4.89979 13.5991H4.1999C4.01427 13.5991 3.83625 13.5254 3.70499 13.3941C3.57374 13.2629 3.5 13.0849 3.5 12.8992V9.27451C3.5 9.08888 3.57374 8.91086 3.70499 8.7796C3.83625 8.64835 4.01427 8.57461 4.1999 8.57461H5.64368L5.64979 8.57463L5.65589 8.57461H14.3431L14.3492 8.57463L14.3553 8.57461H15.7991C15.9847 8.57461 16.1627 8.64835 16.294 8.7796C16.4252 8.91086 16.499 9.08888 16.499 9.27451V12.8992C16.499 13.0849 16.4252 13.2629 16.294 13.3941C16.1627 13.5254 15.9847 13.5991 15.7991 13.5991H15.0992V11.4494C15.0992 11.0351 14.7634 10.6994 14.3492 10.6994H5.64979C5.23557 10.6994 4.89979 11.0351 4.89979 11.4494V13.5991ZM13.5992 3.5V7.07461H6.39979V3.5H13.5992Z" fill="#93959C"/>
</svg>
