<svg width="20" height="20" viewBox="0 0 20 20" fill="none" xmlns="http://www.w3.org/2000/svg">
<path fill-rule="evenodd" clip-rule="evenodd" d="M12.6568 11.4264C13.2309 11.6939 13.6113 12.2207 13.7983 13.0073C13.9852 13.7939 13.9117 14.546 13.5766 15.2634C13.5059 15.4151 13.3894 15.5207 13.2274 15.5801C13.0657 15.6395 12.9093 15.6341 12.7586 15.5638L9.02777 13.8258L6.61191 17.8452C6.56768 17.9097 6.50932 17.9554 6.43696 17.9821C6.36464 18.0086 6.29336 18.0056 6.22409 17.9733L6.21523 17.9692C6.05869 17.8963 6.00261 17.7744 6.04721 17.6034L7.3669 13.0521L3.85354 11.4153C3.70279 11.345 3.59822 11.2288 3.53967 11.0668C3.4812 10.9047 3.48737 10.7477 3.55814 10.5961C3.89309 9.87848 4.42215 9.33872 5.14543 8.97616C5.86876 8.61366 6.51731 8.56608 7.09129 8.83348L9.18211 4.35391C8.88064 4.21347 8.67142 3.98109 8.55454 3.65683C8.43765 3.33253 8.45001 3.01875 8.59159 2.7154C8.73322 2.41199 8.96584 2.2009 9.28964 2.08189C9.6134 1.96288 9.92599 1.97357 10.2276 2.11405L15.7932 4.7069C16.0946 4.84734 16.304 5.07984 16.4206 5.40398C16.5375 5.72834 16.5254 6.04215 16.3838 6.34553C16.2422 6.64875 16.0093 6.85998 15.6855 6.97892C15.362 7.09804 15.0491 7.08718 14.7477 6.94675L12.6568 11.4264ZM7.96962 9.59584C8.04603 9.5677 8.10308 9.51303 8.14096 9.43178L9.96147 5.5277C9.99938 5.44639 10.0046 5.36741 9.97704 5.29093C9.94951 5.2144 9.89528 5.15738 9.81454 5.11973C9.73385 5.0821 9.65524 5.07729 9.57894 5.10529C9.50269 5.13325 9.44555 5.18813 9.40763 5.26944L7.58713 9.17352C7.54924 9.25478 7.54398 9.3337 7.57153 9.4102C7.59907 9.48677 7.65331 9.54384 7.734 9.58146C7.81474 9.61911 7.89331 9.62394 7.96962 9.59584Z" fill="#93959C"/>
</svg>
