<svg width="20" height="20" viewBox="0 0 20 20" fill="none" xmlns="http://www.w3.org/2000/svg">
<path fill-rule="evenodd" clip-rule="evenodd" d="M5.06385 3.6848C5.1821 3.56648 5.34249 3.5 5.50972 3.5H13.7903C13.9575 3.5 14.1179 3.56648 14.2362 3.6848C14.3544 3.80313 14.4208 3.96361 14.4208 4.13095V7.96738L9.64954 11.4853L4.87916 7.96806V4.13095C4.87916 3.96361 4.94559 3.80313 5.06385 3.6848ZM3.49907 8.81374V15.9554C3.49907 16.2083 3.73823 16.5 4.12963 16.5H15.1704C15.5618 16.5 15.8009 16.2083 15.8009 15.9554V8.81306L10.0942 13.0207C9.82976 13.2156 9.46932 13.2156 9.20492 13.0207L3.49907 8.81374ZM15.9199 4.13095V6.27537C16.7066 6.56192 17.3 7.28667 17.3 8.1875V15.9554C17.3 17.1265 16.2971 18 15.1704 18H4.12963C3.00292 18 2 17.1265 2 15.9554V8.1875C2 7.28667 2.5934 6.56192 3.38009 6.27537V4.13095C3.38009 3.56579 3.60446 3.02377 4.00385 2.62414C4.40323 2.22451 4.94491 2 5.50972 2H13.7903C14.3551 2 14.8968 2.22451 15.2962 2.62414C15.6955 3.02377 15.9199 3.56579 15.9199 4.13095ZM6.38985 7.5835C6.38985 7.30735 6.61356 7.0835 6.88953 7.0835H12.4099C12.6859 7.0835 12.9096 7.30735 12.9096 7.5835C12.9096 7.85964 12.6859 8.0835 12.4099 8.0835H6.88953C6.61356 8.0835 6.38985 7.85964 6.38985 7.5835ZM6.88953 5.01172C6.61356 5.01172 6.38985 5.23558 6.38985 5.51172C6.38985 5.78786 6.61356 6.01172 6.88953 6.01172H8.26963C8.5456 6.01172 8.76932 5.78786 8.76932 5.51172C8.76932 5.23558 8.5456 5.01172 8.26963 5.01172H6.88953Z" fill="#93959C"/>
</svg>
