<svg width="20" height="20" viewBox="0 0 20 20" fill="none" xmlns="http://www.w3.org/2000/svg">
<path fill-rule="evenodd" clip-rule="evenodd" d="M7.68621 3.22413C7.91455 3.00221 8.25537 2.93843 8.54757 3.06275C8.83937 3.18705 9.03103 3.47391 9.03103 3.79282V6.21481C14.0189 6.46189 18 10.5967 18 15.6447C18 16.0069 17.7548 16.3231 17.4038 16.413C17.3365 16.4303 17.2705 16.4375 17.2072 16.4375C16.9218 16.4375 16.6534 16.2832 16.512 16.0252L16.499 16.0016C15.1171 13.5058 12.4836 11.953 9.62715 11.953H9.03103V14.3634C9.03103 14.6823 8.8395 14.9691 8.5477 15.0934L8.54669 15.0938C8.25705 15.216 7.91516 15.1563 7.6857 14.9316L2.24142 9.64742C2.08689 9.49801 2 9.29235 2 9.0781C2 8.86386 2.08656 8.65852 2.24109 8.50911L7.68621 3.22413ZM3.93117 9.0781L7.44544 12.4892V11.1602C7.44544 10.7225 7.80053 10.3674 8.23824 10.3674H9.62715C11.9492 10.3674 14.1485 11.2209 15.8431 12.7023C14.6761 9.82371 11.8498 7.78881 8.55856 7.78881H8.23824C7.80053 7.78881 7.44544 7.43373 7.44544 6.99602V5.66705L3.93117 9.0781Z" fill="#93959C"/>
</svg>
