<svg width="20" height="20" viewBox="0 0 20 20" fill="none" xmlns="http://www.w3.org/2000/svg">
<path fill-rule="evenodd" clip-rule="evenodd" d="M8.5221 4.22067C8.25448 3.93778 7.80863 3.92557 7.52592 4.19161L2.22052 9.1982C2.0798 9.33153 2 9.51667 2 9.71098C2 9.9053 2.08017 10.0908 2.22089 10.2241L7.52566 15.2301L7.52677 15.2311C7.66255 15.3577 7.8354 15.4221 8.00947 15.4221C8.19623 15.4221 8.38329 15.3477 8.52193 15.2015L8.52268 15.2007C8.78904 14.9172 8.77618 14.471 8.49328 14.2039L3.7322 9.71098L8.49366 5.21774C8.77596 4.95021 8.78862 4.50434 8.5221 4.22067ZM11.515 4.05845C11.2618 3.9489 10.9648 3.99491 10.7571 4.18359L5.30036 9.1553C5.15435 9.28828 5.07141 9.47651 5.07141 9.67333C5.07141 9.86983 5.15455 10.0587 5.30107 10.1914L10.7575 15.1628C10.9649 15.3504 11.262 15.3984 11.5161 15.2871C11.7712 15.1753 11.9373 14.9231 11.9373 14.6442V12.363C13.6635 12.5445 15.2093 13.551 16.0608 15.0798L16.6793 16.1907C16.8062 16.4177 17.044 16.5519 17.2953 16.5519C17.3543 16.5519 17.4137 16.5442 17.4711 16.5297C17.7821 16.4503 18 16.1708 18 15.85V13.7409C18 10.2664 15.3379 7.40052 11.9373 7.04921V4.70187C11.9373 4.42293 11.7712 4.17081 11.5161 4.05893L11.515 4.05845ZM10.5279 13.0514L6.82028 9.67333L10.5279 6.29529V7.71488C10.5279 8.10386 10.8449 8.41683 11.2326 8.41683C14.0584 8.41683 16.3781 10.6008 16.5768 13.3568C15.3046 11.8356 13.4033 10.9298 11.372 10.9298H11.2326C10.8449 10.9298 10.5279 11.2428 10.5279 11.6318V13.0514Z" fill="#93959C"/>
</svg>
