<svg width="22" height="22" viewBox="0 0 22 22" fill="none" xmlns="http://www.w3.org/2000/svg">
<path d="M11 21C16.5228 21 21 16.5228 21 11C21 5.47715 16.5228 1 11 1C5.47715 1 1 5.47715 1 11C1 16.5228 5.47715 21 11 21Z" fill="#FFD93B"/>
<path d="M21 11C21 16.525 16.5219 21 11 21C7.85626 21 5.05001 19.55 3.21564 17.2781C4.93126 18.6656 7.11564 19.4938 9.49376 19.4938C15.0156 19.4938 19.4938 15.0188 19.4938 9.49376C19.4938 7.11564 18.6656 4.93126 17.2781 3.21564C19.5469 5.05001 21 7.85626 21 11Z" fill="#F4C534"/>
<path d="M16.1448 6.85758C15.7873 6.10008 14.2123 4.30133 12.7479 5.11946C13.9648 3.28508 15.901 4.10633 16.1448 6.85758Z" fill="#3E4347"/>
<path d="M5.8548 6.85758C6.2123 6.10008 7.78792 4.30133 9.25167 5.11946C8.0348 3.28508 6.09855 4.10633 5.8548 6.85758Z" fill="#3E4347"/>
<path d="M10.0335 9.68385C9.71478 10.7276 8.57103 11.6276 7.15228 11.2901C5.90853 10.9901 5.15853 9.67135 5.34603 8.5776C5.38353 8.3776 5.65228 8.33385 5.78978 8.4901C6.60228 9.4401 8.47728 9.87135 9.70228 9.39635C9.89603 9.32135 10.096 9.48947 10.0335 9.68385Z" fill="#3E4347"/>
<path d="M14.846 11.2895C13.4273 11.627 12.2835 10.727 11.9648 9.68323C11.9023 9.48948 12.1085 9.32073 12.296 9.39573C13.521 9.87073 15.396 9.43948 16.2148 8.48948C16.346 8.33323 16.6148 8.37699 16.6523 8.57699C16.846 9.67074 16.096 10.9895 14.846 11.2895Z" fill="#3E4347"/>
<path d="M6.00664 16.8945C6.77539 14.5245 8.85977 12.7407 10.9979 12.7326C13.1404 12.7407 15.2241 14.5264 15.9929 16.8945C16.086 17.1926 15.7104 17.4695 15.346 17.3607C12.3185 16.447 9.67602 16.4507 6.64852 17.3607C6.28914 17.4689 5.91352 17.1951 6.00664 16.8945Z" fill="#3E4347"/>
<path d="M8.24127 13.7312C9.07315 13.8769 10.0075 13.9606 11 13.9606C11.9919 13.9606 12.9263 13.8769 13.7575 13.7312C12.9269 13.1081 11.9694 12.7362 10.9975 12.7325C10.0281 12.7362 9.07065 13.1075 8.24127 13.7312Z" fill="white"/>
<path d="M12.8906 15.255C12.5075 15.1 12.0838 15.1225 11.7006 15.2825C11.3406 15.4281 10.9256 15.515 10.4556 15.515C10.2138 15.515 9.99063 15.4925 9.77625 15.4513C9.1425 15.3281 8.46313 15.4875 8.02938 15.9663C7.765 16.2538 7.61438 16.5863 7.61438 16.9419C7.61438 16.995 7.62063 17.0469 7.6275 17.0994C9.93625 16.5431 12.0644 16.5413 14.3731 17.1C14.38 17.0475 14.3863 16.9956 14.3863 16.9419C14.3863 16.235 13.7931 15.62 12.8906 15.255Z" fill="#E24B4B"/>
</svg>
