<svg width="22" height="22" viewBox="0 0 22 22" fill="none" xmlns="http://www.w3.org/2000/svg">
<path d="M11 21C16.5228 21 21 16.5228 21 11C21 5.47715 16.5228 1 11 1C5.47715 1 1 5.47715 1 11C1 16.5228 5.47715 21 11 21Z" fill="#FFD93B"/>
<path d="M21 11C21 16.525 16.5219 21 11 21C7.85625 21 5.05 19.55 3.21563 17.2781C4.93125 18.6656 7.11563 19.4938 9.49375 19.4938C15.0156 19.4938 19.4937 15.0188 19.4937 9.49376C19.4937 7.11564 18.6656 4.93126 17.2781 3.21564C19.5469 5.05001 21 7.85626 21 11Z" fill="#F4C534"/>
<path d="M11.6423 10.0731C10.9954 11.7818 12.0604 13.7681 14.0217 14.5112C15.9779 15.2518 18.0917 14.47 18.7385 12.7612C19.3835 11.0568 18.3192 9.0706 16.3623 8.32997C14.4011 7.58623 12.2873 8.36873 11.6423 10.0731Z" fill="#F4C534"/>
<path d="M14.7394 13.895C16.2112 13.895 17.4044 12.7018 17.4044 11.23C17.4044 9.75816 16.2112 8.565 14.7394 8.565C13.2675 8.565 12.0744 9.75816 12.0744 11.23C12.0744 12.7018 13.2675 13.895 14.7394 13.895Z" fill="white"/>
<path d="M15.7056 11.3975C15.7106 12.2669 15.01 12.9675 14.1406 12.9625C13.2762 12.9625 12.5706 12.2669 12.5706 11.3975C12.5706 10.5281 13.2762 9.83249 14.1406 9.83249C15.01 9.82687 15.7056 10.5325 15.7056 11.3975Z" fill="#3E4347"/>
<path d="M14.8918 10.6459C14.7249 10.479 14.4976 10.4356 14.3841 10.5491C14.2706 10.6626 14.3139 10.89 14.4808 11.0569C14.6478 11.2239 14.8751 11.2672 14.9886 11.1537C15.1021 11.0402 15.0588 10.8129 14.8918 10.6459Z" fill="white"/>
<path d="M10.3575 10.0731C11.0044 11.7818 9.93937 13.7681 7.97812 14.5112C6.02187 15.2518 3.90812 14.47 3.26125 12.7612C2.61563 11.0568 3.68062 9.0706 5.63687 8.32997C7.59875 7.58623 9.7125 8.36873 10.3575 10.0731Z" fill="#F4C534"/>
<path d="M7.2625 13.895C8.73434 13.895 9.9275 12.7018 9.9275 11.23C9.9275 9.75816 8.73434 8.565 7.2625 8.565C5.79066 8.565 4.5975 9.75816 4.5975 11.23C4.5975 12.7018 5.79066 13.895 7.2625 13.895Z" fill="white"/>
<path d="M9.42937 11.3975C9.43437 12.2669 8.73375 12.9675 7.86437 12.9625C6.99937 12.9625 6.29437 12.2669 6.29437 11.3975C6.29437 10.5281 7 9.83249 7.86437 9.83249C8.73375 9.82687 9.42937 10.5325 9.42937 11.3975Z" fill="#3E4347"/>
<path d="M8.61509 10.6463C8.44815 10.4793 8.2208 10.436 8.10731 10.5495C7.99381 10.663 8.03715 10.8903 8.20409 11.0573C8.37104 11.2242 8.59838 11.2676 8.71188 11.1541C8.82537 11.0406 8.78204 10.8132 8.61509 10.6463Z" fill="white"/>
<path d="M17.6909 5.99375C16.2477 6.82875 13.2027 8.17937 12.0084 5.58812C11.9509 5.46312 12.0952 5.3425 12.2084 5.41812C12.8809 5.855 14.4852 6.50062 17.5852 5.74062C17.7415 5.7025 17.829 5.91062 17.6909 5.99375Z" fill="#3E4347"/>
<path d="M4.22751 6.82376C5.88313 7.04438 9.21751 7.13063 9.32188 4.27751C9.32688 4.14001 9.14688 4.08376 9.07126 4.19688C8.61876 4.85751 7.38438 6.06813 4.22688 6.54938C4.06813 6.57376 4.06751 6.80001 4.22751 6.82376Z" fill="#3E4347"/>
<path d="M15.1902 18.36C15.0084 17.78 14.3509 16.9888 12.4984 16.3713C11.549 16.0075 9.58212 15.6406 9.034 15.5025C9.83712 15.3025 11.4396 14.765 12.859 15.2506C14.1615 15.7575 15.1902 16.9019 15.1902 18.36Z" fill="#3E4347"/>
</svg>
