<svg width="22" height="22" viewBox="0 0 22 22" fill="none" xmlns="http://www.w3.org/2000/svg">
<path d="M10.9925 20.9906C16.5112 20.9906 20.985 16.5156 20.985 10.9953C20.985 5.47505 16.5112 1 10.9925 1C5.4738 1 1 5.47505 1 10.9953C1 16.5156 5.4738 20.9906 10.9925 20.9906Z" fill="#FFD93B"/>
<path d="M21 11.004C21 16.5265 16.5252 20.9994 11.0075 20.9994C7.86609 20.9994 5.06194 19.55 3.22894 17.2792C4.94328 18.6661 7.12602 19.4938 9.50236 19.4938C15.0201 19.4938 19.4949 15.0209 19.4949 9.49851C19.4949 7.1215 18.6674 4.93815 17.2809 3.22333C19.5486 5.05684 21 7.86177 21 11.004Z" fill="#F4C534"/>
<path d="M4.3818 11.1947C4.35869 10.8505 4.61912 10.5531 4.96324 10.53C5.90316 10.4669 6.80186 10.1876 7.6837 9.68163C6.5483 9.35053 5.97435 8.86389 5.94188 8.83577C5.68082 8.61025 5.65272 8.21544 5.8788 7.95494C6.10426 7.69381 6.49833 7.66507 6.76001 7.89122C6.76376 7.89434 7.60126 8.57652 9.32122 8.71146C9.5754 8.73145 9.79149 8.90449 9.86768 9.1475C9.94388 9.39051 9.86519 9.65601 9.66783 9.81719C8.21392 11.0091 6.65946 11.6688 5.04755 11.7769C4.66971 11.7925 4.40303 11.5176 4.3818 11.1947Z" fill="#3E4347"/>
<path d="M16.9537 11.7769C15.3418 11.6688 13.7873 11.0091 12.3328 9.81716C12.1354 9.65536 12.0567 9.38986 12.1329 9.14747C12.2091 8.90384 12.4258 8.73142 12.6794 8.71143C14.3987 8.57587 15.2375 7.89369 15.2456 7.88682C15.5085 7.66879 15.9013 7.70003 16.1237 7.96116C16.3448 8.22228 16.3173 8.61148 16.0581 8.83512C16.0256 8.86323 15.4517 9.34988 14.3163 9.68097C15.1981 10.1876 16.0975 10.4669 17.0374 10.5293C17.3815 10.5524 17.6419 10.8504 17.6188 11.194C17.597 11.5176 17.3309 11.7925 16.9537 11.7769Z" fill="#3E4347"/>
<path d="M15.9804 17.2875C15.6213 17.4573 13.764 15.9004 11.0004 15.9641C8.23623 15.9023 6.3795 17.4567 6.02039 17.2875C5.50828 17.1857 7.2045 14.1742 11.0004 14.1779C14.7957 14.176 16.4925 17.1857 15.9804 17.2875Z" fill="#3E4347"/>
</svg>
