<svg width="20" height="20" viewBox="0 0 20 20" fill="none" xmlns="http://www.w3.org/2000/svg">
<path d="M15.862 2.12108L2.95415 7.45832C2.41034 7.68315 2.04632 8.1875 2.00407 8.77441C1.96187 9.36137 2.24997 9.91261 2.75597 10.213L6.45534 12.2884C7.02155 11.7222 11.3904 8.60964 11.3904 8.60964C11.3904 8.60964 8.27785 12.9785 7.71165 13.5447L9.78701 17.244C10.0874 17.75 10.6386 18.0382 11.2256 17.9959C11.8137 17.9536 12.3172 17.5886 12.5417 17.0458L17.8789 4.13795C18.1219 3.55026 17.9935 2.90584 17.5438 2.45616C17.0942 2.00647 16.4497 1.87803 15.862 2.12108Z" fill="#93959C"/>
</svg>
