<svg width="20" height="20" viewBox="0 0 20 20" fill="none" xmlns="http://www.w3.org/2000/svg">
<path fill-rule="evenodd" clip-rule="evenodd" d="M17.7836 2.21969C17.9499 2.38597 18.0218 2.6109 17.9992 2.82789C17.9927 2.89099 17.9782 2.95342 17.9556 3.01354L12.885 17.501C12.7834 17.7913 12.515 17.9901 12.2077 18.0027C11.9004 18.0152 11.6167 17.8389 11.4918 17.5579L8.70827 11.295L2.4454 8.51152C2.16439 8.38663 1.98809 8.10285 2.00063 7.79559C2.01316 7.48833 2.21199 7.21986 2.50224 7.11827L16.9899 2.04759C17.0485 2.02566 17.1093 2.01131 17.1707 2.00455C17.2162 1.99952 17.2617 1.99869 17.3069 2.00193C17.4806 2.0143 17.6508 2.08689 17.7836 2.21969ZM14.399 4.54362L4.78331 7.90912L9.11037 9.83226L14.399 4.54362ZM10.171 10.8929L15.4597 5.60429L12.0942 15.22L10.171 10.8929Z" fill="#93959C"/>
</svg>
