<svg width="20" height="20" viewBox="0 0 20 20" xmlns="http://www.w3.org/2000/svg">
<path fill-rule="evenodd" clip-rule="evenodd" d="M13.6252 3.5C12.8382 3.5 12.2002 4.13799 12.2002 4.925C12.2002 5.17235 12.2632 5.40498 12.3741 5.60771C12.3813 5.61873 12.3883 5.63 12.395 5.64151C12.4017 5.653 12.4081 5.66459 12.4141 5.67628C12.6655 6.08074 13.1139 6.35 13.6252 6.35C14.4122 6.35 15.0502 5.71201 15.0502 4.925C15.0502 4.13799 14.4122 3.5 13.6252 3.5ZM11.5605 6.99687C12.0895 7.52409 12.8193 7.85 13.6252 7.85C15.2406 7.85 16.5502 6.54043 16.5502 4.925C16.5502 3.30957 15.2406 2 13.6252 2C12.0098 2 10.7002 3.30957 10.7002 4.925C10.7002 5.19381 10.7365 5.45416 10.8044 5.7014L6.98921 7.92784C6.46021 7.40091 5.73064 7.0752 4.925 7.0752C3.30957 7.0752 2 8.38476 2 10.0002C2 11.6156 3.30957 12.9252 4.925 12.9252C5.731 12.9252 6.46086 12.5992 6.98992 12.0718L10.8054 14.2952C10.7368 14.5436 10.7002 14.8052 10.7002 15.0754C10.7002 16.6908 12.0098 18.0004 13.6252 18.0004C15.2406 18.0004 16.5502 16.6908 16.5502 15.0754C16.5502 13.46 15.2406 12.1504 13.6252 12.1504C12.8207 12.1504 12.0921 12.4752 11.5633 13.0008L7.74592 10.7763C7.81377 10.5291 7.85 10.2689 7.85 10.0002C7.85 9.73114 7.81367 9.47058 7.74566 9.22313L11.5605 6.99687ZM6.1367 9.24989C6.14248 9.26103 6.14857 9.27209 6.15497 9.28305C6.16146 9.29417 6.16819 9.30507 6.17515 9.31573C6.28661 9.51887 6.35 9.75213 6.35 10.0002C6.35 10.2467 6.2874 10.4786 6.17722 10.6809C6.16944 10.6927 6.16193 10.7048 6.15473 10.7171C6.14772 10.7292 6.14108 10.7413 6.13481 10.7535C5.88313 11.1569 5.4354 11.4252 4.925 11.4252C4.13799 11.4252 3.5 10.7872 3.5 10.0002C3.5 9.21319 4.13799 8.5752 4.925 8.5752C5.43669 8.5752 5.88539 8.84489 6.1367 9.24989ZM12.2002 15.0754C12.2002 14.8437 12.2555 14.6249 12.3536 14.4315C12.3711 14.4082 12.3875 14.3836 12.4025 14.3578C12.4168 14.3332 12.4296 14.3081 12.4409 14.2826C12.6966 13.9013 13.1316 13.6504 13.6252 13.6504C14.4122 13.6504 15.0502 14.2884 15.0502 15.0754C15.0502 15.8624 14.4122 16.5004 13.6252 16.5004C12.8382 16.5004 12.2002 15.8624 12.2002 15.0754Z"/>
</svg>
