<svg width="22" height="22" viewBox="0 0 22 22" fill="none" xmlns="http://www.w3.org/2000/svg">
<path d="M11 21C16.5228 21 21 16.5228 21 11C21 5.47715 16.5228 1 11 1C5.47715 1 1 5.47715 1 11C1 16.5228 5.47715 21 11 21Z" fill="#FFD93B"/>
<path d="M21.0001 10.9998C21.0001 16.5248 16.5219 20.9998 11.0001 20.9998C7.85632 20.9998 5.05007 19.5498 3.2157 17.2779C4.93132 18.6654 7.1157 19.4936 9.49382 19.4936C15.0157 19.4936 19.4938 15.0186 19.4938 9.49358C19.4938 7.11545 18.6657 4.93108 17.2782 3.21545C19.5469 5.04983 21.0001 7.85608 21.0001 10.9998Z" fill="#F4C534"/>
<path d="M6.80816 13.3967C8.79294 13.3967 10.4019 11.6344 10.4019 9.46048C10.4019 7.28655 8.79294 5.52423 6.80816 5.52423C4.82339 5.52423 3.21442 7.28655 3.21442 9.46048C3.21442 11.6344 4.82339 13.3967 6.80816 13.3967Z" fill="#F4C534"/>
<path d="M9.98002 9.4606C10.1088 11.265 8.79315 12.7275 7.04128 12.7275C5.2894 12.7275 3.7644 11.265 3.63565 9.4606C3.5069 7.65622 4.82253 6.19373 6.57503 6.19373C8.3269 6.19373 9.85127 7.65622 9.98002 9.4606Z" fill="white"/>
<path d="M8.96502 10.67C8.3869 11.2481 7.4519 11.2481 6.86877 10.67C6.29065 10.0869 6.29065 9.15186 6.86877 8.56812C7.4519 7.98999 8.3869 7.98999 8.96502 8.56812C9.54815 9.15124 9.54815 10.0869 8.96502 10.67Z" fill="#3E4347"/>
<path d="M8.93372 9.39874C8.8131 9.50374 8.58685 9.42999 8.42435 9.24124C8.26685 9.05187 8.23497 8.81562 8.35622 8.71562C8.47685 8.61062 8.7031 8.68437 8.86622 8.87312C9.0231 9.06187 9.05435 9.29874 8.93372 9.39874Z" fill="#5A5F63"/>
<path d="M15.1919 13.3968C17.1767 13.3968 18.7856 11.6345 18.7856 9.4606C18.7856 7.28667 17.1767 5.52435 15.1919 5.52435C13.2071 5.52435 11.5981 7.28667 11.5981 9.4606C11.5981 11.6345 13.2071 13.3968 15.1919 13.3968Z" fill="#F4C534"/>
<path d="M12.0194 9.4606C11.8906 11.265 13.2063 12.7275 14.9581 12.7275C16.71 12.7275 18.235 11.265 18.3638 9.4606C18.4925 7.65622 17.1769 6.19373 15.425 6.19373C13.6731 6.19373 12.1488 7.65622 12.0194 9.4606Z" fill="white"/>
<path d="M13.035 10.67C13.6131 11.2481 14.5481 11.2481 15.1312 10.67C15.7094 10.0869 15.7094 9.15186 15.1312 8.56812C14.5481 7.98999 13.6125 7.98999 13.035 8.56812C12.4512 9.15124 12.4512 10.0869 13.035 10.67Z" fill="#3E4347"/>
<path d="M13.0662 9.39874C13.1868 9.50374 13.4131 9.42999 13.5756 9.24124C13.7331 9.05187 13.765 8.81562 13.6437 8.71562C13.5231 8.61062 13.2968 8.68437 13.1343 8.87312C12.9768 9.06187 12.9456 9.29874 13.0662 9.39874Z" fill="#5A5F63"/>
<path d="M11 18.4188C12.1542 18.4188 13.09 17.3722 13.09 16.0813C13.09 14.7903 12.1542 13.7438 11 13.7438C9.8457 13.7438 8.90997 14.7903 8.90997 16.0813C8.90997 17.3722 9.8457 18.4188 11 18.4188Z" fill="#3E4347"/>
</svg>
