<svg width="22" height="22" viewBox="0 0 22 22" fill="none" xmlns="http://www.w3.org/2000/svg">
<path d="M11 21C16.5228 21 21 16.5228 21 11C21 5.47715 16.5228 1 11 1C5.47715 1 1 5.47715 1 11C1 16.5228 5.47715 21 11 21Z" fill="#FFD93B"/>
<path d="M20.9997 10.9998C20.9997 16.5248 16.5216 20.9998 10.9997 20.9998C7.85595 20.9998 5.04971 19.5498 3.21533 17.2779C4.93096 18.6654 7.11533 19.4936 9.49345 19.4936C15.0153 19.4936 19.4935 15.0186 19.4935 9.49358C19.4935 7.11545 18.6653 4.93108 17.2778 3.21545C19.5466 5.04983 20.9997 7.85608 20.9997 10.9998Z" fill="#F4C534"/>
<path d="M6.75218 14.193C8.87606 14.193 10.5978 12.4712 10.5978 10.3473C10.5978 8.22345 8.87606 6.50171 6.75218 6.50171C4.6283 6.50171 2.90656 8.22345 2.90656 10.3473C2.90656 12.4712 4.6283 14.193 6.75218 14.193Z" fill="#F4C534"/>
<path d="M10.0444 10.3487C9.94314 12.1781 8.38815 13.66 6.57002 13.66C4.7519 13.66 3.35565 12.1775 3.4569 10.3487C3.55815 8.52 5.1194 7.03125 6.9369 7.03125C8.75502 7.03125 10.1456 8.51937 10.0444 10.3487Z" fill="white"/>
<path d="M7.06063 3.84874C7.06063 3.84874 5.02875 3.56312 2.89563 6.03249C2.89563 6.03249 4.275 1.60874 7.06063 3.84874Z" fill="#3E4347"/>
<path d="M14.9395 3.84856C14.9395 3.84856 16.9714 3.56293 19.1045 6.03231C19.1045 6.03231 17.7251 1.60856 14.9395 3.84856Z" fill="#3E4347"/>
<path d="M15.8226 17.9379C15.8226 20.0073 13.6639 17.9379 11.0001 17.9379C8.33636 17.9379 6.17761 20.0073 6.17761 17.9379C6.17761 15.2573 8.33699 14.191 11.0001 14.191C13.6632 14.191 15.8226 15.2573 15.8226 17.9379Z" fill="#3E4347"/>
<path d="M14.1206 18.6231C14.2112 18.3931 14.2537 18.1438 14.2187 17.8781C14.0956 16.9463 13.1694 16.2138 12.1312 16.1444C11.5406 16.105 10.9963 16.2806 10.6125 16.6013C10.4113 16.5175 10.1894 16.4663 9.94938 16.45C8.9475 16.3825 7.9625 16.9831 7.71813 17.8813C7.64375 18.1544 7.65563 18.4219 7.72313 18.6725C8.58375 18.4044 9.73313 17.9381 11 17.9381C12.1912 17.9381 13.2794 18.3506 14.1206 18.6231Z" fill="#E24B4B"/>
<path d="M6.55872 16.2181C7.66372 15.7525 9.20434 15.1369 10.9487 15.1369C12.7256 15.1369 14.3175 15.775 15.4525 16.2431C14.7262 14.7975 13.0068 14.1906 11 14.1906C9.00434 14.1912 7.29184 14.7906 6.55872 16.2181Z" fill="white"/>
<path d="M8.31064 10.3456C8.31439 11.2075 7.61252 11.9094 6.75064 11.9056C5.88877 11.9094 5.18627 11.2069 5.19002 10.345C5.18627 9.48311 5.88814 8.78124 6.75002 8.78499C7.61252 8.78186 8.31439 9.48374 8.31064 10.3456Z" fill="#3E4347"/>
<path d="M7.53563 9.56278C7.35379 9.38094 7.11181 9.32811 6.99514 9.44478C6.87847 9.56145 6.9313 9.80343 7.11314 9.98527C7.29498 10.1671 7.53696 10.2199 7.65363 10.1033C7.7703 9.9866 7.71747 9.74461 7.53563 9.56278Z" fill="white"/>
<path d="M15.2513 14.1931C17.3751 14.1931 19.0969 12.4714 19.0969 10.3475C19.0969 8.22364 17.3751 6.50189 15.2513 6.50189C13.1274 6.50189 11.4056 8.22364 11.4056 10.3475C11.4056 12.4714 13.1274 14.1931 15.2513 14.1931Z" fill="#F4C534"/>
<path d="M18.5425 10.3487C18.4413 12.1781 16.8863 13.66 15.0681 13.66C13.25 13.66 11.8538 12.1775 11.955 10.3487C12.0563 8.51936 13.6175 7.03186 15.435 7.03186C17.2538 7.03124 18.6444 8.51936 18.5425 10.3487Z" fill="white"/>
<path d="M16.8094 10.3456C16.8131 11.2075 16.1112 11.9094 15.2494 11.9056C14.3875 11.9094 13.685 11.2069 13.6894 10.345C13.6856 9.48311 14.3875 8.78124 15.2494 8.78499C16.1112 8.78186 16.8131 9.48374 16.8094 10.3456Z" fill="#3E4347"/>
<path d="M16.0335 9.56382C15.8517 9.38198 15.6097 9.32915 15.493 9.44582C15.3763 9.56249 15.4292 9.80447 15.611 9.98631C15.7928 10.1681 16.0348 10.221 16.1515 10.1043C16.2682 9.98764 16.2153 9.74565 16.0335 9.56382Z" fill="white"/>
</svg>
