<svg width="22" height="22" viewBox="0 0 22 22" fill="none" xmlns="http://www.w3.org/2000/svg">
<path d="M11 21C16.5228 21 21 16.5228 21 11C21 5.47715 16.5228 1 11 1C5.47715 1 1 5.47715 1 11C1 16.5228 5.47715 21 11 21Z" fill="#FFD93B"/>
<path d="M21 11C21 16.525 16.5219 21 11 21C7.85626 21 5.05001 19.55 3.21564 17.2781C4.93126 18.6656 7.11564 19.4938 9.49376 19.4938C15.0156 19.4938 19.4938 15.0188 19.4938 9.49376C19.4938 7.11564 18.6656 4.93126 17.2781 3.21564C19.5469 5.05001 21 7.85626 21 11Z" fill="#F4C534"/>
<path d="M11.7116 8.9298C11.0648 10.6385 12.1298 12.6248 14.091 13.3679C16.0473 14.1092 18.161 13.3267 18.8079 11.6179C19.4535 9.91355 18.3885 7.9273 16.4316 7.18667C14.471 6.44355 12.3573 7.22605 11.7116 8.9298Z" fill="#F4C534"/>
<path d="M14.8062 12.7519C16.2781 12.7519 17.4712 11.5587 17.4712 10.0869C17.4712 8.61504 16.2781 7.42188 14.8062 7.42188C13.3344 7.42188 12.1412 8.61504 12.1412 10.0869C12.1412 11.5587 13.3344 12.7519 14.8062 12.7519Z" fill="white"/>
<path d="M15.7756 10.2544C15.7806 11.1237 15.08 11.825 14.2106 11.8194C13.3462 11.8194 12.6406 11.1237 12.6406 10.2544C12.6406 9.38498 13.3462 8.68936 14.2106 8.68936C15.08 8.68436 15.7756 9.38998 15.7756 10.2544Z" fill="#3E4347"/>
<path d="M14.9616 9.50473C14.7947 9.33778 14.5673 9.29445 14.4538 9.40795C14.3403 9.52144 14.3837 9.74879 14.5506 9.91573C14.7176 10.0827 14.9449 10.126 15.0584 10.0125C15.1719 9.89902 15.1286 9.67168 14.9616 9.50473Z" fill="white"/>
<path d="M17.8138 6.14812C16.1725 6.44124 12.8494 6.67437 12.6094 3.83062C12.5975 3.69374 12.7744 3.62937 12.8556 3.73874C13.3388 4.37874 14.6275 5.53249 17.8013 5.87374C17.9606 5.89124 17.9719 6.11749 17.8138 6.14812Z" fill="#3E4347"/>
<path d="M10.1881 8.92998C10.835 10.6387 9.76999 12.625 7.80874 13.3681C5.85249 14.1094 3.73874 13.3269 3.09186 11.6181C2.44624 9.91373 3.51124 7.92748 5.46811 7.18686C7.42936 6.44373 9.54249 7.22623 10.1881 8.92998Z" fill="#F4C534"/>
<path d="M7.09127 12.7519C8.56311 12.7519 9.75627 11.5587 9.75627 10.0869C9.75627 8.61504 8.56311 7.42188 7.09127 7.42188C5.61943 7.42188 4.42627 8.61504 4.42627 10.0869C4.42627 11.5587 5.61943 12.7519 7.09127 12.7519Z" fill="white"/>
<path d="M9.26 10.2544C9.265 11.1237 8.56437 11.825 7.695 11.8194C6.83 11.8194 6.125 11.1237 6.125 10.2544C6.125 9.38498 6.83062 8.68936 7.695 8.68936C8.56437 8.68436 9.26 9.38998 9.26 10.2544Z" fill="#3E4347"/>
<path d="M8.44581 9.50485C8.27887 9.33791 8.05152 9.29457 7.93803 9.40807C7.82453 9.52156 7.86786 9.74891 8.03481 9.91585C8.20176 10.0828 8.4291 10.1261 8.5426 10.0126C8.65609 9.89914 8.61276 9.6718 8.44581 9.50485Z" fill="white"/>
<path d="M4.08624 6.14812C5.72749 6.44124 9.05061 6.67437 9.29061 3.83062C9.30248 3.69374 9.12561 3.62937 9.04436 3.73874C8.56123 4.37874 7.27249 5.53249 4.09936 5.87374C3.93936 5.89124 3.92811 6.11749 4.08624 6.14812Z" fill="#3E4347"/>
<path d="M16.0084 17.7804C15.2553 19.3773 10.9666 18.5817 6.59781 17.7323C6.29843 17.6736 6.10093 17.3904 6.14906 17.0911C6.48031 15.0773 8.22656 13.5392 10.3309 13.5392C12.5366 13.5392 15.6828 15.3123 16.0459 17.4754C16.0616 17.5773 16.0509 17.6898 16.0084 17.7804Z" fill="#3E4347"/>
<path d="M14.4244 18.6387C14.4244 18.6262 14.4262 18.6143 14.4262 18.6025C14.4262 17.8906 14.2006 17.2262 13.8169 16.6856C13.3031 15.9668 12.3856 15.6993 11.53 15.905C11.2562 15.9668 10.9687 16.0006 10.6606 16.0006C10.5237 16.0006 10.3937 15.9943 10.27 15.9868C9.45499 15.905 8.64061 16.2268 8.22249 16.9318C8.03561 17.2475 7.90624 17.5981 7.83374 17.97C10.4269 18.4606 12.8712 18.8506 14.4244 18.6387Z" fill="#E24B4B"/>
</svg>
