<svg width="22" height="22" viewBox="0 0 22 22" fill="none" xmlns="http://www.w3.org/2000/svg">
<path d="M11 21C16.5228 21 21 16.5228 21 11C21 5.47715 16.5228 1 11 1C5.47715 1 1 5.47715 1 11C1 16.5228 5.47715 21 11 21Z" fill="#FFD93B"/>
<path d="M21 11C21 16.525 16.5219 21 11 21C7.85625 21 5.05 19.55 3.21563 17.2781C4.93125 18.6656 7.11563 19.4938 9.49375 19.4938C15.0156 19.4938 19.4937 15.0188 19.4937 9.49376C19.4937 7.11564 18.6656 4.93126 17.2781 3.21564C19.5469 5.05001 21 7.85626 21 11Z" fill="#F4C534"/>
<path d="M10.6119 9.5969C10.6119 11.7 9.14938 13.4031 7.34625 13.4031C5.53688 13.4031 4.07438 11.7 4.07438 9.5969C4.07438 7.49377 5.53688 5.79065 7.34625 5.79065C9.14938 5.79065 10.6119 7.49377 10.6119 9.5969Z" fill="white"/>
<path d="M8.31687 11.1587C9.15289 11.1587 9.83062 10.4091 9.83062 9.48437C9.83062 8.55964 9.15289 7.81 8.31687 7.81C7.48085 7.81 6.80312 8.55964 6.80312 9.48437C6.80312 10.4091 7.48085 11.1587 8.31687 11.1587Z" fill="#3E4347"/>
<path d="M9.23375 8.93251C9.145 9.07126 8.925 9.09688 8.74625 8.98063C8.56688 8.87063 8.49188 8.66501 8.58063 8.52626C8.66438 8.38126 8.88313 8.36126 9.0625 8.47751C9.24125 8.58813 9.31625 8.79376 9.23375 8.93251Z" fill="#5A5F63"/>
<path d="M11.5744 9.5969C11.5744 11.7 13.0369 13.4031 14.84 13.4031C16.6494 13.4031 18.1119 11.7 18.1119 9.5969C18.1119 7.49377 16.6494 5.79065 14.84 5.79065C13.0369 5.79065 11.5744 7.49377 11.5744 9.5969Z" fill="white"/>
<path d="M13.8694 11.1587C14.7054 11.1587 15.3831 10.4091 15.3831 9.48437C15.3831 8.55964 14.7054 7.81 13.8694 7.81C13.0333 7.81 12.3556 8.55964 12.3556 9.48437C12.3556 10.4091 13.0333 11.1587 13.8694 11.1587Z" fill="#3E4347"/>
<path d="M14.7856 8.93251C14.6969 9.07126 14.4769 9.09688 14.2981 8.98063C14.1188 8.87063 14.0438 8.66501 14.1325 8.52626C14.2163 8.38126 14.435 8.36126 14.6144 8.47751C14.7938 8.58813 14.8687 8.79376 14.7856 8.93251Z" fill="#5A5F63"/>
<path d="M14.0969 16.2094C13.5881 15.2912 12.8231 14.4644 11.4294 14.4644C10.0356 14.4644 8.41125 15.2912 7.9025 16.2094C9.44688 15.1681 11.5113 15.1681 14.0969 16.2094Z" fill="#3E4347"/>
</svg>
