<svg width="22" height="22" viewBox="0 0 22 22" fill="none" xmlns="http://www.w3.org/2000/svg">
<path d="M11 21C16.5228 21 21 16.5228 21 11C21 5.47715 16.5228 1 11 1C5.47715 1 1 5.47715 1 11C1 16.5228 5.47715 21 11 21Z" fill="#FFD93B"/>
<path d="M21 11C21 16.525 16.5219 21 11 21C7.85629 21 5.05004 19.55 3.21567 17.2781C4.93129 18.6656 7.11567 19.4938 9.49379 19.4938C15.0157 19.4938 19.4938 15.0188 19.4938 9.49376C19.4938 7.11564 18.6657 4.93126 17.2782 3.21564C19.5469 5.05001 21 7.85626 21 11Z" fill="#F4C534"/>
<path d="M10.6131 9.65565C10.7544 11.4081 9.73501 12.8281 8.33564 12.8281C6.93689 12.8281 5.68814 11.4075 5.54689 9.65565C5.40564 7.90315 6.42501 6.48315 7.82376 6.48315C9.22251 6.48315 10.4719 7.90315 10.6131 9.65565Z" fill="#F4C534"/>
<path d="M10.1863 9.65745C10.1863 11.1793 9.24375 12.4174 8.0775 12.4174C6.91625 12.4174 5.97375 11.1793 5.97375 9.65745C5.97375 8.12995 6.91625 6.89246 8.0775 6.89246C9.24438 6.89183 10.1863 8.12995 10.1863 9.65745Z" fill="white"/>
<path d="M8.30191 11.4551C9.13103 11.4551 9.80316 10.678 9.80316 9.71945C9.80316 8.76089 9.13103 7.98383 8.30191 7.98383C7.47279 7.98383 6.80066 8.76089 6.80066 9.71945C6.80066 10.678 7.47279 11.4551 8.30191 11.4551Z" fill="#3E4347"/>
<path d="M8.02555 8.52887C7.84833 8.42438 7.58345 8.54529 7.4339 8.79891C7.28436 9.05254 7.30679 9.34285 7.484 9.44734C7.66121 9.55183 7.9261 9.43093 8.07564 9.1773C8.22519 8.92367 8.20276 8.63336 8.02555 8.52887Z" fill="#5A5F63"/>
<path d="M4.97816 7.49491C4.94004 7.46866 7.21754 4.64555 9.32254 5.56179C8.62566 4.31617 6.77504 3.44617 4.97816 7.49491Z" fill="#3E4347"/>
<path d="M11.3868 9.65559C11.2456 11.4081 12.2649 12.8281 13.6643 12.8281C15.0631 12.8281 16.3118 11.4075 16.4531 9.65559C16.5943 7.90309 15.5749 6.48309 14.1762 6.48309C12.7768 6.48247 11.5281 7.90309 11.3868 9.65559Z" fill="#F4C534"/>
<path d="M11.8131 9.65745C11.8131 11.1793 12.7556 12.4174 13.9219 12.4174C15.0831 12.4174 16.0256 11.1793 16.0256 9.65745C16.0256 8.12995 15.0831 6.89246 13.9219 6.89246C12.7556 6.89183 11.8131 8.12995 11.8131 9.65745Z" fill="white"/>
<path d="M13.6981 11.4551C14.5272 11.4551 15.1994 10.678 15.1994 9.71945C15.1994 8.76089 14.5272 7.98383 13.6981 7.98383C12.869 7.98383 12.1969 8.76089 12.1969 9.71945C12.1969 10.678 12.869 11.4551 13.6981 11.4551Z" fill="#3E4347"/>
<path d="M14.5652 8.79973C14.4156 8.54607 14.1508 8.42513 13.9735 8.5296C13.7963 8.63406 13.7738 8.92438 13.9233 9.17804C14.0729 9.4317 14.3377 9.55264 14.515 9.44817C14.6922 9.34371 14.7147 9.05339 14.5652 8.79973Z" fill="#5A5F63"/>
<path d="M17.0218 7.49491C17.0599 7.46866 14.7824 4.64555 12.6774 5.56179C13.3743 4.31617 15.2249 3.44617 17.0218 7.49491Z" fill="#3E4347"/>
<path d="M13.0231 19.0612C11.5281 19.4343 10.3437 19.4562 8.75434 19.0362C8.56934 17.4162 8.80434 15.5675 9.20434 14.0174C10.7012 13.7274 11.5112 13.8006 12.5856 13.9987C13.3 15.8556 13.5618 17.175 13.0231 19.0612Z" fill="#3E4347"/>
<path d="M12.3276 18.7038C12.3788 18.4269 12.4076 18.1888 12.4076 18.0544C12.4076 17.5338 11.9882 17.1144 11.4676 17.1144C11.2432 17.1144 11.0401 17.195 10.8788 17.3263C10.7432 17.25 10.5907 17.2081 10.4257 17.2081C9.90506 17.2081 9.48569 17.6269 9.48569 18.1481C9.48569 18.2675 9.50881 18.4681 9.54881 18.7044H12.3276V18.7038Z" fill="#E24B4B"/>
<path d="M12.5794 14.8944C12.5113 14.6906 12.4369 14.4837 12.3557 14.2737C11.3907 14.0875 10.4263 14.0906 9.46128 14.2831C9.41315 14.4937 9.36878 14.7031 9.3269 14.9112C10.4113 15.0112 11.4957 15.0069 12.5794 14.8944Z" fill="white"/>
<path d="M9.01505 18.3681C9.02192 18.5093 9.03005 18.65 9.04317 18.79C10.2869 19.1094 11.5307 19.1137 12.7744 18.8025C12.8176 18.6531 12.8482 18.5056 12.8788 18.3587C11.5907 18.2225 10.3026 18.2243 9.01505 18.3681Z" fill="white"/>
</svg>
