<svg width="22" height="22" viewBox="0 0 22 22" fill="none" xmlns="http://www.w3.org/2000/svg">
<path d="M10.6644 20.3288C16.0019 20.3288 20.3288 16.0019 20.3288 10.6644C20.3288 5.3269 16.0019 1 10.6644 1C5.3269 1 1 5.3269 1 10.6644C1 16.0019 5.3269 20.3288 10.6644 20.3288Z" fill="#FFD93B"/>
<path d="M20.3282 10.6644C20.3282 16.0038 16.0007 20.3288 10.6638 20.3288C7.62564 20.3288 4.91375 18.9275 3.14062 16.7319C4.79875 18.0731 6.91001 18.8732 9.20814 18.8732C14.5444 18.8732 18.8725 14.5481 18.8725 9.20875C18.8725 6.91062 18.0725 4.79936 16.7313 3.14124C18.9244 4.91374 20.3282 7.62562 20.3282 10.6644Z" fill="#F4C534"/>
<path d="M15.4819 16.4725C12.1432 14.905 9.02753 14.9844 5.84689 16.4725C7.7594 13.9625 13.1819 13.8607 15.4819 16.4725Z" fill="#3E4347"/>
<path d="M20.6682 9.16814C20.23 8.73564 19.5238 8.74064 19.0919 9.17814L14.2381 14.0969C13.915 14.4244 13.8319 14.9032 13.9994 15.3025L13.5381 15.77C13.8394 15.855 14.1031 16.0125 14.3244 16.2213L14.6231 15.9188C15.0238 16.0807 15.5019 15.9913 15.825 15.6638L20.6788 10.745C21.1113 10.3056 21.1063 9.60064 20.6682 9.16814Z" fill="#E9EFF4"/>
<path d="M19.6838 9.76252L16.9475 12.535C16.6394 12.8475 17.0419 13.245 17.35 12.9325L20.0863 10.16C20.1957 10.0488 20.1944 9.87002 20.0838 9.76002C19.9732 9.65064 19.7938 9.65127 19.6838 9.76252Z" fill="#E24B4B"/>
<path d="M14.9357 14.1768C14.9144 14.1987 14.8794 14.1993 14.8576 14.1774L14.6826 14.0049C14.6607 13.9831 14.6607 13.9487 14.6819 13.9268C14.7032 13.9049 14.7382 13.9043 14.7601 13.9262L14.9351 14.0987C14.9569 14.1199 14.9569 14.1549 14.9357 14.1768Z" fill="#3E4347"/>
<path d="M15.3688 13.9356C15.3476 13.9575 15.3126 13.9581 15.2907 13.9362L15.0163 13.6656C14.9945 13.6437 14.9945 13.6093 15.0157 13.5875C15.037 13.5656 15.072 13.565 15.0938 13.5868L15.3682 13.8575C15.3907 13.8793 15.3907 13.9143 15.3688 13.9356Z" fill="#3E4347"/>
<path d="M15.6038 13.4993C15.5826 13.5212 15.5476 13.5218 15.5257 13.5L15.3507 13.3275C15.3288 13.3056 15.3288 13.2712 15.3507 13.2493C15.3719 13.2275 15.4069 13.2268 15.4288 13.2487L15.6038 13.4212C15.6257 13.4431 15.6257 13.4775 15.6038 13.4993Z" fill="#3E4347"/>
<path d="M16.0376 13.2581C16.0163 13.28 15.9813 13.2806 15.9595 13.2587L15.6851 12.9881C15.6632 12.9662 15.6632 12.9318 15.6851 12.91C15.7063 12.8881 15.7413 12.8875 15.7632 12.9093L16.0376 13.18C16.0588 13.2018 16.0588 13.2362 16.0376 13.2581Z" fill="#3E4347"/>
<path d="M16.2726 12.8218C16.2514 12.8437 16.2164 12.8443 16.1945 12.8225L16.0195 12.65C15.9976 12.6281 15.9976 12.5937 16.0189 12.5718C16.0401 12.55 16.0751 12.5493 16.097 12.5712L16.272 12.7437C16.2945 12.7656 16.2939 12.8 16.2726 12.8218Z" fill="#3E4347"/>
<path d="M16.7063 12.5806C16.6851 12.6025 16.6501 12.6031 16.6282 12.5812L16.3538 12.3106C16.3319 12.2887 16.3319 12.2544 16.3538 12.2325C16.3751 12.2106 16.4101 12.21 16.4319 12.2319L16.7063 12.5025C16.7276 12.5244 16.7276 12.5594 16.7063 12.5806Z" fill="#3E4347"/>
<path d="M16.9413 12.1443C16.9201 12.1662 16.8851 12.1668 16.8632 12.145L16.6882 11.9725C16.6663 11.9506 16.6663 11.9162 16.6882 11.8943C16.7095 11.8725 16.7445 11.8718 16.7663 11.8937L16.9413 12.0662C16.9632 12.0875 16.9626 12.1225 16.9413 12.1443Z" fill="#3E4347"/>
<path d="M17.3745 11.9031C17.3532 11.925 17.3182 11.9256 17.2964 11.9037L17.022 11.6331C17.0001 11.6112 17.0001 11.5769 17.0214 11.555C17.0426 11.5331 17.0776 11.5325 17.0995 11.5544L17.3739 11.825C17.3964 11.8469 17.3964 11.8819 17.3745 11.9031Z" fill="#3E4347"/>
<path d="M17.6101 11.4669C17.5888 11.4887 17.5538 11.4894 17.5319 11.4675L17.3569 11.295C17.3351 11.2731 17.3351 11.2387 17.3563 11.2169C17.3776 11.195 17.4126 11.1944 17.4344 11.2162L17.6094 11.3887C17.6313 11.41 17.6313 11.445 17.6101 11.4669Z" fill="#3E4347"/>
<path d="M18.0432 11.2256C18.022 11.2474 17.987 11.2481 17.9651 11.2262L17.6907 10.9556C17.6688 10.9337 17.6688 10.8993 17.6907 10.8774C17.712 10.8556 17.747 10.8549 17.7688 10.8768L18.0432 11.1474C18.0645 11.1693 18.0645 11.2037 18.0432 11.2256Z" fill="#3E4347"/>
<path d="M18.2782 10.7894C18.2569 10.8112 18.2219 10.8119 18.2001 10.79L18.0251 10.6175C18.0032 10.5956 18.0032 10.5612 18.0251 10.5394C18.0463 10.5175 18.0813 10.5169 18.1032 10.5387L18.2782 10.7112C18.3001 10.7325 18.3001 10.7675 18.2782 10.7894Z" fill="#3E4347"/>
<path d="M18.7119 10.5481C18.6907 10.57 18.6557 10.5706 18.6338 10.5487L18.3601 10.2781C18.3382 10.2562 18.3382 10.2218 18.3594 10.1999C18.3807 10.1781 18.4157 10.1774 18.4376 10.1993L18.7119 10.47C18.7332 10.4912 18.7332 10.5262 18.7119 10.5481Z" fill="#3E4347"/>
<path d="M18.947 10.1118C18.9257 10.1337 18.8907 10.1343 18.8688 10.1124L18.6938 9.93994C18.672 9.91806 18.672 9.88369 18.6938 9.86181C18.7151 9.83994 18.7501 9.83932 18.772 9.86119L18.947 10.0337C18.9688 10.0549 18.9682 10.0899 18.947 10.1118Z" fill="#3E4347"/>
<path d="M19.3801 9.87059C19.3588 9.89246 19.3238 9.89309 19.302 9.87121L19.0276 9.60058C19.0057 9.57871 19.0057 9.54433 19.0276 9.52246C19.0488 9.50058 19.0838 9.49996 19.1057 9.52183L19.3801 9.79246C19.402 9.81371 19.402 9.84871 19.3801 9.87059Z" fill="#3E4347"/>
<path d="M8.06429 13.081C9.87776 13.081 11.3479 11.6109 11.3479 9.79748C11.3479 7.98402 9.87776 6.51392 8.06429 6.51392C6.25083 6.51392 4.78073 7.98402 4.78073 9.79748C4.78073 11.6109 6.25083 13.081 8.06429 13.081Z" fill="#F4C534"/>
<path d="M5.25503 9.80004C5.34128 11.3619 6.66941 12.6275 8.22128 12.6275C9.77316 12.6275 10.9657 11.3619 10.8794 9.80004C10.7932 8.23816 9.46004 6.96753 7.90816 6.96753C6.35566 6.96753 5.16815 8.23816 5.25503 9.80004Z" fill="white"/>
<path d="M6.73503 9.79754C6.7319 10.5332 7.33128 11.1325 8.06753 11.1294C8.80378 11.1325 9.40316 10.5332 9.40003 9.79692C9.40316 9.06067 8.80378 8.46191 8.06753 8.46504C7.33128 8.46191 6.7319 9.06129 6.73503 9.79754Z" fill="#3E4347"/>
<path d="M7.85886 9.02842C7.75927 8.92883 7.5527 8.97395 7.39747 9.12918C7.24224 9.28441 7.19713 9.49098 7.29671 9.59056C7.39629 9.69015 7.60286 9.64503 7.75809 9.4898C7.91333 9.33457 7.95844 9.128 7.85886 9.02842Z" fill="white"/>
<path d="M10.3713 7.48129C8.27126 7.37316 6.42188 8.00254 4.82437 9.36942C4.87125 9.02692 4.95687 8.68192 5.12 8.35004C5.92 6.72504 7.88813 6.04941 9.51376 6.84879C9.84501 7.01191 10.1231 7.23316 10.3713 7.48129Z" fill="#F4C534"/>
<path d="M6.30453 12.5482C6.40704 12.6138 6.50329 12.6869 6.61516 12.7419C8.24141 13.5419 10.2127 12.8757 11.0127 11.2494C11.0683 11.1363 11.1008 11.0182 11.142 10.9019C9.65329 11.8175 8.04079 12.3669 6.30453 12.5482Z" fill="#F4C534"/>
<path d="M14.1199 12.6692C15.4995 12.6692 16.618 11.5508 16.618 10.1711C16.618 8.79142 15.4995 7.67297 14.1199 7.67297C12.7402 7.67297 11.6217 8.79142 11.6217 10.1711C11.6217 11.5508 12.7402 12.6692 14.1199 12.6692Z" fill="#F4C534"/>
<path d="M16.2582 10.1732C16.1926 11.3613 15.1819 12.3238 14.0013 12.3238C12.8207 12.3238 11.9132 11.3613 11.9794 10.1732C12.045 8.98505 13.0594 8.0188 14.2401 8.0188C15.4207 8.01817 16.3238 8.98505 16.2582 10.1732Z" fill="white"/>
<path d="M14.1188 11.1838C14.6787 11.1838 15.1325 10.7299 15.1325 10.17C15.1325 9.61012 14.6787 9.15625 14.1188 9.15625C13.5589 9.15625 13.105 9.61012 13.105 10.17C13.105 10.7299 13.5589 11.1838 14.1188 11.1838Z" fill="#3E4347"/>
<path d="M14.6278 9.66203C14.5096 9.5439 14.3523 9.50967 14.2764 9.58558C14.2005 9.66149 14.2347 9.81879 14.3529 9.93692C14.471 10.0551 14.6283 10.0893 14.7042 10.0134C14.7801 9.93747 14.7459 9.78017 14.6278 9.66203Z" fill="white"/>
<path d="M12.1412 8.6651C13.7125 8.3651 15.1712 8.6476 16.5175 9.51135C16.4468 9.25823 16.3462 9.00698 16.1887 8.77385C15.4168 7.6326 13.8631 7.3276 12.7218 8.09948C12.4887 8.25698 12.3025 8.4526 12.1412 8.6651Z" fill="#F4C534"/>
<path d="M15.7331 12.0607C15.6624 12.1207 15.5981 12.1857 15.5193 12.2388C14.3774 13.0107 12.8224 12.7138 12.0506 11.5713C11.9968 11.4919 11.9606 11.4063 11.9168 11.3226C13.1337 11.8588 14.4056 12.1051 15.7331 12.0607Z" fill="#F4C534"/>
<path d="M13.1631 5.10749C13.1631 5.10749 15.97 5.29686 17.5181 7.24624C17.5181 7.24624 15.335 2.74686 13.1631 5.10749Z" fill="#3E4347"/>
<path d="M8.16501 5.10749C8.16501 5.10749 5.35813 5.29686 3.81 7.24624C3.81062 7.24624 5.99313 2.74686 8.16501 5.10749Z" fill="#3E4347"/>
<path d="M14.9044 18.5657C14.5663 20.2275 13.1775 20.8294 12.2419 20.3619C10.4657 19.4738 11.7519 16.69 11.21 15.6413C11.0732 15.3757 10.6994 15.3269 10.6994 15.3269C10.6994 14.2775 11.9769 13.9438 12.4232 14.4332C12.6707 14.7307 12.6588 14.7594 13.07 14.5988C14.6607 13.9775 15.2807 16.7944 14.9044 18.5657Z" fill="#E24B4B"/>
</svg>
