<svg width="22" height="22" viewBox="0 0 22 22" fill="none" xmlns="http://www.w3.org/2000/svg">
<path d="M11 21C16.5228 21 21 16.5228 21 11C21 5.47715 16.5228 1 11 1C5.47715 1 1 5.47715 1 11C1 16.5228 5.47715 21 11 21Z" fill="#FFD93B"/>
<path d="M21 11C21 16.525 16.5219 21 11 21C7.85623 21 5.04998 19.55 3.21561 17.2781C4.93123 18.6656 7.11561 19.4938 9.49373 19.4938C15.0156 19.4938 19.4937 15.0188 19.4937 9.49376C19.4937 7.11564 18.6656 4.93126 17.2781 3.21564C19.5469 5.05001 21 7.85626 21 11Z" fill="#F4C534"/>
<path d="M15.9106 15.0569C15.9106 17.9613 13.0431 18.9363 10.9987 18.9363C8.95936 18.9363 6.09186 17.9613 6.09186 15.0569C6.09186 13.7994 7.80498 12.8057 9.74061 13.0332C10.5794 13.1382 11.4287 13.1382 12.2619 13.0332C14.235 12.8075 15.9106 13.8138 15.9106 15.0569Z" fill="#3E4347"/>
<path d="M11.0012 14.6906C12.8244 14.6906 14.455 14.545 15.5594 14.1119C14.9687 13.3569 13.6956 12.8694 12.2625 13.0337C11.4287 13.1387 10.58 13.1387 9.74123 13.0337C8.33123 12.8675 7.04185 13.3519 6.44498 14.1125C7.5481 14.545 9.1781 14.6906 11.0012 14.6906Z" fill="white"/>
<path d="M11.2106 15.91C10.1369 16.4569 9.10876 15.7231 8.55126 16.91C8.32564 17.4 8.26439 17.9006 8.32501 18.3725C9.18564 18.7675 10.1613 18.9362 10.9988 18.9362C11.8388 18.9362 12.8156 18.7681 13.6775 18.3725C13.8838 16.7625 12.5725 15.2119 11.2106 15.91Z" fill="#E24B4B"/>
<path d="M10.0237 8.88997C9.25436 8.14435 8.16811 7.68122 6.96561 7.68122C5.75999 7.68122 4.67749 8.14435 3.91124 8.88685C3.80874 8.9856 3.64186 8.86997 3.69311 8.73372C4.18999 7.41247 5.46749 6.47247 6.96561 6.47247C8.46061 6.47247 9.74061 7.41247 10.2412 8.73685C10.2925 8.8731 10.1256 8.98872 10.0237 8.88997Z" fill="#3E4347"/>
<path d="M18.0887 8.88997C17.3193 8.14435 16.2331 7.68122 15.0306 7.68122C13.825 7.68122 12.7425 8.14435 11.9762 8.88685C11.8743 8.9856 11.7068 8.86997 11.7581 8.73372C12.255 7.41247 13.5325 6.47247 15.0306 6.47247C16.5256 6.47247 17.8062 7.41247 18.3062 8.73685C18.3575 8.8731 18.1906 8.98872 18.0887 8.88997Z" fill="#3E4347"/>
<path d="M20.3362 15.7082C19.9206 15.5182 19.1044 15.1682 18.6262 15.125L18.2694 17.625C18.2031 18.0888 17.6237 18.3888 16.9744 18.2963C16.3225 18.2032 15.85 17.7532 15.9162 17.2894C15.9819 16.8275 16.5619 16.5288 17.2131 16.6219C17.3969 16.6482 17.5681 16.7038 17.715 16.7807L18.0737 14.2669C18.1187 13.9513 18.4462 13.7632 18.7412 13.8813C19.29 14.1013 20.0837 14.575 20.4962 15.5507C20.5394 15.6525 20.435 15.7544 20.3362 15.7082Z" fill="#3E4347"/>
<path d="M20.2843 10.9637C19.9974 10.8456 19.4343 10.63 19.1087 10.6131L18.9337 12.3187C18.9012 12.6356 18.5162 12.8544 18.0731 12.8087C17.6287 12.7631 17.2962 12.47 17.3281 12.1531C17.3606 11.8381 17.7456 11.62 18.1899 11.6656C18.3156 11.6787 18.4331 11.7119 18.5343 11.76L18.7099 10.045C18.7318 9.82999 18.9493 9.69374 19.1524 9.76562C19.5306 9.90062 20.0818 10.2006 20.3881 10.8519C20.4206 10.9206 20.3531 10.9925 20.2843 10.9637Z" fill="#3E4347"/>
</svg>
