<svg width="22" height="22" viewBox="0 0 22 22" fill="none" xmlns="http://www.w3.org/2000/svg">
<path d="M11 21C16.5228 21 21 16.5228 21 11C21 5.47715 16.5228 1 11 1C5.47715 1 1 5.47715 1 11C1 16.5228 5.47715 21 11 21Z" fill="#FFD93B"/>
<path d="M21 11C21 16.525 16.5219 21 11 21C7.85626 21 5.05001 19.55 3.21564 17.2781C4.93126 18.6656 7.11564 19.4938 9.49376 19.4938C15.0156 19.4938 19.4938 15.0188 19.4938 9.49376C19.4938 7.11564 18.6656 4.93126 17.2781 3.21564C19.5469 5.05001 21 7.85626 21 11Z" fill="#F4C534"/>
<path d="M10.1837 9.75C9.64311 10.8056 8.34311 11.55 6.83561 11.55C5.32436 11.55 4.03186 10.8094 3.48748 9.7575C3.40998 9.60563 3.59498 9.44625 3.73561 9.54625C4.53561 10.1281 5.62811 10.4831 6.83561 10.4831C8.04311 10.4831 9.13936 10.1238 9.93936 9.53875C10.0762 9.43875 10.265 9.59813 10.1837 9.75Z" fill="#3E4347"/>
<path d="M18.5106 9.75C17.97 10.8056 16.67 11.55 15.1625 11.55C13.6513 11.55 12.3588 10.8094 11.8144 9.7575C11.7369 9.60563 11.9219 9.44625 12.0625 9.54625C12.8625 10.1281 13.955 10.4831 15.1625 10.4831C16.37 10.4831 17.4663 10.1238 18.2663 9.53875C18.4038 9.43875 18.5925 9.59813 18.5106 9.75Z" fill="#3E4347"/>
<path d="M19.1638 7.15371C15.9132 5.00184 12.8332 5.68621 11.2407 6.64184C11.0788 6.73934 10.8988 6.72309 10.7438 6.62684C9.16503 5.64559 6.07128 5.00934 2.83566 7.15371C2.57253 7.33433 2.47503 6.99621 2.70816 6.79996C4.98066 4.86684 8.67503 3.07247 11 6.34559C13.325 3.07247 17.0194 4.86622 19.2919 6.79996C19.525 6.99621 19.4269 7.33433 19.1638 7.15371Z" fill="#3E4347"/>
<path d="M13.4499 15.6693C13.4499 17.0255 12.3562 18.1255 10.9999 18.1255C9.64368 18.1255 8.54993 17.0255 8.54993 15.6693C8.54993 14.3193 9.64368 13.2193 10.9999 13.2193C12.3562 13.2193 13.4499 14.3193 13.4499 15.6693Z" fill="#3E4347"/>
<path d="M15.8686 18.2569H17.3999V18.9131H14.7936V18.2881L14.8249 18.2569L16.1999 16.7569H14.9686V16.0944H17.3374V16.6569L15.8686 18.2569Z" fill="#E24B4B"/>
<path d="M20.9186 15.3943V16.1881H17.5686V15.4131L17.5999 15.3818L19.4561 13.3443H17.7999V12.5506H20.8374V13.2381L18.8686 15.3943H20.9186Z" fill="#E24B4B"/>
</svg>
