<svg width="20" height="20" viewBox="0 0 20 20" fill="none" xmlns="http://www.w3.org/2000/svg">
<path fill-rule="evenodd" clip-rule="evenodd" d="M7.01087 3.5C6.72872 3.5 6.5 3.72872 6.5 4.01087V15.9891C6.5 16.2713 6.72872 16.5 7.01087 16.5H13.3152C13.5974 16.5 13.8261 16.2713 13.8261 15.9891V4.01087C13.8261 3.72872 13.5974 3.5 13.3152 3.5H12.5179L12.3311 3.87345C12.2041 4.12754 11.9444 4.28804 11.6603 4.28804H8.50815C8.22407 4.28804 7.96438 4.12754 7.83733 3.87345L7.65061 3.5H7.01087ZM5 4.01087C5 2.9003 5.9003 2 7.01087 2H13.3152C14.4258 2 15.3261 2.9003 15.3261 4.01087V15.9891C15.3261 17.0997 14.4258 18 13.3152 18H7.01087C5.9003 18 5 17.0997 5 15.9891V4.01087Z" fill="#93959C"/>
</svg>
