<svg width="22" height="22" viewBox="0 0 22 22" fill="none" xmlns="http://www.w3.org/2000/svg">
<path d="M11 21C16.5228 21 21 16.5228 21 11C21 5.47715 16.5228 1 11 1C5.47715 1 1 5.47715 1 11C1 16.5228 5.47715 21 11 21Z" fill="#FFD93B"/>
<path d="M20.9525 11C20.9525 16.525 16.4743 21 10.9525 21C7.80872 21 5.00247 19.55 3.16809 17.2781C4.88372 18.6656 7.06809 19.4938 9.44622 19.4938C14.9681 19.4938 19.4462 15.0188 19.4462 9.49376C19.4462 7.11564 18.6181 4.93126 17.2306 3.21564C19.4993 5.05001 20.9525 7.85626 20.9525 11Z" fill="#F4C534"/>
<path d="M15.5169 15.1812C15.6181 17.2468 14.1738 18.1093 10.9969 18.1093C7.82627 18.1093 6.38252 17.2493 6.48314 15.1812C6.38127 13.1043 7.79877 12.2537 10.9969 12.2537C14.1738 12.2537 15.6188 13.1056 15.5169 15.1812Z" fill="#3E4347"/>
<path d="M10.3217 15.2993C10.7736 15.3187 11.2261 15.3193 11.6773 15.2993C11.618 14.4618 11.5917 13.6268 11.5742 12.7924C11.3848 12.783 11.1923 12.7749 10.9961 12.7755C10.8023 12.7755 10.6117 12.7812 10.4242 12.7924C10.408 13.6268 10.3817 14.4618 10.3217 15.2993Z" fill="white"/>
<path d="M13.9317 13.3274C13.933 13.8686 13.9705 14.4186 14.063 14.978C14.3573 14.9093 14.6511 14.8205 14.9473 14.7224C14.833 14.133 14.508 13.6468 13.9317 13.3274Z" fill="white"/>
<path d="M13.6648 15.6337C13.1961 15.7112 12.7217 15.7624 12.2442 15.793C12.3005 16.3524 12.3848 16.9143 12.5042 17.4768C13.1517 17.3774 13.6867 17.2018 14.0805 16.9443C13.9048 16.5012 13.7692 16.0643 13.6648 15.6337Z" fill="white"/>
<path d="M12.1986 15.2649C12.6499 15.2305 13.1005 15.1718 13.5486 15.088C13.423 14.4068 13.3686 13.7387 13.3524 13.0799C13.0061 12.9662 12.6049 12.8887 12.1636 12.8399C12.1367 13.6462 12.1411 14.4537 12.1986 15.2649Z" fill="white"/>
<path d="M14.1736 15.5368C14.2542 15.8862 14.3573 16.2387 14.488 16.5962C14.7942 16.2537 14.9555 15.8112 14.9855 15.3293C14.7155 15.4105 14.4455 15.4799 14.1736 15.5368Z" fill="white"/>
<path d="M8.06798 13.3262C7.49173 13.6437 7.1661 14.1305 7.05298 14.7218C7.3486 14.8212 7.64235 14.9074 7.93673 14.9774C8.02985 14.418 8.06735 13.8687 8.06798 13.3262Z" fill="white"/>
<path d="M7.01483 15.3293C7.04483 15.8118 7.20546 16.2524 7.51171 16.5968C7.64233 16.2399 7.74608 15.8862 7.82608 15.5368C7.55483 15.4774 7.28421 15.4093 7.01483 15.3293Z" fill="white"/>
<path d="M11.7199 15.8224C11.4805 15.8318 11.2405 15.8362 10.9999 15.8362C10.7599 15.8368 10.5205 15.8306 10.2805 15.8224C10.2292 16.3968 10.1605 16.9712 10.0655 17.5474C10.3636 17.5712 10.6767 17.5862 10.9967 17.5868C11.3192 17.5868 11.6336 17.5731 11.9342 17.5468C11.8399 16.9706 11.7705 16.3962 11.7199 15.8224Z" fill="white"/>
<path d="M8.64736 13.0787C8.63111 13.738 8.57674 14.4068 8.45111 15.088C8.89986 15.173 9.34986 15.228 9.80111 15.2649C9.85861 14.4543 9.86299 13.6462 9.83549 12.8399C9.39424 12.8874 8.99361 12.968 8.64736 13.0787Z" fill="white"/>
<path d="M9.75544 15.793C9.27731 15.7593 8.80356 15.7124 8.33481 15.6337C8.23044 16.0655 8.09481 16.5024 7.91919 16.9449C8.31294 17.2049 8.84794 17.378 9.49606 17.478C9.61481 16.9149 9.69919 16.353 9.75544 15.793Z" fill="white"/>
<path d="M9.97252 10.39C9.97252 10.4338 9.97252 10.4838 9.96627 10.5275C9.56002 10.1213 8.67877 9.84003 7.65377 9.84003C6.62877 9.84003 5.74752 10.1213 5.34127 10.5275C5.33502 10.4838 5.33502 10.4338 5.33502 10.39C5.33502 8.70253 6.37252 7.34003 7.65377 7.34003C8.93502 7.34003 9.97252 8.70253 9.97252 10.39Z" fill="#3E4347"/>
<path d="M16.6651 10.3901C16.6651 10.4338 16.6651 10.4838 16.6588 10.5276C16.2526 10.1213 15.3713 9.84009 14.3463 9.84009C13.3213 9.84009 12.4401 10.1213 12.0338 10.5276C12.0276 10.4838 12.0276 10.4338 12.0276 10.3901C12.0276 8.70259 13.0651 7.34009 14.3463 7.34009C15.6276 7.34009 16.6651 8.70259 16.6651 10.3901Z" fill="#3E4347"/>
</svg>
