<svg width="20" height="20" viewBox="0 0 20 20" fill="none" xmlns="http://www.w3.org/2000/svg">
<path fill-rule="evenodd" clip-rule="evenodd" d="M2.25945 6.4061C1.93519 6.70135 1.91168 7.20356 2.20693 7.52782C2.50218 7.85208 3.00439 7.87559 3.32865 7.58034L5.20615 5.8708V16.206C5.20615 16.6445 5.56165 17 6.00019 17C6.43873 17 6.79423 16.6445 6.79423 16.206V5.8708L8.67173 7.58034C8.99599 7.87559 9.4982 7.85208 9.79345 7.52782C10.0887 7.20356 10.0652 6.70135 9.74092 6.4061L6.00019 3L2.25945 6.4061ZM17.7406 13.5939C18.0648 13.2986 18.0883 12.7964 17.7931 12.4722C17.4978 12.1479 16.9956 12.1244 16.6714 12.4197L14.7939 14.1292V3.79404C14.7939 3.35551 14.4384 3 13.9998 3C13.5613 3 13.2058 3.35551 13.2058 3.79404V14.1292L11.3283 12.4197C11.004 12.1244 10.5018 12.1479 10.2066 12.4722C9.91131 12.7964 9.93483 13.2986 10.2591 13.5939L13.9998 17L17.7406 13.5939Z" fill="#93959C"/>
</svg>
