<svg width="20" height="20" viewBox="0 0 20 20" fill="none" xmlns="http://www.w3.org/2000/svg">
<path d="M10.7725 2.97089L12.5771 6.55545C12.7026 6.80476 12.9452 6.97751 13.2259 7.01743L17.2613 7.59228C17.9682 7.69305 18.2502 8.54437 17.7389 9.03285L14.8189 11.823C14.616 12.017 14.5232 12.2968 14.5712 12.5706L15.2604 16.5105C15.3813 17.2005 14.6423 17.7266 14.0102 17.4011L10.401 15.5411C10.15 15.4118 9.84998 15.4118 9.599 15.5411L5.9898 17.4011C5.35768 17.727 4.61875 17.2005 4.73957 16.5105L5.42877 12.5706C5.47683 12.2968 5.38404 12.017 5.18112 11.823L2.26112 9.03285C1.74982 8.54404 2.03184 7.69273 2.73872 7.59228L6.77412 7.01743C7.05481 6.97751 7.29744 6.80476 7.42293 6.55545L9.22753 2.97089C9.54326 2.34304 10.4564 2.34304 10.7725 2.97089Z" fill="#93959C"/>
</svg>
