<svg width="20" height="20" viewBox="0 0 20 20" fill="none" xmlns="http://www.w3.org/2000/svg">
<path fill-rule="evenodd" clip-rule="evenodd" d="M10 2.35001C10.2855 2.35001 10.5462 2.51206 10.6726 2.76804L12.7385 6.95336L17.3585 7.62864C17.6409 7.66992 17.8754 7.86793 17.9635 8.13943C18.0515 8.41094 17.9778 8.70888 17.7733 8.90803L14.4309 12.1635L15.2197 16.7627C15.268 17.0441 15.1523 17.3285 14.9213 17.4963C14.6903 17.6641 14.3841 17.6862 14.1314 17.5533L10 15.3806L5.86861 17.5533C5.61592 17.6862 5.30971 17.6641 5.07872 17.4963C4.84774 17.3285 4.73205 17.0441 4.78032 16.7627L5.56913 12.1635L2.22672 8.90803C2.02226 8.70888 1.94855 8.41094 2.03659 8.13943C2.12462 7.86793 2.35913 7.66992 2.64155 7.62864L7.26158 6.95336L9.32749 2.76804C9.45385 2.51206 9.71456 2.35001 10 2.35001ZM10 4.79445L8.4323 7.97047C8.32315 8.19161 8.11226 8.34495 7.86824 8.38062L4.36133 8.89321L6.89832 11.3642C7.07523 11.5365 7.15597 11.7849 7.11423 12.0283L6.51566 15.5183L9.65093 13.8695C9.86947 13.7545 10.1306 13.7545 10.3491 13.8695L13.4844 15.5183L12.8858 12.0283C12.8441 11.7849 12.9248 11.5365 13.1017 11.3642L15.6387 8.89321L12.1318 8.38062C11.8878 8.34495 11.6769 8.19161 11.5677 7.97047L10 4.79445Z" fill="#93959C"/>
</svg>
