<svg width="20" height="20" viewBox="0 0 20 20" fill="none" xmlns="http://www.w3.org/2000/svg">
<path fill-rule="evenodd" clip-rule="evenodd" d="M10 2C10.4142 2 10.75 2.33579 10.75 2.75V4.06818C10.75 4.4824 10.4142 4.81818 10 4.81818C9.58579 4.81818 9.25 4.4824 9.25 4.06818V2.75C9.25 2.33579 9.58579 2 10 2ZM10 7.45456C8.5942 7.45456 7.45456 8.5942 7.45456 10C7.45456 11.4058 8.5942 12.5455 10 12.5455C11.4058 12.5455 12.5455 11.4058 12.5455 10C12.5455 8.5942 11.4058 7.45456 10 7.45456ZM5.95456 10C5.95456 7.76577 7.76577 5.95456 10 5.95456C12.2343 5.95456 14.0455 7.76577 14.0455 10C14.0455 12.2343 12.2343 14.0455 10 14.0455C7.76577 14.0455 5.95456 12.2343 5.95456 10ZM10.75 15.9318C10.75 15.5176 10.4142 15.1818 10 15.1818C9.58579 15.1818 9.25 15.5176 9.25 15.9318V17.25C9.25 17.6642 9.58579 18 10 18C10.4142 18 10.75 17.6642 10.75 17.25V15.9318ZM4.34195 4.34195C4.63485 4.04906 5.10972 4.04906 5.40261 4.34195L6.33852 5.27786C6.63142 5.57076 6.63142 6.04563 6.33852 6.33852C6.04563 6.63142 5.57076 6.63142 5.27786 6.33852L4.34195 5.40261C4.04906 5.10972 4.04906 4.63485 4.34195 4.34195ZM14.7221 13.6615C14.4292 13.3686 13.9544 13.3686 13.6615 13.6615C13.3686 13.9544 13.3686 14.4293 13.6615 14.7222L14.5974 15.6581C14.8903 15.951 15.3651 15.951 15.658 15.6581C15.9509 15.3652 15.9509 14.8903 15.658 14.5974L14.7221 13.6615ZM2 10C2 9.58579 2.33579 9.25 2.75 9.25H4.06818C4.4824 9.25 4.81818 9.58579 4.81818 10C4.81818 10.4142 4.4824 10.75 4.06818 10.75H2.75C2.33579 10.75 2 10.4142 2 10ZM15.9318 9.25C15.5176 9.25 15.1818 9.58579 15.1818 10C15.1818 10.4142 15.5176 10.75 15.9318 10.75H17.25C17.6642 10.75 18 10.4142 18 10C18 9.58579 17.6642 9.25 17.25 9.25H15.9318ZM6.33852 13.6615C6.63142 13.9544 6.63142 14.4293 6.33852 14.7222L5.40261 15.6581C5.10972 15.951 4.63485 15.951 4.34195 15.6581C4.04906 15.3652 4.04906 14.8903 4.34195 14.5974L5.27786 13.6615C5.57076 13.3686 6.04563 13.3686 6.33852 13.6615ZM15.658 5.40261C15.9509 5.10972 15.9509 4.63485 15.658 4.34195C15.3651 4.04906 14.8903 4.04906 14.5974 4.34195L13.6615 5.27786C13.3686 5.57076 13.3686 6.04563 13.6615 6.33852C13.9544 6.63142 14.4292 6.63142 14.7221 6.33852L15.658 5.40261Z" fill="#93959C"/>
</svg>
