<svg width="22" height="22" viewBox="0 0 22 22" fill="none" xmlns="http://www.w3.org/2000/svg">
<path d="M8.65688 18.3137C12.8857 18.3137 16.3138 14.8856 16.3138 10.6569C16.3138 6.4281 12.8857 3 8.65688 3C4.4281 3 1 6.4281 1 10.6569C1 14.8856 4.4281 18.3137 8.65688 18.3137Z" fill="#FFD93B"/>
<path d="M16.3137 10.6569C16.3137 14.8875 12.885 18.3137 8.65687 18.3137C6.24999 18.3137 4.10124 17.2037 2.69624 15.4637C4.00999 16.5262 5.68249 17.16 7.50312 17.16C11.7312 17.16 15.16 13.7337 15.16 9.5031C15.16 7.68248 14.5262 6.00935 13.4637 4.69623C15.2012 6.10123 16.3137 8.24998 16.3137 10.6569Z" fill="#F4C534"/>
<path d="M5.6075 11.17C6.89191 11.17 7.93313 10.1288 7.93313 8.84436C7.93313 7.55996 6.89191 6.51874 5.6075 6.51874C4.32309 6.51874 3.28188 7.55996 3.28188 8.84436C3.28188 10.1288 4.32309 11.17 5.6075 11.17Z" fill="white"/>
<path d="M11.7059 11.17C12.9903 11.17 14.0315 10.1288 14.0315 8.84436C14.0315 7.55996 12.9903 6.51874 11.7059 6.51874C10.4215 6.51874 9.38027 7.55996 9.38027 8.84436C9.38027 10.1288 10.4215 11.17 11.7059 11.17Z" fill="white"/>
<path d="M4.87281 15.5737C6.83281 17.5862 10.4947 17.5325 12.4403 15.5737C12.7291 15.2831 12.8384 14.8894 12.8147 14.4419C12.8891 13.0219 11.4647 12.3044 8.65656 12.3394C5.84906 12.3025 4.42468 13.0212 4.49843 14.4419C4.47531 14.8894 4.58718 15.28 4.87281 15.5737Z" fill="#3E4347"/>
<path d="M6.08532 9.87062C6.6521 9.87062 7.11157 9.41115 7.11157 8.84437C7.11157 8.27758 6.6521 7.81812 6.08532 7.81812C5.51853 7.81812 5.05907 8.27758 5.05907 8.84437C5.05907 9.41115 5.51853 9.87062 6.08532 9.87062Z" fill="#3E4347"/>
<path d="M6.59494 8.33307C6.47314 8.21128 6.31406 8.17289 6.23962 8.24734C6.16518 8.32178 6.20356 8.48086 6.32536 8.60265C6.44715 8.72445 6.60623 8.76283 6.68067 8.68839C6.75512 8.61395 6.71673 8.45487 6.59494 8.33307Z" fill="white"/>
<path d="M11.2262 9.87062C11.793 9.87062 12.2525 9.41115 12.2525 8.84437C12.2525 8.27758 11.793 7.81812 11.2262 7.81812C10.6594 7.81812 10.2 8.27758 10.2 8.84437C10.2 9.41115 10.6594 9.87062 11.2262 9.87062Z" fill="#3E4347"/>
<path d="M11.7348 8.33551C11.613 8.21372 11.4539 8.17534 11.3794 8.24978C11.305 8.32422 11.3434 8.4833 11.4652 8.6051C11.587 8.72689 11.746 8.76527 11.8205 8.69083C11.8949 8.61639 11.8565 8.45731 11.7348 8.33551Z" fill="white"/>
<path d="M8.65644 13.38C10.0777 13.38 11.3764 13.3687 12.3796 13.25C11.7677 12.6256 10.5183 12.3162 8.65644 12.3393C6.79394 12.315 5.54457 12.6243 4.93269 13.2493C5.93582 13.3687 7.23457 13.38 8.65644 13.38Z" fill="white"/>
<path d="M13.601 6.18313C13.596 6.35126 13.3798 6.42626 13.2635 6.30376C12.4217 5.41438 11.406 4.74563 10.521 4.48126C10.3429 4.42938 10.3379 4.17751 10.5148 4.10751C11.9273 3.55376 13.6654 4.68438 13.601 6.18313Z" fill="#3E4347"/>
<path d="M3.71311 6.18313C3.71811 6.35126 3.93436 6.42626 4.05061 6.30376C4.89311 5.41438 5.90811 4.74563 6.79311 4.48126C6.97123 4.42938 6.97623 4.17751 6.79936 4.10751C5.38686 3.55376 3.64873 4.68438 3.71311 6.18313Z" fill="#3E4347"/>
<path d="M11.744 16.1419C11.6565 15.9863 11.5602 15.8369 11.4509 15.6975C10.8971 14.985 9.92649 14.6669 9.08461 14.9931C8.80149 15.1044 8.47899 15.165 8.11399 15.165C8.02836 15.165 7.94649 15.1606 7.86524 15.1563C6.96461 15.08 6.07774 15.4475 5.58836 16.1644C7.37899 17.3769 9.96711 17.3438 11.744 16.1419Z" fill="#E24B4B"/>
<path d="M20.9909 11.41C20.8502 13.0144 19.1496 14.1825 17.1871 14.01C17.0477 13.9975 16.9134 13.9813 16.7796 13.9556L14.3127 14.8263C14.124 14.8944 13.9396 14.695 14.0265 14.5106L14.7552 12.9344C14.1596 12.3525 13.8233 11.5919 13.894 10.7875C14.0352 9.17813 15.7396 8.01563 17.6977 8.1875C19.6602 8.35938 21.1321 9.80063 20.9909 11.41Z" fill="#E24B4B"/>
<path d="M19.2113 10.715C19.2 11.55 17.9288 12.4956 17.5038 12.7863C17.4275 12.84 17.3163 12.84 17.2394 12.7863C16.8219 12.4838 15.57 11.5113 15.5775 10.6763C15.5888 9.61565 17.0788 9.40127 17.4 10.3969C17.5263 10.0256 17.8825 9.76877 18.2881 9.76877C18.8056 9.77627 19.2194 10.2019 19.2113 10.715Z" fill="white"/>
</svg>
