<svg width="22" height="22" viewBox="0 0 22 22" fill="none" xmlns="http://www.w3.org/2000/svg">
<path d="M11 21C16.5228 21 21 16.5228 21 11C21 5.47715 16.5228 1 11 1C5.47715 1 1 5.47715 1 11C1 16.5228 5.47715 21 11 21Z" fill="#FFD93B"/>
<path d="M20.9525 11C20.9525 16.525 16.4744 21 10.9525 21C7.80875 21 5.0025 19.55 3.16812 17.2781C4.88375 18.6656 7.06812 19.4938 9.44625 19.4938C14.9681 19.4938 19.4462 15.0188 19.4462 9.49376C19.4462 7.11564 18.6181 4.93126 17.2306 3.21564C19.4994 5.05001 20.9525 7.85626 20.9525 11Z" fill="#F4C534"/>
<path d="M10.3683 10.3382C10.3683 12.32 8.76513 13.9232 6.78326 13.9232C4.80138 13.9232 3.19826 12.32 3.19826 10.3382C3.19826 8.36192 4.80138 6.75317 6.78326 6.75317C8.76513 6.75317 10.3683 8.36192 10.3683 10.3382Z" fill="#F4C534"/>
<path d="M9.68187 10.3381C9.68187 11.9413 8.38624 13.2369 6.78312 13.2369C5.17999 13.2369 3.88437 11.9413 3.88437 10.3381C3.88437 8.74064 5.17999 7.43939 6.78312 7.43939C8.38624 7.44002 9.68187 8.74064 9.68187 10.3381Z" fill="white"/>
<path d="M8.36439 10.3381C8.36439 11.2113 7.66189 11.9194 6.78314 11.9194C5.90501 11.9194 5.20189 11.2113 5.20189 10.3381C5.20189 9.46502 5.90439 8.7569 6.78314 8.7569C7.66189 8.75752 8.36439 9.46565 8.36439 10.3381Z" fill="#3E4347"/>
<path d="M7.57082 9.55257C7.38118 9.36293 7.12771 9.30891 7.0047 9.43192C6.88169 9.55494 6.9357 9.8084 7.12535 9.99805C7.315 10.1877 7.56846 10.2417 7.69147 10.1187C7.81449 9.99568 7.76047 9.74222 7.57082 9.55257Z" fill="white"/>
<path d="M18.7062 10.3381C18.7062 12.32 17.1031 13.9231 15.1212 13.9231C13.1393 13.9231 11.5362 12.32 11.5362 10.3381C11.5362 8.36186 13.1393 6.75311 15.1212 6.75311C17.1031 6.75311 18.7062 8.36186 18.7062 10.3381Z" fill="#F4C534"/>
<path d="M18.02 10.3381C18.02 11.9413 16.7244 13.2369 15.1213 13.2369C13.5181 13.2369 12.2225 11.9413 12.2225 10.3381C12.2225 8.74064 13.5181 7.43939 15.1213 7.43939C16.7244 7.44002 18.02 8.74064 18.02 10.3381Z" fill="white"/>
<path d="M16.7025 10.3381C16.7025 11.2113 16 11.9194 15.1213 11.9194C14.2431 11.9194 13.54 11.2113 13.54 10.3381C13.54 9.46502 14.2425 8.7569 15.1213 8.7569C15.9994 8.75752 16.7025 9.46565 16.7025 10.3381Z" fill="#3E4347"/>
<path d="M15.9086 9.553C15.719 9.36335 15.4655 9.30934 15.3425 9.43235C15.2195 9.55537 15.2735 9.80883 15.4632 9.99847C15.6528 10.1881 15.9063 10.2421 16.0293 10.1191C16.1523 9.99611 16.0983 9.74265 15.9086 9.553Z" fill="white"/>
<path d="M9.10501 3.77376C9.10501 3.77376 7.01501 3.83251 5.17938 5.61001C5.17938 5.60939 5.98001 2.40626 9.10501 3.77376Z" fill="#3E4347"/>
<path d="M12.7991 3.77376C12.7991 3.77376 14.8891 3.83251 16.7247 5.61001C16.7247 5.60939 15.9241 2.40626 12.7991 3.77376Z" fill="#3E4347"/>
<path d="M10.9997 17.8406C13.0846 17.8406 14.7747 17.2493 14.7747 16.52C14.7747 15.7906 13.0846 15.1993 10.9997 15.1993C8.91483 15.1993 7.2247 15.7906 7.2247 16.52C7.2247 17.2493 8.91483 17.8406 10.9997 17.8406Z" fill="#3E4347"/>
</svg>
