<svg width="22" height="22" viewBox="0 0 22 22" fill="none" xmlns="http://www.w3.org/2000/svg">
<path d="M11 21C16.5228 21 21 16.5228 21 11C21 5.47715 16.5228 1 11 1C5.47715 1 1 5.47715 1 11C1 16.5228 5.47715 21 11 21Z" fill="#FFD93B"/>
<path d="M21 11C21 16.525 16.5219 21 11 21C7.85626 21 5.05001 19.55 3.21564 17.2781C4.93126 18.6656 7.11564 19.4938 9.49376 19.4938C15.0156 19.4938 19.4938 15.0188 19.4938 9.49376C19.4938 7.11564 18.6656 4.93126 17.2781 3.21564C19.5469 5.05001 21 7.85626 21 11Z" fill="#F4C534"/>
<path d="M10.4956 10.3013C10.4956 12.1269 9.01251 13.6157 7.18126 13.6157C5.35563 13.6157 3.86688 12.1269 3.86688 10.3013C3.86688 8.47006 5.35563 6.98694 7.18126 6.98694C9.01251 6.98756 10.4956 8.47006 10.4956 10.3013Z" fill="#F4C534"/>
<path d="M9.9825 10.3012C9.8225 11.8437 8.43875 13.1012 6.89063 13.1012C5.3475 13.1012 4.21938 11.8437 4.37938 10.3012C4.54 8.75374 5.92813 7.50061 7.47125 7.50061C9.01938 7.50124 10.1431 8.75436 9.9825 10.3012Z" fill="white"/>
<path d="M7.49465 11.6119C8.25162 11.6119 8.86527 10.9982 8.86527 10.2412C8.86527 9.48426 8.25162 8.87061 7.49465 8.87061C6.73767 8.87061 6.12402 9.48426 6.12402 10.2412C6.12402 10.9982 6.73767 11.6119 7.49465 11.6119Z" fill="#3E4347"/>
<path d="M8.22495 9.5118C8.04848 9.33533 7.82133 9.27637 7.7176 9.3801C7.61387 9.48383 7.67283 9.71098 7.8493 9.88745C8.02577 10.0639 8.25292 10.1229 8.35665 10.0191C8.46038 9.91541 8.40142 9.68827 8.22495 9.5118Z" fill="#5A5F63"/>
<path d="M4.36442 6.8526C4.27692 6.3276 4.92129 5.1526 5.98942 4.65572C7.60567 3.97572 8.97192 4.37322 9.81692 5.3751C8.69504 5.22697 8.03004 4.8376 6.32817 5.43822C5.76067 5.6926 4.65692 6.30385 4.36442 6.8526Z" fill="#3E4347"/>
<path d="M11.5044 10.3013C11.5044 12.1269 12.9875 13.6157 14.8188 13.6157C16.6444 13.6157 18.1331 12.1269 18.1331 10.3013C18.1331 8.47006 16.6444 6.98694 14.8188 6.98694C12.9875 6.98756 11.5044 8.47006 11.5044 10.3013Z" fill="#F4C534"/>
<path d="M12.0175 10.3012C12.1775 11.8437 13.5613 13.1012 15.1094 13.1012C16.6525 13.1012 17.7807 11.8437 17.6213 10.3012C17.4607 8.75374 16.0725 7.50061 14.5294 7.50061C12.9807 7.50124 11.8569 8.75436 12.0175 10.3012Z" fill="white"/>
<path d="M14.5045 11.612C15.2615 11.612 15.8752 10.9984 15.8752 10.2414C15.8752 9.48444 15.2615 8.87079 14.5045 8.87079C13.7476 8.87079 13.1339 9.48444 13.1339 10.2414C13.1339 10.9984 13.7476 11.612 14.5045 11.612Z" fill="#3E4347"/>
<path d="M14.2818 9.3787C14.1781 9.27497 13.951 9.33393 13.7745 9.5104C13.598 9.68686 13.5391 9.91401 13.6428 10.0177C13.7465 10.1215 13.9737 10.0625 14.1501 9.88604C14.3266 9.70958 14.3856 9.48243 14.2818 9.3787Z" fill="#5A5F63"/>
<path d="M17.6357 6.85263C17.3925 6.51825 16.4288 6.00013 16.0482 5.8095C15.8269 5.68075 15.0944 5.43013 14.6244 5.37763C13.75 5.21263 12.8082 5.39013 12.1832 5.37513C12.8082 4.862 14.1013 4.28263 15.3313 4.62388C15.65 4.69013 16.1619 4.92388 16.4644 5.15388C16.8794 5.427 17.7182 6.42763 17.6357 6.85263Z" fill="#3E4347"/>
<path d="M14.8986 16.2955C14.7027 15.4736 13.6797 15.0134 12.6137 15.2675C11.5478 15.5216 10.8425 16.3939 11.0384 17.2158C11.2343 18.0377 12.2573 18.498 13.3233 18.2438C14.3893 17.9897 15.0946 17.1174 14.8986 16.2955Z" fill="#3E4347"/>
</svg>
