<svg width="20" height="20" viewBox="0 0 20 20" fill="none" xmlns="http://www.w3.org/2000/svg">
<path fill-rule="evenodd" clip-rule="evenodd" d="M2 2.75C2 2.33579 2.33579 2 2.75 2L10.3153 2C10.5142 2 10.7049 2.07902 10.8456 2.21967L17.3441 8.71822L17.3457 8.7198C17.7672 9.14382 18.0038 9.71739 18.0038 10.3153C18.0038 10.9095 17.7638 11.4914 17.3441 11.9123L11.9201 17.3363C11.71 17.5467 11.4604 17.7136 11.1857 17.8275C10.9109 17.9414 10.6164 18 10.319 18C10.0216 18 9.72716 17.9414 9.45242 17.8275C9.17784 17.7137 8.92837 17.5469 8.71827 17.3366L2.21998 10.8459C2.07914 10.7052 2 10.5143 2 10.3153L2 2.75ZM16.2826 10.8525C16.4243 10.7096 16.5038 10.5165 16.5038 10.3153C16.5038 10.114 16.4243 9.92087 16.2826 9.77797L10.0046 3.5L3.5 3.5L3.5 10.0043L9.77857 16.2756C9.84944 16.3466 9.9342 16.4034 10.0268 16.4418C10.1195 16.4802 10.2188 16.5 10.319 16.5C10.4193 16.5 10.5186 16.4802 10.6112 16.4418C10.7039 16.4034 10.788 16.3472 10.8589 16.2762L16.2826 10.8525ZM9.77817 6.94975C10.1687 6.55922 10.8019 6.55922 11.1924 6.94975L14.0208 9.77817C14.4113 10.1687 14.4113 10.8019 14.0208 11.1924L11.1924 14.0208C10.8019 14.4113 10.1687 14.4113 9.77818 14.0208L6.94975 11.1924C6.55922 10.8019 6.55922 10.1687 6.94975 9.77817L9.77817 6.94975ZM6.5332 5.78271C6.11899 5.78271 5.7832 6.1185 5.7832 6.53271C5.7832 6.94693 6.11899 7.28271 6.5332 7.28271H6.54077C6.95498 7.28271 7.29077 6.94693 7.29077 6.53271C7.29077 6.1185 6.95498 5.78271 6.54077 5.78271H6.5332Z" fill="#93959C"/>
</svg>
