<svg width="20" height="20" viewBox="0 0 20 20" fill="none" xmlns="http://www.w3.org/2000/svg">
<path fill-rule="evenodd" clip-rule="evenodd" d="M3.5 10C3.5 6.41015 6.41015 3.5 10 3.5C13.5899 3.5 16.5 6.41015 16.5 10C16.5 13.5899 13.5899 16.5 10 16.5C6.41015 16.5 3.5 13.5899 3.5 10ZM10 2C5.58172 2 2 5.58172 2 10C2 14.4183 5.58172 18 10 18C14.4183 18 18 14.4183 18 10C18 5.58172 14.4183 2 10 2ZM10.75 5.65012C10.75 5.2359 10.4142 4.90012 10 4.90012C9.58579 4.90012 9.25 5.2359 9.25 5.65012V10.0001C9.25 10.2842 9.4105 10.5439 9.66459 10.6709L12.5646 12.1209C12.9351 12.3062 13.3856 12.156 13.5708 11.7855C13.7561 11.415 13.6059 10.9645 13.2354 10.7793L10.75 9.53659V5.65012Z" fill="#93959C"/>
</svg>
