<svg width="22" height="22" viewBox="0 0 22 22" fill="none" xmlns="http://www.w3.org/2000/svg">
<path d="M11 21C16.5228 21 21 16.5228 21 11C21 5.47715 16.5228 1 11 1C5.47715 1 1 5.47715 1 11C1 16.5228 5.47715 21 11 21Z" fill="#FFD93B"/>
<path d="M21 11C21 16.525 16.5219 21 11 21C7.85626 21 5.05001 19.55 3.21564 17.2781C4.93126 18.6656 7.11564 19.4938 9.49376 19.4938C15.0156 19.4938 19.4938 15.0188 19.4938 9.49376C19.4938 7.11564 18.6656 4.93126 17.2781 3.21564C19.5469 5.05001 21 7.85626 21 11Z" fill="#F4C534"/>
<path d="M13.8007 16.3856C13.8007 17.5562 12.5451 18.5087 11.0019 18.5087C9.45381 18.5087 8.19818 17.5562 8.19818 16.3856C8.19818 15.2149 9.45381 14.2681 11.0019 14.2681C12.5451 14.2681 13.8007 15.2149 13.8007 16.3856Z" fill="#3E4347"/>
<path d="M10.4525 10.0168C10.4525 11.7106 9.08374 13.0793 7.39624 13.0793C5.70874 13.0793 4.33374 11.7106 4.33374 10.0168C4.33374 8.32932 5.70874 6.96057 7.39624 6.96057C9.08374 6.96057 10.4525 8.32932 10.4525 10.0168Z" fill="#F4C534"/>
<path d="M4.86688 9.41323C4.8025 9.60823 4.75313 9.80885 4.73438 10.0176C4.60375 11.4695 5.69313 12.6432 7.16 12.6432C8.62688 12.6432 9.92188 11.4695 10.0525 10.0176C10.0713 9.80885 10.0581 9.60823 10.0288 9.41323C8.33688 8.81011 6.61625 8.81823 4.86688 9.41323Z" fill="white"/>
<path d="M7.94911 11.8105C8.61668 11.8105 9.15786 11.2693 9.15786 10.6018C9.15786 9.93418 8.61668 9.39301 7.94911 9.39301C7.28153 9.39301 6.74036 9.93418 6.74036 10.6018C6.74036 11.2693 7.28153 11.8105 7.94911 11.8105Z" fill="#3E4347"/>
<path d="M8.59985 9.95061C8.45877 9.80954 8.25932 9.78025 8.15437 9.88521C8.04942 9.99016 8.0787 10.1896 8.21978 10.3307C8.36086 10.4718 8.5603 10.501 8.66525 10.3961C8.77021 10.2911 8.74092 10.0917 8.59985 9.95061Z" fill="#5A5F63"/>
<path d="M11.8581 10.0168C11.8581 11.7106 13.2268 13.0793 14.9143 13.0793C16.6018 13.0793 17.9768 11.7106 17.9768 10.0168C17.9768 8.32932 16.6018 6.96057 14.9143 6.96057C13.2268 6.96057 11.8581 8.32932 11.8581 10.0168Z" fill="#F4C534"/>
<path d="M17.4431 9.41323C17.5075 9.60823 17.5569 9.80885 17.5756 10.0176C17.7063 11.4695 16.6169 12.6432 15.15 12.6432C13.6831 12.6432 12.3881 11.4695 12.2575 10.0176C12.2387 9.80885 12.2519 9.60823 12.2812 9.41323C13.9731 8.81011 15.6944 8.81823 17.4431 9.41323Z" fill="white"/>
<path d="M14.3632 11.812C15.0307 11.812 15.5719 11.2708 15.5719 10.6032C15.5719 9.93565 15.0307 9.39447 14.3632 9.39447C13.6956 9.39447 13.1544 9.93565 13.1544 10.6032C13.1544 11.2708 13.6956 11.812 14.3632 11.812Z" fill="#3E4347"/>
<path d="M14.1559 9.88533C14.0509 9.78038 13.8515 9.80966 13.7104 9.95074C13.5693 10.0918 13.54 10.2913 13.645 10.3962C13.7499 10.5012 13.9494 10.4719 14.0905 10.3308C14.2315 10.1897 14.2608 9.99028 14.1559 9.88533Z" fill="#5A5F63"/>
<path d="M17.0262 5.68311C14.9556 4.68936 13.1406 5.09061 12.1212 5.49686C11.9081 5.58061 11.7325 5.31311 11.8875 5.14686C14.1012 2.78685 16.1918 4.22686 17.2768 5.34248C17.445 5.51748 17.2425 5.78811 17.0262 5.68311Z" fill="#3E4347"/>
<path d="M4.97376 5.68311C7.04439 4.68936 8.85939 5.09061 9.87876 5.49686C10.0919 5.58061 10.2675 5.31311 10.1125 5.14686C7.89876 2.78685 5.80814 4.22686 4.72314 5.34248C4.55501 5.51748 4.75751 5.78811 4.97376 5.68311Z" fill="#3E4347"/>
</svg>
