<svg width="22" height="22" viewBox="0 0 22 22" fill="none" xmlns="http://www.w3.org/2000/svg">
<path d="M11 21C16.5228 21 21 16.5228 21 11C21 5.47715 16.5228 1 11 1C5.47715 1 1 5.47715 1 11C1 16.5228 5.47715 21 11 21Z" fill="#FFD93B"/>
<path d="M21 11C21 16.525 16.5219 21 11 21C7.85626 21 5.05001 19.55 3.21564 17.2781C4.93126 18.6656 7.11564 19.4938 9.49376 19.4938C15.0156 19.4938 19.4938 15.0188 19.4938 9.49376C19.4938 7.11564 18.6656 4.93126 17.2781 3.21564C19.5469 5.05001 21 7.85626 21 11Z" fill="#F4C534"/>
<path d="M12.2536 17.3331C12.2536 18.0269 11.6911 18.5894 10.9974 18.5894C10.3099 18.5894 9.74738 18.0269 9.74738 17.3331C9.74738 16.6456 10.3099 16.0831 10.9974 16.0831C11.6905 16.0831 12.2536 16.6456 12.2536 17.3331Z" fill="#3E4347"/>
<path d="M10.3756 12C9.61502 11.3731 8.49001 10.9825 7.23626 10.9825C5.91064 10.9825 4.72876 11.4194 3.96814 12.1081C4.17876 10.52 5.53501 9.29749 7.17939 9.29749C8.78814 9.29686 10.1238 10.4631 10.3756 12Z" fill="#3E4347"/>
<path d="M18.0317 12C17.2711 11.3731 16.1461 10.9825 14.8917 10.9825C13.5661 10.9825 12.3842 11.4194 11.6236 12.1081C11.8342 10.52 13.1905 9.29749 14.8355 9.29749C16.4442 9.29686 17.7798 10.4631 18.0317 12Z" fill="#3E4347"/>
</svg>
