<svg width="22" height="22" viewBox="0 0 22 22" fill="none" xmlns="http://www.w3.org/2000/svg">
<path d="M15.5861 10.3535C17.2014 14.2294 15.3754 18.6814 11.5107 20.2993C7.64603 21.9171 3.20334 20.0898 1.58799 16.2139C-0.0267478 12.3406 1.79868 7.88669 5.66335 6.26823C9.52802 4.65039 13.9713 6.48017 15.5861 10.3535Z" fill="#FFD93B"/>
<path d="M15.5861 10.3536C15.2685 9.59102 14.8378 8.91107 14.3263 8.3175C14.9322 9.43315 15.2797 10.711 15.2797 12.0709C15.2797 16.416 11.7662 19.9351 7.4335 19.9351C5.93499 19.9351 4.53841 19.5094 3.34756 18.7791C5.46014 20.8009 8.64299 21.4995 11.5101 20.2993C15.3748 18.6815 17.2008 14.2301 15.5861 10.3536Z" fill="#F4C534"/>
<path d="M5.74107 14.8684C7.20096 14.8684 8.38443 13.6822 8.38443 12.2189C8.38443 10.7555 7.20096 9.56927 5.74107 9.56927C4.28118 9.56927 3.0977 10.7555 3.0977 12.2189C3.0977 13.6822 4.28118 14.8684 5.74107 14.8684Z" fill="#F4C534"/>
<path d="M7.93132 12.2144C7.93132 13.4257 6.95242 14.4096 5.74105 14.4096C4.5328 14.4096 3.55141 13.4257 3.55141 12.2144C3.55141 11.003 4.5328 10.3498 5.74105 10.3498C6.95242 10.3504 7.93132 11.0036 7.93132 12.2144Z" fill="white"/>
<path d="M5.92006 14.1063C6.42328 14.1063 6.83122 13.6984 6.83122 13.1952C6.83122 12.6919 6.42328 12.284 5.92006 12.284C5.41684 12.284 5.0089 12.6919 5.0089 13.1952C5.0089 13.6984 5.41684 14.1063 5.92006 14.1063Z" fill="#3E4347"/>
<path d="M6.54742 12.9659C6.50963 12.8385 6.40643 12.7568 6.31691 12.7834C6.2274 12.8099 6.18548 12.9347 6.22327 13.0621C6.26106 13.1894 6.36427 13.2711 6.45378 13.2446C6.54329 13.218 6.58521 13.0932 6.54742 12.9659Z" fill="#5A5F63"/>
<path d="M7.47386 12.5264C6.31968 12.8583 5.16302 12.8583 4.00884 12.5264C3.6931 12.4363 3.48302 12.123 3.54145 11.8011C3.72418 10.7749 4.61483 9.95264 5.74104 9.95264C6.87347 9.95264 7.7579 10.7774 7.94063 11.8011C7.99968 12.1236 7.78898 12.4369 7.47386 12.5264Z" fill="#F4C534"/>
<path d="M8.0115 9.65871C6.56147 8.73946 4.87837 8.92779 4.14745 9.07944C4.05546 9.09871 3.99207 8.9713 4.06354 8.91349C6.15872 7.20864 7.63858 8.79292 8.13456 9.53129C8.18366 9.60525 8.08608 9.70594 8.0115 9.65871Z" fill="#3E4347"/>
<path d="M11.5474 14.8683C13.0073 14.8683 14.1907 13.6821 14.1907 12.2187C14.1907 10.7554 13.0073 9.56915 11.5474 9.56915C10.0875 9.56915 8.90401 10.7554 8.90401 12.2187C8.90401 13.6821 10.0875 14.8683 11.5474 14.8683Z" fill="#F4C534"/>
<path d="M9.35774 12.2144C9.35774 13.4257 10.3367 14.4096 11.548 14.4096C12.7563 14.4096 13.7383 13.4257 13.7383 12.2144C13.7383 11.003 12.7563 10.3498 11.548 10.3498C10.336 10.3504 9.35774 11.0036 9.35774 12.2144Z" fill="white"/>
<path d="M11.3684 14.1063C11.8716 14.1063 12.2795 13.6984 12.2795 13.1952C12.2795 12.6919 11.8716 12.284 11.3684 12.284C10.8652 12.284 10.4572 12.6919 10.4572 13.1952C10.4572 13.6984 10.8652 14.1063 11.3684 14.1063Z" fill="#3E4347"/>
<path d="M10.9723 12.7791C10.8828 12.7525 10.7796 12.8342 10.7418 12.9616C10.704 13.089 10.746 13.2137 10.8355 13.2403C10.925 13.2669 11.0282 13.1851 11.066 13.0578C11.1038 12.9304 11.0618 12.8057 10.9723 12.7791Z" fill="#5A5F63"/>
<path d="M9.81518 12.5264C10.9694 12.8583 12.126 12.8583 13.2802 12.5264C13.5959 12.4363 13.806 12.123 13.7476 11.8011C13.5649 10.7749 12.6742 9.95264 11.548 9.95264C10.4156 9.95264 9.53114 10.7774 9.34841 11.8011C9.28937 12.1236 9.49944 12.4369 9.81518 12.5264Z" fill="#F4C534"/>
<path d="M9.27699 9.65865C10.727 8.7394 12.4101 8.92773 13.141 9.07938C13.233 9.09865 13.297 8.97123 13.2249 8.91343C11.1298 7.20858 9.64991 8.79286 9.15393 9.53123C9.10545 9.60519 9.20303 9.70588 9.27699 9.65865Z" fill="#3E4347"/>
<path d="M11.3535 17.3059C11.4679 18.1624 10.9166 18.8566 10.1217 18.8566C9.32673 18.8566 8.58959 18.1624 8.47461 17.3059C8.36025 16.4494 8.91154 15.7558 9.70648 15.7558C10.5014 15.7558 11.2392 16.4494 11.3535 17.3059Z" fill="#3E4347"/>
<path d="M16.0584 8.56419C16.409 3.83 18.0859 3.03818 20.1058 5.06498C19.6751 0.266777 9.79529 1.5378 6.98349 4.84807L16.0584 8.56419Z" fill="#D03F3F"/>
<path d="M6.98473 4.85052C9.7959 1.53715 20.2662 -1.9316 20.1089 5.06557C18.9523 0.320198 11.3653 2.18043 9.15138 5.73807L6.98473 4.85052Z" fill="#AD2727"/>
<path d="M16.0566 8.56542L13.8893 7.67787C14.8881 3.20784 18.1151 1.76713 20.1096 5.06497C18.4476 4.15505 16.4102 3.83123 16.0566 8.56542Z" fill="#E24B4B"/>
<path d="M15.3786 9.76063C12.6215 8.21426 9.68039 7.00353 6.63614 6.16135C6.25701 6.05196 6.02207 5.65294 6.12835 5.26449C6.23525 4.87603 6.63552 4.64855 7.02335 4.75545C10.1801 5.6287 13.2306 6.88481 16.0896 8.48836C16.4401 8.68538 16.5657 9.12916 16.3693 9.48094C16.1766 9.82465 15.7391 9.96076 15.3786 9.76063Z" fill="#E9EFF4"/>
<path d="M20.0072 3.64529C19.4588 3.57962 18.961 3.97066 18.8954 4.51871C18.8298 5.06675 19.2211 5.56427 19.7695 5.62994C20.3179 5.6956 20.8156 5.30456 20.8813 4.75652C20.9469 4.20847 20.5555 3.71096 20.0072 3.64529Z" fill="#E9EFF4"/>
<path d="M19.7683 5.62868C19.222 5.5628 18.8317 5.06496 18.897 4.51677C18.9131 4.38003 18.9541 4.25448 19.015 4.14447C18.9641 4.68085 19.3519 5.16564 19.8895 5.23028C20.3078 5.28063 20.6926 5.07055 20.8852 4.72498L20.8815 4.75481C20.8156 5.30362 20.3184 5.69519 19.7683 5.62868Z" fill="#DEE4E9"/>
</svg>
