<svg width="22" height="22" viewBox="0 0 22 22" fill="none" xmlns="http://www.w3.org/2000/svg">
<path d="M10.819 18.638C15.6896 18.638 19.638 14.6896 19.638 9.81901C19.638 4.94841 15.6896 1 10.819 1C5.94841 1 2 4.94841 2 9.81901C2 14.6896 5.94841 18.638 10.819 18.638Z" fill="#FFD93B"/>
<path d="M19.6349 9.81589C19.6349 14.6867 15.6873 18.6318 10.819 18.6318C8.04768 18.6318 5.57386 17.3536 3.95631 15.3504C5.46886 16.5736 7.39454 17.3036 9.49085 17.3036C14.3585 17.3036 18.3067 13.3585 18.3067 8.48773C18.3067 6.39141 17.5767 4.46573 16.3536 2.95319C18.3536 4.57011 19.6349 7.04456 19.6349 9.81589Z" fill="#F4C534"/>
<path d="M10.239 9.37274C9.99461 10.6378 8.89646 11.6191 7.60829 11.7266C6.18138 11.8416 4.97571 10.9603 4.56008 9.74025C4.44882 9.42337 4.67445 9.10211 5.01196 9.09148C5.64323 9.06711 6.3195 8.86335 6.95265 8.47521C7.68955 8.02707 8.22769 7.40581 8.5202 6.74641C8.65645 6.44078 9.03271 6.34452 9.28334 6.55953C10.0452 7.22268 10.4565 8.26583 10.239 9.37274Z" fill="white"/>
<path d="M9.76086 9.21772C9.76086 9.82774 9.26772 10.3328 8.65145 10.3334C8.04143 10.3334 7.53642 9.82836 7.53642 9.21834C7.53642 8.60208 8.04206 8.10956 8.65145 8.10956C9.26772 8.10831 9.76086 8.60145 9.76086 9.21772Z" fill="#3E4347"/>
<path d="M9.23324 8.63696C9.10803 8.51174 8.94142 8.47533 8.86112 8.55564C8.78081 8.63594 8.81722 8.80254 8.94244 8.92776C9.06765 9.05297 9.23426 9.08938 9.31456 9.00908C9.39486 8.92878 9.35845 8.76217 9.23324 8.63696Z" fill="#5A5F63"/>
<path d="M4.34882 7.75835C4.99071 7.34959 5.86636 6.85582 6.58388 6.34456C8.18581 5.14827 7.93393 5.18702 8.51582 4.60138C8.34706 5.57266 7.71954 6.27705 6.94452 6.8577C5.92699 7.53147 4.93321 7.78147 4.34882 7.75835Z" fill="#F4C534"/>
<path d="M11.399 9.37274C11.6434 10.6378 12.7416 11.6191 14.0297 11.7266C15.4567 11.8416 16.6623 10.9603 17.078 9.74025C17.1892 9.42337 16.9636 9.10211 16.6261 9.09148C15.9948 9.06711 15.3185 8.86335 14.6854 8.47521C13.9485 8.02707 13.4104 7.40581 13.1178 6.74641C12.9816 6.44078 12.6053 6.34452 12.3547 6.55953C11.5928 7.22268 11.1815 8.26583 11.399 9.37274Z" fill="white"/>
<path d="M14.1016 9.21772C14.1016 9.82774 13.6085 10.3328 12.9928 10.3334C12.3828 10.3334 11.8778 9.82836 11.8778 9.21834C11.8778 8.60208 12.3828 8.10956 12.9928 8.10956C13.6085 8.10831 14.1016 8.60145 14.1016 9.21772Z" fill="#3E4347"/>
<path d="M13.5761 8.63622C13.4509 8.51101 13.2843 8.4746 13.204 8.5549C13.1237 8.63521 13.1601 8.80181 13.2853 8.92703C13.4105 9.05224 13.5771 9.08865 13.6574 9.00835C13.7377 8.92804 13.7013 8.76144 13.5761 8.63622Z" fill="#5A5F63"/>
<path d="M17.2892 7.75835C16.6473 7.34959 15.7717 6.85582 15.0541 6.34456C13.4522 5.14827 13.7041 5.18702 13.1228 4.60138C13.2916 5.57266 13.9191 6.27705 14.6941 6.8577C15.711 7.53147 16.7048 7.78147 17.2892 7.75835Z" fill="#F4C534"/>
<path d="M14.7291 15.3679C14.7898 15.6436 14.531 15.8748 14.261 15.803C11.969 15.1911 9.67148 15.1911 7.37391 15.803C7.1039 15.8748 6.84514 15.643 6.9114 15.3679C7.32453 13.5935 8.91708 12.2716 10.8178 12.2716C12.7234 12.2716 14.3104 13.5941 14.7291 15.3679Z" fill="#3E4347"/>
<path d="M11.3747 15.2923C11.2922 15.4317 11.144 15.5136 11.0128 15.6117C9.64148 16.6949 10.5684 19.6193 7.90768 20.7975C7.29891 21.0669 5.78261 21.1438 5.35073 20.5431C4.18944 18.9262 6.157 17.8637 6.78827 17.413C7.64954 16.7967 7.28766 15.3255 8.06643 14.6286C8.55457 14.1879 9.31709 14.2504 9.78398 14.7123L9.75086 14.6667C10.2227 14.4348 10.7765 14.2398 11.2047 14.5954C11.4078 14.7648 11.5009 15.0723 11.3747 15.2923Z" fill="#E24B4B"/>
<g opacity="0.2">
<path opacity="0.2" d="M6.68515 18.7899C6.58014 19.0074 6.37639 19.1424 6.19888 19.3031C6.02075 19.4587 5.86012 19.6712 5.87825 19.915C5.88575 19.9981 5.91387 20.0806 5.922 20.1687C5.93012 20.2568 5.90262 20.355 5.82762 20.3918C5.76762 20.4231 5.69574 20.4075 5.63887 20.3712C5.58199 20.335 5.53949 20.2781 5.50199 20.2212C5.35198 19.9831 5.28698 19.6925 5.31386 19.4124C5.36136 19.0049 6.02513 18.2549 6.39451 18.2568C6.49077 18.2462 6.59827 18.2774 6.6664 18.3499C6.7714 18.4687 6.75702 18.6549 6.68515 18.7899Z" fill="white"/>
</g>
</svg>
