<svg width="22" height="22" viewBox="0 0 22 22" fill="none" xmlns="http://www.w3.org/2000/svg">
<path d="M10.5449 20.0897C15.8164 20.0897 20.0897 15.8164 20.0897 10.5449C20.0897 5.27338 15.8164 1 10.5449 1C5.27338 1 1 5.27338 1 10.5449C1 15.8164 5.27338 20.0897 10.5449 20.0897Z" fill="#FFD93B"/>
<path d="M20.0897 10.5449C20.0897 15.8186 15.8154 20.0898 10.5449 20.0898C7.54428 20.0898 4.86557 18.7054 3.11434 16.5373C4.75182 17.8617 6.83679 18.6523 9.10676 18.6523C14.3773 18.6523 18.6516 14.3811 18.6516 9.10741C18.6516 6.83744 17.861 4.75247 16.5367 3.11499C18.7029 4.86559 20.0897 7.54431 20.0897 10.5449Z" fill="#F4C534"/>
<path d="M14.1362 6.24531C12.7496 5.84416 11.3001 6.64385 10.8986 8.03146C10.4972 9.41908 11.2959 10.8692 12.6825 11.2703C14.0691 11.6714 15.5186 10.8718 15.92 9.48414C16.3215 8.09653 15.5228 6.64645 14.1362 6.24531Z" fill="#F4C534"/>
<path d="M11.2536 8.13305C10.9893 9.34803 11.7386 10.613 12.9299 10.9574C14.1211 11.3024 15.2998 10.5949 15.5642 9.37991C15.8286 8.16492 15.0786 6.90369 13.8873 6.5587C12.6961 6.21495 11.518 6.91869 11.2536 8.13305Z" fill="white"/>
<path d="M13.7287 7.81216C13.2637 7.34721 12.5093 7.3478 12.0436 7.81349C11.5779 8.27918 11.5773 9.03362 12.0423 9.49857C12.5072 9.96353 13.2617 9.96294 13.7274 9.49725C14.1931 9.03156 14.1936 8.27712 13.7287 7.81216Z" fill="#3E4347"/>
<path d="M12.6721 7.91921C12.5811 7.82817 12.3901 7.8715 12.2456 8.016C12.1011 8.16049 12.0578 8.35142 12.1489 8.44246C12.2399 8.5335 12.4308 8.49017 12.5753 8.34568C12.7198 8.20119 12.7631 8.01025 12.6721 7.91921Z" fill="#5A5F63"/>
<path d="M16.1111 5.90681C16.1111 5.90681 13.4417 3.94433 11.3049 5.69181C11.3049 5.69243 12.3224 2.21061 16.1111 5.90681Z" fill="#3E4347"/>
<path d="M10.191 8.03189C9.7896 6.64428 8.34009 5.84459 6.95347 6.24573C5.56685 6.64688 4.7682 8.09696 5.16964 9.48457C5.57107 10.8722 7.02058 11.6719 8.4072 11.2707C9.79382 10.8696 10.5925 9.41951 10.191 8.03189Z" fill="#F4C534"/>
<path d="M9.83612 8.13305C10.1005 9.34803 9.35113 10.613 8.15989 10.9574C6.96866 11.3024 5.78993 10.5949 5.52556 9.37991C5.26118 8.16492 6.01117 6.90369 7.20241 6.5587C8.39364 6.21495 9.57113 6.91869 9.83612 8.13305Z" fill="white"/>
<path d="M9.04601 7.81361C8.58032 7.34792 7.82589 7.34733 7.36093 7.81229C6.89597 8.27724 6.89656 9.03168 7.36225 9.49737C7.82794 9.96306 8.58238 9.96365 9.04734 9.4987C9.5123 9.03374 9.5117 8.2793 9.04601 7.81361Z" fill="#3E4347"/>
<path d="M8.84601 8.01398C8.70152 7.86949 8.51059 7.82616 8.41955 7.9172C8.32851 8.00824 8.37184 8.19917 8.51633 8.34366C8.66082 8.48815 8.85176 8.53148 8.94279 8.44045C9.03383 8.34941 8.9905 8.15847 8.84601 8.01398Z" fill="#5A5F63"/>
<path d="M4.9787 5.90681C4.9787 5.90681 7.64804 3.94433 9.78488 5.69181C9.78488 5.69243 8.7674 2.21061 4.9787 5.90681Z" fill="#3E4347"/>
<path d="M14.4262 14.4792C14.9956 15.0823 13.4356 17.1504 10.5907 17.1598C7.74508 17.1492 6.18573 15.0836 6.75509 14.4792C7.28321 13.8336 8.91194 14.1586 10.5907 14.1586C12.2781 14.1586 13.8981 13.8348 14.4262 14.4792Z" fill="#3E4347"/>
<path d="M12.1373 15.5723C11.7286 15.4505 11.3036 15.6005 10.8592 15.6911C10.7624 15.7161 10.6542 15.7267 10.5367 15.7248C10.4111 15.7211 10.2961 15.7023 10.1949 15.673C9.8005 15.5655 9.38738 15.4636 9.00676 15.5867C8.56802 15.7355 8.08365 16.1604 8.08427 16.8554C8.38615 18.606 9.65738 21.0266 10.5905 20.9998C11.5224 21.0291 12.7942 18.6048 13.0967 16.8554C13.0973 16.1442 12.5867 15.7092 12.1373 15.5723Z" fill="#E24B4B"/>
<g opacity="0.2">
<path opacity="0.2" d="M12.5605 16.5523C12.5061 16.7629 12.2411 16.7948 12.1524 16.5779C12.073 16.4111 12.1055 16.1804 11.8892 16.1517C11.8099 16.1448 11.7317 16.1792 11.6561 16.2048C11.4799 16.2642 11.4017 16.2123 11.3655 16.1029C11.348 16.0504 11.3436 15.9986 11.3642 15.9467C11.413 15.8398 11.5524 15.7636 11.8486 15.8042C12.3167 15.8742 12.643 16.3148 12.5605 16.5523Z" fill="white"/>
</g>
</svg>
