<svg width="22" height="22" viewBox="0 0 22 22" fill="none" xmlns="http://www.w3.org/2000/svg">
<path d="M10.8125 18.625C15.6795 18.625 19.625 14.6795 19.625 9.8125C19.625 4.94549 15.6795 1 10.8125 1C5.94549 1 2 4.94549 2 9.8125C2 14.6795 5.94549 18.625 10.8125 18.625Z" fill="#FFD93B"/>
<path d="M15.3563 13.3231C14.6075 15.0956 12.8563 16.335 10.8138 16.335C8.75438 16.335 6.99251 15.0744 6.25501 13.285C6.11188 12.9331 6.42563 12.5694 6.80563 12.63C9.47626 13.065 12.1463 13.065 14.8225 12.6356C15.2131 12.5688 15.5106 12.9594 15.3563 13.3231Z" fill="#3E4347"/>
<path d="M19.6219 9.8094C19.6219 14.6769 15.6769 18.6188 10.8125 18.6188C8.04313 18.6188 5.57063 17.3413 3.95501 15.34C5.46626 16.5625 7.39063 17.2919 9.48563 17.2919C14.35 17.2919 18.295 13.3494 18.295 8.48253C18.295 6.38753 17.5656 4.46315 16.3431 2.9519C18.3419 4.56815 19.6219 7.04003 19.6219 9.8094Z" fill="#F4C534"/>
<path d="M12.2977 4.77626C12.1408 4.61063 12.1483 4.34938 12.3145 4.19251C12.9102 3.62876 14.6164 2.67813 16.817 3.12063C17.0408 3.16563 17.1852 3.38313 17.1408 3.60688C17.0964 3.83001 16.8777 3.97251 16.6545 3.93063C14.9245 3.58438 13.4489 4.25626 12.8808 4.79251C12.717 4.94813 12.4558 4.94313 12.2977 4.77626Z" fill="#3E4347"/>
<path d="M8.7439 4.79252C8.1764 4.25627 6.7014 3.58377 4.97015 3.93064C4.74515 3.97189 4.5289 3.83002 4.4839 3.60689C4.43953 3.38314 4.5839 3.16564 4.80765 3.12064C7.00828 2.68064 8.71453 3.62877 9.31015 4.19252C9.4764 4.34877 9.4839 4.61002 9.32703 4.77627C9.17015 4.94314 8.90828 4.94877 8.7439 4.79252Z" fill="#3E4347"/>
<path d="M10.3813 8.67376C10.2544 10.3744 8.74687 11.6269 7.015 11.4644C5.28313 11.3019 3.97688 9.78626 4.10375 8.08563C4.23 6.38438 5.7425 5.13751 7.47438 5.30001C9.20625 5.46188 10.5081 6.97251 10.3813 8.67376Z" fill="white"/>
<path d="M8.04125 10.0662C8.88141 10.0662 9.5625 9.38459 9.5625 8.54374C9.5625 7.70289 8.88141 7.02124 8.04125 7.02124C7.20108 7.02124 6.52 7.70289 6.52 8.54374C6.52 9.38459 7.20108 10.0662 8.04125 10.0662Z" fill="#3E4347"/>
<path d="M8.81353 7.77284C8.66172 7.62102 8.45475 7.58185 8.35126 7.68533C8.24778 7.78882 8.28695 7.99579 8.43877 8.1476C8.59058 8.29942 8.79755 8.33859 8.90103 8.2351C9.00452 8.13162 8.96535 7.92465 8.81353 7.77284Z" fill="white"/>
<path d="M11.2445 8.67375C11.3714 10.3744 12.8789 11.6269 14.6108 11.4644C16.3427 11.3019 17.6489 9.78625 17.522 8.08563C17.3952 6.385 15.8827 5.1375 14.1508 5.3C12.4189 5.46188 11.1177 6.9725 11.2445 8.67375Z" fill="white"/>
<path d="M13.5856 10.0662C14.4258 10.0662 15.1069 9.38459 15.1069 8.54374C15.1069 7.70289 14.4258 7.02124 13.5856 7.02124C12.7455 7.02124 12.0644 7.70289 12.0644 8.54374C12.0644 9.38459 12.7455 10.0662 13.5856 10.0662Z" fill="#3E4347"/>
<path d="M14.3576 7.77558C14.2058 7.62377 13.9988 7.58459 13.8953 7.68808C13.7918 7.79157 13.831 7.99853 13.9828 8.15035C14.1346 8.30216 14.3416 8.34134 14.4451 8.23785C14.5486 8.13436 14.5094 7.9274 14.3576 7.77558Z" fill="white"/>
<path d="M9.06188 15.1681C8.74188 15.1062 8.38563 15.2681 8.30751 15.7469C8.02126 19.2575 9.31751 21.0006 10.8125 21C12.3088 21.0031 13.6031 19.2537 13.3181 15.7469C13.2406 15.27 12.8838 15.1062 12.5638 15.1681C11.4381 15.3869 10.1869 15.3869 9.06188 15.1681Z" fill="#E24B4B"/>
</svg>
