<svg width="20" height="20" viewBox="0 0 20 20" fill="none" xmlns="http://www.w3.org/2000/svg">
<path fill-rule="evenodd" clip-rule="evenodd" d="M11.6295 3.49667C12.3394 3.22261 13.1158 3.1756 13.8533 3.36225C14.4208 3.50589 14.9435 3.78237 15.3807 4.16565C15.8881 3.97173 16.3699 3.71335 16.8145 3.39617C17.0693 3.21438 17.4102 3.20994 17.6696 3.38504C17.9291 3.56014 18.0525 3.87795 17.9792 4.18226C17.7533 5.12075 17.3029 5.98747 16.6692 6.70721C16.6773 6.80597 16.6816 6.90506 16.6819 7.00425L16.6819 7.0067C16.6819 11.0982 14.7332 14.1114 11.9209 15.6254C9.12587 17.1302 5.55736 17.1112 2.38266 15.3272C2.08041 15.1574 1.93397 14.8025 2.02848 14.4689C2.12299 14.1354 2.43381 13.91 2.78023 13.924C3.82543 13.966 4.86097 13.7675 5.81104 13.3499C4.87507 12.7419 4.19213 12.0279 3.71064 11.2589C3.04014 10.188 2.78791 9.05507 2.74231 8.04037C2.69685 7.02872 2.8557 6.1187 3.02239 5.46675C3.10617 5.13906 3.19315 4.87189 3.26032 4.68396C3.29395 4.58988 3.32274 4.5153 3.34386 4.46256C3.35443 4.43618 3.36309 4.41522 3.3695 4.39998L3.37738 4.38144L3.37997 4.37544L3.38091 4.37328L3.3813 4.3724C3.38146 4.37202 3.38162 4.37167 4.06826 4.67337L3.38162 4.37167C3.49083 4.12312 3.72582 3.953 3.99604 3.92686C4.26625 3.90071 4.5295 4.02264 4.68433 4.24564C5.27997 5.10354 6.07549 5.79824 6.99943 6.26864C7.70489 6.6278 8.46873 6.84781 9.25041 6.91971C9.26324 6.19697 9.48361 5.49198 9.88679 4.89123C10.3118 4.25801 10.9197 3.77069 11.6295 3.49667ZM4.38914 6.21403C4.28633 6.71532 4.21163 7.32388 4.2408 7.97303C4.27759 8.79168 4.47848 9.6587 4.98199 10.4629C5.48229 11.2619 6.30911 12.0436 7.67123 12.656C7.91844 12.7671 8.08645 13.003 8.1107 13.2729C8.13496 13.5429 8.01167 13.8049 7.78823 13.9583C7.13221 14.4088 6.42074 14.7604 5.67609 15.0069C7.6453 15.4442 9.59956 15.1716 11.2099 14.3047C13.5053 13.0689 15.1815 10.5825 15.1819 7.00805C15.1814 6.86861 15.1681 6.72954 15.1422 6.59264C15.0961 6.34868 15.1737 6.09772 15.3495 5.92238C15.4241 5.84799 15.4958 5.77106 15.5646 5.69174C15.5096 5.70982 15.4544 5.72729 15.3991 5.74416C15.1146 5.83082 14.8057 5.74118 14.6118 5.51567C14.3149 5.17035 13.9214 4.92679 13.4852 4.8164C13.0491 4.70602 12.5901 4.73373 12.1697 4.89601C11.7493 5.05833 11.3868 5.34793 11.1323 5.72713C10.8777 6.10644 10.7439 6.55664 10.75 7.01676L10.7501 7.0267H10.7501V7.69337C10.7501 8.09993 10.4262 8.43245 10.0197 8.44311C8.73629 8.47678 7.46488 8.18882 6.31887 7.60537C5.60624 7.24255 4.95602 6.77257 4.38914 6.21403Z" fill="#93959C"/>
</svg>
