<svg width="22" height="22" viewBox="0 0 22 22" fill="none" xmlns="http://www.w3.org/2000/svg">
<path d="M11 21C16.5228 21 21 16.5228 21 11C21 5.47715 16.5228 1 11 1C5.47715 1 1 5.47715 1 11C1 16.5228 5.47715 21 11 21Z" fill="#FFD93B"/>
<path d="M21 11C21 16.525 16.5219 21 11 21C7.85626 21 5.05001 19.55 3.21564 17.2781C4.93126 18.6656 7.11564 19.4938 9.49376 19.4938C15.0156 19.4938 19.4938 15.0188 19.4938 9.49376C19.4938 7.11564 18.6656 4.93126 17.2781 3.21564C19.5469 5.05001 21 7.85626 21 11Z" fill="#F4C534"/>
<path d="M12.8937 9.51185C13.13 11.4018 14.8131 12.9393 16.6518 12.9393C18.4906 12.9393 19.7837 11.4018 19.5475 9.51185C19.3106 7.61561 17.6331 6.07874 15.7943 6.07874C13.9556 6.07811 12.6568 7.61561 12.8937 9.51185Z" fill="#65B1EF"/>
<path d="M16.5974 14.5713C15.7456 16.7194 13.818 18.3706 11.3749 18.7575C7.1043 19.4325 3.4643 16.0025 3.56242 11.94C3.57492 11.4669 4.17992 11.29 4.46805 11.6625C6.94867 14.8725 12.2874 15.8863 15.8862 13.95C16.2962 13.73 16.7712 14.1394 16.5974 14.5713Z" fill="#3E4347"/>
<path d="M5.93557 13.0781L5.91119 14.775C5.91557 14.8437 5.94494 14.9087 6.00244 14.9506C6.17119 15.0569 6.53682 15.29 6.93307 15.4744C7.05619 15.5306 7.19557 15.4519 7.21869 15.3219L7.44932 13.985C6.90994 13.7319 6.40432 13.4262 5.93557 13.0781Z" fill="white"/>
<path d="M10.8743 14.8862L10.9586 16.7975C10.9668 16.9456 11.1505 17.0775 11.338 17.0575C11.9411 16.9919 12.5105 16.8625 12.773 16.8044C12.863 16.7787 12.918 16.7181 12.938 16.6456L13.2361 14.8106C12.4624 14.9306 11.6668 14.9544 10.8743 14.8862Z" fill="white"/>
<path d="M11.7275 7.44564C11.7275 9.52064 10.04 11.2081 7.95879 11.2081C5.87754 11.2081 4.19629 9.52064 4.19629 7.44564C4.19629 5.36438 5.87754 3.67688 7.95879 3.67688C10.04 3.67688 11.7275 5.36376 11.7275 7.44564Z" fill="#F4C534"/>
<path d="M11.0669 7.4456C11.0669 9.1556 9.6744 10.5475 7.95815 10.5475C6.2419 10.5475 4.85565 9.15498 4.85565 7.4456C4.85565 5.72935 6.2419 4.33685 7.95815 4.33685C9.6744 4.33685 11.0669 5.72935 11.0669 7.4456Z" fill="white"/>
<path d="M5.17566 9.255C5.80003 10.1188 6.80878 10.6875 7.95816 10.6875C9.10753 10.6875 10.1188 10.1188 10.745 9.255H5.17566Z" fill="#F4C534"/>
<path d="M7.96066 8.80377C8.71211 8.80377 9.32129 8.1946 9.32129 7.44314C9.32129 6.69169 8.71211 6.08252 7.96066 6.08252C7.20921 6.08252 6.60004 6.69169 6.60004 7.44314C6.60004 8.1946 7.20921 8.80377 7.96066 8.80377Z" fill="#3E4347"/>
<path d="M8.65931 6.74552C8.49285 6.57906 8.25462 6.5474 8.12721 6.67481C7.99981 6.80222 8.03146 7.04044 8.19792 7.2069C8.36439 7.37336 8.60261 7.40502 8.73002 7.27761C8.85743 7.1502 8.82577 6.91198 8.65931 6.74552Z" fill="white"/>
<path d="M11.3776 4.47684C11.3776 4.47684 9.64006 2.48309 4.44006 3.20809C4.91506 3.05184 11.6338 0.951216 11.3776 4.47684Z" fill="#3E4347"/>
<path d="M12.3868 8.19749C12.3868 10.0737 13.9125 11.6 15.795 11.6C17.6775 11.6 19.1975 10.0737 19.1975 8.19749C19.1975 6.31562 17.6768 4.78937 15.795 4.78937C13.9131 4.78937 12.3868 6.31499 12.3868 8.19749Z" fill="#F4C534"/>
<path d="M12.9838 8.19686C12.9838 9.74311 14.2432 11.0019 15.7945 11.0019C17.3463 11.0019 18.6001 9.74248 18.6001 8.19686C18.6001 6.64498 17.3463 5.38623 15.7945 5.38623C14.2432 5.38623 12.9838 6.64561 12.9838 8.19686Z" fill="white"/>
<path d="M12.7032 5.5125C12.7032 5.5125 14.2744 3.70938 18.9763 4.365C18.5469 4.22438 12.4713 2.32501 12.7032 5.5125Z" fill="#3E4347"/>
<path d="M18.4838 10.3331L18.44 10.3831C17.7838 11.1769 16.8213 11.6331 15.7963 11.6331C14.765 11.6331 13.8025 11.1775 13.1463 10.3831L13.1025 10.3331H18.4838Z" fill="#4E99D2"/>
<path d="M15.7907 9.55627C16.5421 9.55627 17.1513 8.9471 17.1513 8.19565C17.1513 7.44419 16.5421 6.83502 15.7907 6.83502C15.0392 6.83502 14.4301 7.44419 14.4301 8.19565C14.4301 8.9471 15.0392 9.55627 15.7907 9.55627Z" fill="#3E4347"/>
<path d="M16.4896 7.49809C16.3231 7.33163 16.0849 7.29997 15.9575 7.42738C15.8301 7.55478 15.8617 7.79301 16.0282 7.95947C16.1946 8.12592 16.4329 8.15758 16.5603 8.03017C16.6877 7.90277 16.656 7.66454 16.4896 7.49809Z" fill="white"/>
</svg>
