<svg width="20" height="20" viewBox="0 0 20 20" fill="none" xmlns="http://www.w3.org/2000/svg">
<path fill-rule="evenodd" clip-rule="evenodd" d="M6 3C6 2.44772 5.55228 2 5 2C4.44772 2 4 2.44772 4 3V8.44444C4 9.94734 4.59702 11.3887 5.65973 12.4514C6.72243 13.5141 8.16377 14.1111 9.66667 14.1111C11.1696 14.1111 12.6109 13.5141 13.6736 12.4514C14.7363 11.3887 15.3333 9.94734 15.3333 8.44444V3C15.3333 2.44772 14.8856 2 14.3333 2C13.781 2 13.3333 2.44772 13.3333 3V8.44444C13.3333 9.4169 12.947 10.3495 12.2594 11.0372C11.5718 11.7248 10.6391 12.1111 9.66667 12.1111C8.69421 12.1111 7.76158 11.7248 7.07394 11.0372C6.38631 10.3495 6 9.4169 6 8.44444V3ZM5 16C4.44772 16 4 16.4477 4 17C4 17.5523 4.44772 18 5 18H14.3516C14.9038 18 15.3516 17.5523 15.3516 17C15.3516 16.4477 14.9038 16 14.3516 16H5Z" fill="#93959C"/>
</svg>
