<svg width="20" height="20" viewBox="0 0 20 20" fill="none" xmlns="http://www.w3.org/2000/svg">
<path fill-rule="evenodd" clip-rule="evenodd" d="M10.3721 2.21967C10.0792 1.92678 9.60432 1.92678 9.31143 2.21967C9.01854 2.51256 9.01853 2.98744 9.31143 3.28033L10.65 4.61887C10.5503 4.61929 10.4524 4.62031 10.3618 4.62153C10.1737 4.62406 9.99828 4.62785 9.87006 4.631C9.80586 4.63258 9.7533 4.634 9.71666 4.63503L9.67414 4.63625L9.6702 4.63637C5.98528 4.64264 3 7.63179 3 11.3182C3 15.0084 5.99155 18 9.68182 18C13.3721 18 16.3636 15.0084 16.3636 11.3182C16.3636 10.904 16.0279 10.5682 15.6136 10.5682C15.1994 10.5682 14.8636 10.904 14.8636 11.3182C14.8636 14.18 12.5437 16.5 9.68182 16.5C6.81998 16.5 4.5 14.18 4.5 11.3182C4.5 8.45634 6.81998 6.13636 9.68182 6.13636C9.68955 6.13636 9.69727 6.13624 9.705 6.136L9.70501 6.136L9.70513 6.136L9.70571 6.13598L9.70822 6.13591L9.71853 6.1356L9.75884 6.13444C9.79392 6.13345 9.84469 6.13208 9.90688 6.13055C10.0314 6.12749 10.201 6.12383 10.382 6.1214C10.6094 6.11834 10.8311 6.11771 11.003 6.12069L9.31143 7.81224C9.01853 8.10514 9.01854 8.58001 9.31143 8.8729C9.60432 9.1658 10.0792 9.1658 10.3721 8.8729L13.1684 6.07662C13.4613 5.78372 13.4613 5.30885 13.1684 5.01596L10.3721 2.21967Z" fill="#93959C"/>
</svg>
