<svg width="20" height="20" viewBox="0 0 20 20" fill="none" xmlns="http://www.w3.org/2000/svg">
<path fill-rule="evenodd" clip-rule="evenodd" d="M7.21165 6.72704C7.9346 5.42926 9.38358 4.83057 10.7303 4.9692C12.0546 5.10553 13.1472 5.92955 13.3302 7.3941C13.3772 7.76941 13.6962 8.05106 14.0744 8.05108C15.4491 8.05116 16.3158 9.10884 16.4751 10.4892C16.6318 11.8465 16.0543 13.1459 14.8839 13.5993L13.1346 13.5994L12.7674 13.5995L12.6884 13.5995L12.6702 13.5995L12.6659 13.5995H12.6648H12.6646H12.6645H12.6645C12.2503 13.5997 11.9146 13.9357 11.9148 14.3499C11.915 14.7641 12.251 15.0997 12.6652 15.0995H12.6652H12.6653H12.6655H12.6666L12.6709 15.0995L12.689 15.0995L12.7678 15.0995L13.1348 15.0994L15.0142 15.0993C15.0948 15.0993 15.1749 15.0863 15.2514 15.0608C17.3859 14.3493 18.1781 12.1619 17.9652 10.3172C17.77 8.62535 16.6862 6.89934 14.7017 6.59746C14.202 4.69228 12.5825 3.65193 10.8839 3.47708C9.23802 3.30766 7.41358 3.93136 6.28618 5.40901C5.38435 5.1345 4.49966 5.45148 3.92258 6.05667C3.36247 6.64406 3.06514 7.52878 3.28361 8.41318C2.2549 9.23014 1.90339 10.5592 2.02207 11.7384C2.16025 13.1113 2.96161 14.5681 4.43966 15.0608C4.51614 15.0863 4.59622 15.0993 4.67683 15.0993L6.55625 15.0994L6.92325 15.0995L7.00212 15.0995L7.02021 15.0995L7.02452 15.0995H7.02556H7.02582H7.02588H7.0259C7.44011 15.0997 7.77606 14.7641 7.77626 14.3499C7.77646 13.9357 7.44083 13.5997 7.02661 13.5995H7.0266H7.02653H7.02626H7.02519L7.02084 13.5995L7.00268 13.5995L6.92369 13.5995L6.55649 13.5994L4.81077 13.5993C4.1152 13.3121 3.60915 12.5283 3.51453 11.5882C3.41625 10.6118 3.78735 9.75349 4.53665 9.38693C4.72339 9.29557 4.86384 9.1308 4.92447 8.93195C4.98509 8.7331 4.96046 8.518 4.85646 8.338C4.60152 7.8968 4.70679 7.40786 5.00815 7.09182C5.28942 6.79685 5.69771 6.69073 6.14022 6.98595C6.31437 7.10213 6.52914 7.14024 6.73262 7.09106C6.9361 7.04189 7.10977 6.90991 7.21165 6.72704ZM10.3759 8.65044L9.8456 8.12011L9.31527 8.65044L6.96587 10.9998C6.67298 11.2927 6.67298 11.7676 6.96587 12.0605C7.25876 12.3534 7.73364 12.3534 8.02653 12.0605L9.0956 10.9914V15.7591C9.0956 16.1733 9.43139 16.5091 9.8456 16.5091C10.2598 16.5091 10.5956 16.1733 10.5956 15.7591V10.9914L11.6647 12.0605C11.9576 12.3534 12.4324 12.3534 12.7253 12.0605C13.0182 11.7676 13.0182 11.2927 12.7253 10.9998L10.3759 8.65044Z" fill="#93959C"/>
</svg>
