<svg width="20" height="20" viewBox="0 0 20 20" fill="none" xmlns="http://www.w3.org/2000/svg">
<path fill-rule="evenodd" clip-rule="evenodd" d="M10.285 2.05604C10.1971 2.01992 10.1009 2 10 2C9.80129 2 9.62063 2.07728 9.48643 2.20342C9.48011 2.20936 9.4739 2.21541 9.46779 2.22156L5.4419 6.24745C5.14901 6.54034 5.14901 7.01521 5.4419 7.30811C5.73479 7.601 6.20967 7.601 6.50256 7.30811L9.25 4.56067V12.4167C9.25 12.8309 9.58579 13.1667 10 13.1667C10.4142 13.1667 10.75 12.8309 10.75 12.4167V4.56065L13.4975 7.30811C13.7903 7.601 14.2652 7.601 14.5581 7.30811C14.851 7.01521 14.851 6.54034 14.5581 6.24745L10.5303 2.21967C10.4579 2.14719 10.3742 2.09265 10.285 2.05604ZM2.75 11.6667C3.16421 11.6667 3.5 12.0024 3.5 12.4167V15.6389C3.5 15.8673 3.59072 16.0863 3.75221 16.2478C3.9137 16.4093 4.13273 16.5 4.36111 16.5H15.6389C15.8673 16.5 16.0863 16.4093 16.2478 16.2478C16.4093 16.0863 16.5 15.8673 16.5 15.6389V12.4167C16.5 12.0024 16.8358 11.6667 17.25 11.6667C17.6642 11.6667 18 12.0024 18 12.4167V15.6389C18 16.2651 17.7512 16.8656 17.3084 17.3084C16.8657 17.7512 16.2651 18 15.6389 18H4.36111C3.73491 18 3.13435 17.7512 2.69155 17.3084C2.24876 16.8656 2 16.2651 2 15.6389V12.4167C2 12.0024 2.33579 11.6667 2.75 11.6667Z" fill="#93959C"/>
</svg>
