<svg width="20" height="20" viewBox="0 0 20 20" fill="none" xmlns="http://www.w3.org/2000/svg">
<path fill-rule="evenodd" clip-rule="evenodd" d="M9 7.96667C10.2668 7.96667 11.2692 6.95327 11.2692 5.73333C11.2692 4.5134 10.2668 3.5 9 3.5C7.73318 3.5 6.73077 4.5134 6.73077 5.73333C6.73077 6.95327 7.73318 7.96667 9 7.96667ZM9 9.46667C11.0817 9.46667 12.7692 7.7952 12.7692 5.73333C12.7692 3.67147 11.0817 2 9 2C6.91832 2 5.23077 3.67147 5.23077 5.73333C5.23077 7.7952 6.91832 9.46667 9 9.46667ZM10.27 12.0333H7.46342C5.33108 12.0333 3.5 13.851 3.5 16.2222C3.5 16.3188 3.5364 16.3929 3.58194 16.4403C3.62647 16.4867 3.67003 16.5 3.70732 16.5H10.35C10.35 16.5 11 16.5977 11 17.25C11 17.9023 10.35 18 10.35 18H3.70732C2.76439 18 2 17.2041 2 16.2222C2 13.0803 4.44606 10.5333 7.46342 10.5333H10.27C10.7725 10.5333 11 10.9727 11 11.3C11 11.6 10.7748 12.0333 10.27 12.0333ZM15.5 11.75C15.5 11.3358 15.1642 11 14.75 11C14.3358 11 14 11.3358 14 11.75V13.5H12.25C11.8358 13.5 11.5 13.8358 11.5 14.25C11.5 14.6642 11.8358 15 12.25 15H14V16.75C14 17.1642 14.3358 17.5 14.75 17.5C15.1642 17.5 15.5 17.1642 15.5 16.75V15H17.25C17.6642 15 18 14.6642 18 14.25C18 13.8358 17.6642 13.5 17.25 13.5H15.5V11.75Z" fill="#93959C"/>
</svg>
