<svg width="22" height="22" viewBox="0 0 22 22" fill="none" xmlns="http://www.w3.org/2000/svg">
<path d="M11 21C16.5228 21 21 16.5228 21 11C21 5.47715 16.5228 1 11 1C5.47715 1 1 5.47715 1 11C1 16.5228 5.47715 21 11 21Z" fill="#FFD93B"/>
<path d="M20.9525 11C20.9525 16.525 16.4743 21 10.9525 21C7.80872 21 5.00247 19.55 3.16809 17.2781C4.88372 18.6656 7.06809 19.4938 9.44622 19.4938C14.9681 19.4938 19.4462 15.0188 19.4462 9.49376C19.4462 7.11564 18.6181 4.93126 17.2306 3.21564C19.4993 5.05001 20.9525 7.85626 20.9525 11Z" fill="#F4C534"/>
<path d="M16.2656 14.0125C16.8013 14.2863 15.1669 17.4656 11.0588 17.4594C6.95064 17.465 5.31626 14.2863 5.85189 14.0125C6.28876 13.6713 8.20876 15.335 11.0588 15.26C13.9088 15.3338 15.8288 13.6725 16.2656 14.0125Z" fill="#3E4347"/>
<path d="M13.6281 17.9724C13.8819 16.8724 13.4112 15.6137 13.1362 15.0162V15.0105C13.6862 14.873 14.1731 14.693 14.5906 14.5243C14.9556 16.603 13.6281 17.9724 13.6281 17.9724Z" fill="white"/>
<path d="M8.97937 15.0168C8.71 15.6143 8.23375 16.8781 8.4875 17.9731C8.4875 17.9731 7.165 16.6037 7.525 14.525C7.94312 14.6943 8.42937 14.8737 8.97937 15.0112V15.0168Z" fill="white"/>
<path d="M17.0699 15.3412C17.2336 14.8337 17.408 14.0981 17.143 13.635C16.783 12.7962 15.7017 12.9487 14.8911 13.1275C16.208 12.4587 17.1011 12.8912 17.3536 13.5362C17.5461 13.9162 17.5774 14.5344 17.0699 15.3412Z" fill="#F4C534"/>
<path d="M16.2917 15.5525C16.5374 15.0932 16.9074 14.2207 16.5836 13.81C16.1911 13.2894 15.5361 13.5619 14.8805 13.7457C15.5074 13.3057 16.3161 13.0575 16.7855 13.6632C17.1692 14.2094 16.7736 15.0982 16.2917 15.5525Z" fill="#F4C534"/>
<path d="M4.93 15.3412C4.76625 14.8337 4.59187 14.0981 4.85687 13.635C5.21687 12.7962 6.29812 12.9487 7.10875 13.1275C5.79187 12.4587 4.89875 12.8912 4.64625 13.5362C4.45375 13.9162 4.42312 14.5344 4.93 15.3412Z" fill="#F4C534"/>
<path d="M5.70802 15.5525C5.46239 15.0932 5.09239 14.2207 5.41677 13.81C5.80927 13.2894 6.46427 13.5619 7.11989 13.7457C6.49302 13.3057 5.68427 13.0575 5.21489 13.6632C4.83052 14.2094 5.22614 15.0982 5.70802 15.5525Z" fill="#F4C534"/>
<path d="M8.54187 8.49126C7.80187 8.49126 7.1875 8.29814 6.69312 7.98126C6.42687 8.39376 6.26062 8.94626 6.26062 9.55751C6.26062 10.8306 6.96812 11.8619 7.84125 11.8619C8.71375 11.8619 9.42187 10.83 9.42187 9.55751C9.42187 9.14626 9.34187 8.76564 9.2125 8.43126C9 8.46751 8.77875 8.49126 8.54187 8.49126Z" fill="#3E4347"/>
<path d="M13.458 8.49132C14.198 8.49132 14.8124 8.2982 15.3068 7.98132C15.573 8.39382 15.7393 8.94632 15.7393 9.55757C15.7393 10.8307 15.0318 11.8619 14.1586 11.8619C13.2855 11.8619 12.578 10.8301 12.578 9.55757C12.578 9.14632 12.658 8.7657 12.7874 8.43132C12.9999 8.46757 13.2218 8.49132 13.458 8.49132Z" fill="#3E4347"/>
</svg>
