<svg width="22" height="22" viewBox="0 0 22 22" fill="none" xmlns="http://www.w3.org/2000/svg">
<path d="M11.4374 19.8748C16.6495 19.8748 20.8748 15.6495 20.8748 10.4374C20.8748 5.22526 16.6495 1 11.4374 1C6.22526 1 2 5.22526 2 10.4374C2 15.6495 6.22526 19.8748 11.4374 19.8748Z" fill="#FFD93B"/>
<path d="M20.876 10.4387C20.876 15.6536 16.6492 19.8773 11.4374 19.8773C8.46992 19.8773 5.8212 18.5086 4.08997 16.3642C5.70933 17.6736 7.77118 18.4554 10.0155 18.4554C15.2273 18.4554 19.4542 14.2317 19.4542 9.0168C19.4542 6.77245 18.6723 4.7106 17.3629 3.09125C19.5042 4.82248 20.876 7.47119 20.876 10.4387Z" fill="#F4C534"/>
<path d="M16.7879 15.333C16.4173 15.5823 14.4736 13.5511 11.653 13.6399C8.83928 13.5624 6.89868 15.5867 6.51868 15.333C5.99306 15.1661 7.78429 11.4799 11.6467 11.4836C15.5161 11.483 17.3036 15.1742 16.7879 15.333Z" fill="#3E4347"/>
<path d="M10.233 8.8824C9.79677 8.7499 9.3249 8.69115 8.83679 8.72803C7.88367 8.80052 7.05118 9.21239 6.45807 9.81926C6.25494 10.0243 5.9212 9.84239 5.96495 9.56114C6.13182 8.40678 7.07931 7.47742 8.29679 7.38492C9.21428 7.31554 10.0574 7.74241 10.5536 8.43865C10.713 8.65678 10.4936 8.96365 10.233 8.8824Z" fill="#3E4347"/>
<path d="M12.6417 8.8824C13.078 8.7499 13.5498 8.69115 14.038 8.72803C14.9911 8.80052 15.8236 9.21239 16.4167 9.81926C16.6198 10.0243 16.9536 9.84239 16.9098 9.56114C16.7429 8.40678 15.7954 7.47742 14.578 7.38492C13.6605 7.31554 12.8174 7.74241 12.3211 8.43865C12.1617 8.65678 12.3811 8.96365 12.6417 8.8824Z" fill="#3E4347"/>
<path d="M14.588 14.2811V20.3098C14.588 21.2241 8.71241 21.236 8.71241 20.3098V14.2867C9.09116 12.5905 14.1423 12.6092 14.588 14.2811Z" fill="#8CC63E"/>
</svg>
