<svg width="102" height="36" viewBox="0 0 102 36" fill="none" xmlns="http://www.w3.org/2000/svg">
<path d="M47.8485 25L44.9685 19.996H43.4025V25H41.3505V12.49H45.6705C46.6305 12.49 47.4405 12.658 48.1005 12.994C48.7725 13.33 49.2705 13.78 49.5945 14.344C49.9305 14.908 50.0985 15.538 50.0985 16.234C50.0985 17.05 49.8585 17.794 49.3785 18.466C48.9105 19.126 48.1845 19.576 47.2005 19.816L50.2965 25H47.8485ZM43.4025 18.358H45.6705C46.4385 18.358 47.0145 18.166 47.3985 17.782C47.7945 17.398 47.9925 16.882 47.9925 16.234C47.9925 15.586 47.8005 15.082 47.4165 14.722C47.0325 14.35 46.4505 14.164 45.6705 14.164H43.4025V18.358ZM57.0255 25.162C56.0895 25.162 55.2435 24.952 54.4875 24.532C53.7315 24.1 53.1375 23.5 52.7055 22.732C52.2735 21.952 52.0575 21.052 52.0575 20.032C52.0575 19.024 52.2795 18.13 52.7235 17.35C53.1675 16.57 53.7735 15.97 54.5415 15.55C55.3095 15.13 56.1675 14.92 57.1155 14.92C58.0635 14.92 58.9215 15.13 59.6895 15.55C60.4575 15.97 61.0635 16.57 61.5075 17.35C61.9515 18.13 62.1735 19.024 62.1735 20.032C62.1735 21.04 61.9455 21.934 61.4895 22.714C61.0335 23.494 60.4095 24.1 59.6175 24.532C58.8375 24.952 57.9735 25.162 57.0255 25.162ZM57.0255 23.38C57.5535 23.38 58.0455 23.254 58.5015 23.002C58.9695 22.75 59.3475 22.372 59.6355 21.868C59.9235 21.364 60.0675 20.752 60.0675 20.032C60.0675 19.312 59.9295 18.706 59.6535 18.214C59.3775 17.71 59.0115 17.332 58.5555 17.08C58.0995 16.828 57.6075 16.702 57.0795 16.702C56.5515 16.702 56.0595 16.828 55.6035 17.08C55.1595 17.332 54.8055 17.71 54.5415 18.214C54.2775 18.706 54.1455 19.312 54.1455 20.032C54.1455 21.1 54.4155 21.928 54.9555 22.516C55.5075 23.092 56.1975 23.38 57.0255 23.38ZM63.518 20.032C63.518 19.012 63.722 18.118 64.13 17.35C64.55 16.57 65.126 15.97 65.858 15.55C66.59 15.13 67.43 14.92 68.378 14.92C69.578 14.92 70.568 15.208 71.348 15.784C72.14 16.348 72.674 17.158 72.95 18.214H70.736C70.556 17.722 70.268 17.338 69.872 17.062C69.476 16.786 68.978 16.648 68.378 16.648C67.538 16.648 66.866 16.948 66.362 17.548C65.87 18.136 65.624 18.964 65.624 20.032C65.624 21.1 65.87 21.934 66.362 22.534C66.866 23.134 67.538 23.434 68.378 23.434C69.566 23.434 70.352 22.912 70.736 21.868H72.95C72.662 22.876 72.122 23.68 71.33 24.28C70.538 24.868 69.554 25.162 68.378 25.162C67.43 25.162 66.59 24.952 65.858 24.532C65.126 24.1 64.55 23.5 64.13 22.732C63.722 21.952 63.518 21.052 63.518 20.032ZM78.919 20.05L83.491 25H80.719L77.047 20.734V25H74.995V11.68H77.047V19.42L80.647 15.082H83.491L78.919 20.05ZM94.0518 19.798C94.0518 20.17 94.0278 20.506 93.9798 20.806H86.4018C86.4618 21.598 86.7558 22.234 87.2838 22.714C87.8118 23.194 88.4598 23.434 89.2278 23.434C90.3318 23.434 91.1118 22.972 91.5678 22.048H93.7818C93.4818 22.96 92.9358 23.71 92.1438 24.298C91.3638 24.874 90.3918 25.162 89.2278 25.162C88.2798 25.162 87.4278 24.952 86.6718 24.532C85.9278 24.1 85.3398 23.5 84.9078 22.732C84.4878 21.952 84.2778 21.052 84.2778 20.032C84.2778 19.012 84.4818 18.118 84.8898 17.35C85.3098 16.57 85.8918 15.97 86.6358 15.55C87.3918 15.13 88.2558 14.92 89.2278 14.92C90.1638 14.92 90.9978 15.124 91.7298 15.532C92.4618 15.94 93.0318 16.516 93.4398 17.26C93.8478 17.992 94.0518 18.838 94.0518 19.798ZM91.9098 19.15C91.8978 18.394 91.6278 17.788 91.0998 17.332C90.5718 16.876 89.9178 16.648 89.1378 16.648C88.4298 16.648 87.8238 16.876 87.3198 17.332C86.8158 17.776 86.5158 18.382 86.4198 19.15H91.9098ZM98.4652 16.756V22.246C98.4652 22.618 98.5492 22.888 98.7172 23.056C98.8972 23.212 99.1972 23.29 99.6172 23.29H100.877V25H99.2572C98.3332 25 97.6252 24.784 97.1332 24.352C96.6412 23.92 96.3952 23.218 96.3952 22.246V16.756H95.2252V15.082H96.3952V12.616H98.4652V15.082H100.877V16.756H98.4652Z" fill="#FCFCFC"/>
<path d="M8.13363 21.4844L13.1185 21.522C13.7267 21.5266 14.2451 21.9616 14.3552 22.5598L15.2579 27.4624C15.3543 27.9861 15.0031 28.4888 14.478 28.5788L8.31069 29.6365C7.73079 29.7359 7.20171 29.2919 7.19894 28.7036L7.16957 22.4463C7.16707 21.9135 7.60114 21.4804 8.13363 21.4844Z" fill="#FF955C"/>
<path d="M14.5065 7.28838L26.484 6.31507C26.9995 6.27318 27.4531 6.64986 27.5067 7.16427L28.7856 19.4585C28.847 20.0488 28.3603 20.5531 27.7685 20.5124L4.81298 18.9345C4.29496 18.8989 4.03778 18.2904 4.37229 17.8917L12.3216 8.41823C12.8702 7.76442 13.6573 7.35739 14.5065 7.28838Z" fill="#0090FF"/>
<path d="M19.4906 30.9883L26.0301 23.1948C26.3698 22.7899 26.0987 22.1726 25.5717 22.1511L17.6804 21.8289C17.0555 21.8034 16.5737 22.3766 16.7063 22.9878L18.3829 30.7171C18.4948 31.233 19.1505 31.3935 19.4906 30.9883Z" fill="#0090FF"/>
</svg>
